<svg id="그룹_22" data-name="그룹 22" xmlns="http://www.w3.org/2000/svg" width="385.009" height="246.69" viewBox="0 0 385.009 246.69">
  <defs>
    <style>
      .cls-1 {
        fill: #e6e6e6;
      }

      .cls-2 {
        fill: #fff;
      }

      .cls-3 {
        fill: #6c63ff;
      }

      .cls-4 {
        fill: #ffb9b9;
      }

      .cls-5 {
        fill: #2f2e41;
      }

      .cls-6 {
        fill: #9f616a;
      }

      .cls-7 {
        fill: #575a89;
      }

      .cls-8 {
        fill: #fbbebe;
      }

      .cls-9 {
        fill: #ffb8b8;
      }

      .cls-10 {
        fill: #d0cde1;
      }
    </style>
  </defs>
  <rect id="사각형_52" data-name="사각형 52" class="cls-1" width="384.845" height="246.472" transform="translate(0.164 0.218)"/>
  <rect id="사각형_53" data-name="사각형 53" class="cls-2" width="362.835" height="200.977" transform="translate(11.169 31.132)"/>
  <rect id="사각형_54" data-name="사각형 54" class="cls-3" width="384.845" height="16.35"/>
  <circle id="타원_48" data-name="타원 48" class="cls-2" cx="3.03" cy="3.03" r="3.03" transform="translate(9.119 5.329)"/>
  <circle id="타원_49" data-name="타원 49" class="cls-2" cx="3.03" cy="3.03" r="3.03" transform="translate(20.622 5.329)"/>
  <circle id="타원_50" data-name="타원 50" class="cls-2" cx="3.03" cy="3.03" r="3.03" transform="translate(32.124 5.329)"/>
  <rect id="사각형_55" data-name="사각형 55" class="cls-1" width="70.965" height="76.991" transform="translate(55.812 47.662)"/>
  <rect id="사각형_56" data-name="사각형 56" class="cls-1" width="70.965" height="76.991" transform="translate(157.103 47.662)"/>
  <rect id="사각형_57" data-name="사각형 57" class="cls-1" width="70.965" height="76.991" transform="translate(258.394 47.662)"/>
  <rect id="사각형_58" data-name="사각형 58" class="cls-1" width="70.965" height="76.991" transform="translate(55.812 138.589)"/>
  <rect id="사각형_59" data-name="사각형 59" class="cls-1" width="70.965" height="76.991" transform="translate(157.103 138.589)"/>
  <rect id="사각형_60" data-name="사각형 60" class="cls-1" width="70.965" height="76.991" transform="translate(258.394 138.589)"/>
  <circle id="타원_51" data-name="타원 51" class="cls-4" cx="11.996" cy="11.996" r="11.996" transform="translate(71.381 70.224)"/>
  <path id="패스_335" data-name="패스 335" class="cls-4" d="M358.421,378s1.5,7.123,1.5,7.872,7.123,4.124,7.123,4.124l6.373-1.125,2.249-6.748s-3.749-5.623-3.749-7.872Z" transform="translate(-279.73 -286.591)"/>
  <path id="패스_336" data-name="패스 336" class="cls-5" d="M343.119,334.749s3.809-8.252,11.109-6.348,11.426,4.761,11.743,7.617a40.752,40.752,0,0,1-.159,7.141s-.793-5.872-5.872-4.6-13.013.317-13.013.317l-1.27,11.426s-1.428-2.063-3.015-.793S338.041,337.288,343.119,334.749Z" transform="translate(-270.145 -262.193)"/>
  <path id="패스_337" data-name="패스 337" class="cls-3" d="M379.11,414.951l-3-13.5a24.546,24.546,0,0,0-5.248-8.245l-18.487-6.5h0a7.764,7.764,0,0,1-5.5,7.255c-5.625,1.87-9.5-4.433-9.5-4.433l-15.627,11.924a15.245,15.245,0,0,0-4.495,12l-.518,4.381h63.814Z" transform="translate(-257.685 -293.181)"/>
  <ellipse id="타원_52" data-name="타원 52" class="cls-5" cx="16.282" cy="17.284" rx="16.282" ry="17.284" transform="translate(168.115 65.626)"/>
  <circle id="타원_53" data-name="타원 53" class="cls-5" cx="8.566" cy="8.566" r="8.566" transform="translate(190.278 91.934)"/>
  <path id="패스_338" data-name="패스 338" class="cls-6" d="M396.352,188.971l4.589,11.93L389.316,205.8l-1.021-2.314-3.568-8.087Z" transform="translate(-203.473 -99.942)"/>
  <circle id="타원_54" data-name="타원 54" class="cls-6" cx="10.248" cy="10.248" r="10.248" transform="translate(173.453 76.333)"/>
  <path id="패스_339" data-name="패스 339" class="cls-5" d="M560.295,353.374c6.441-4.3,8.367-5.326,15.75-3.665l.443-10.771-19.079,4Z" transform="translate(-384.97 -267.917)"/>
  <path id="패스_340" data-name="패스 340" class="cls-7" d="M599.534,408.873l-.283.033a.184.184,0,0,0-.024-.028c-1.121-1.121-6.473-3.161-10.464-4.575h0c-2.535-.9-4.518-1.545-4.518-1.545l-4.824-4.961c-1.215,1.366-3.783,2.422-6.224,3.166a48.868,48.868,0,0,1-5.691,1.357h0l-1,3.189s-11.321,8.57-12.235,9.484h0V415a.5.5,0,0,0-.085.358v.024a41.54,41.54,0,0,0-.876,8.315h49.3v-2.893C602.6,416.83,599.534,408.873,599.534,408.873Z" transform="translate(-382.796 -299.046)"/>
  <path id="패스_341" data-name="패스 341" class="cls-5" d="M806.038,391.177H781.662l-1.343-13.243-.08-.806-.165-1.6-.674-6.676-.843,7.17-1.781,15.151h-4.429l.165-4.716.165-4.782.071-1.927.909-26.213A18.717,18.717,0,0,1,777.394,342a14.578,14.578,0,0,1,11.773-5.7,15,15,0,0,1,11.976,5.9,18.968,18.968,0,0,1,3.915,11.712l.419,15.867Z" transform="translate(-498.647 -266.524)"/>
  <circle id="타원_55" data-name="타원 55" class="cls-8" cx="10.722" cy="10.722" r="10.722" transform="translate(279.799 74.952)"/>
  <path id="패스_342" data-name="패스 342" class="cls-8" d="M792.37,385.435s3.063,10.339,0,13.4a35.459,35.459,0,0,0-3.829,4.212l8.807,11.871,15.317-18.763s-10.722-3.063-8.041-11.488Z" transform="translate(-507.211 -292.103)"/>
  <path id="패스_343" data-name="패스 343" class="cls-8" d="M665.008,259.949h-9.046l-.151-1.55-.137-1.432,4.165-.523,5.022-.627.057,1.607Z" transform="translate(-346.772 -135.296)"/>
  <path id="패스_344" data-name="패스 344" class="cls-3" d="M812.362,426.16s-1.532-9.573-2.68-13.4-2.3-3.829-2.3-3.829h0c-1.352-1.352-4.6-1.592-7.048-1.555-1.715.019-3.034.17-3.034.17l-13.658,14.407-6.878-9.145v0a10.011,10.011,0,0,0-1.833.316,12.14,12.14,0,0,0-1.517.495,20.815,20.815,0,0,0-5.809,3.727h0c-.989.89-1.574,1.545-1.574,1.545a44.845,44.845,0,0,0-3.4,9.879h43.767l.1-1.969v0Z" transform="translate(-493.506 -304.109)"/>
  <path id="패스_345" data-name="패스 345" class="cls-5" d="M785.939,355.635c6.925-3.733,9.769-3.575,18.38,0l2.3-5.6a3.98,3.98,0,0,0-3.975-3.975H787.233a3.98,3.98,0,0,0-3.975,3.975Z" transform="translate(-504.417 -271.685)"/>
  <path id="패스_346" data-name="패스 346" class="cls-5" d="M371.384,521.9a2.824,2.824,0,0,0-1.638.366,4.272,4.272,0,0,0-1.108,1.463,17.5,17.5,0,0,1-4.766,5.383c-1.416,1.037-3.217,2.331-2.974,4.244a5.735,5.735,0,0,0,.69,1.791c1.306,2.637,4.871,4.675,4.521,7.684,1.3-2.173-.438-3.247.86-5.42.618-1.035,1.692-2.2,2.625-1.553.312.218.518.608.843.8.776.456,1.6-.415,2.289-1.032,2.37-2.127,5.74-1.57,8.688-.907,1.392.313,2.921.723,3.744,2.054,1.082,1.749-1.028,3.639-1.561,5.617a1.078,1.078,0,0,0,1.157,1.341c.885-.087,1.933-.159,1.985-.547,1.113.04,2.477-.086,2.954-1.246a4.874,4.874,0,0,0,.229-1.418,29.158,29.158,0,0,1,1.549-5.577c.547-1.853.786-4.025-.138-5.668a6.557,6.557,0,0,0-1.21-1.471C384.88,522.73,377.986,521.893,371.384,521.9Z" transform="translate(-281.028 -364.677)"/>
  <path id="패스_347" data-name="패스 347" class="cls-6" d="M369.631,572.374s1.14,9.5-3.041,10.262,3.8,13.683,3.8,13.683l19,2.281-4.561-15.2s-3.041-1.14-1.14-8.742S369.631,572.374,369.631,572.374Z" transform="translate(-283.41 -390.419)"/>
  <circle id="타원_56" data-name="타원 56" class="cls-6" cx="11.402" cy="11.402" r="11.402" transform="translate(83.37 165.422)"/>
  <path id="패스_348" data-name="패스 348" class="cls-3" d="M350.9,621.185c2.016-7.929,4.8-18.609,4.8-18.609s1.084.221,2.789.471a66.02,66.02,0,0,0,7.519.683,27.357,27.357,0,0,0,9.239-1.032,8.651,8.651,0,0,0,2.728-1.456,5.259,5.259,0,0,0,.914-.947c4.56-6.082,6.459,17.1,6.459,17.1l.353,3.788Z" transform="translate(-275.751 -405.605)"/>
  <path id="패스_349" data-name="패스 349" class="cls-9" d="M427.72,697.338q-.226,0-.452.014l.217-.405C427.56,697.074,427.635,697.206,427.72,697.338Z" transform="translate(-316.142 -457.26)"/>
  <path id="패스_350" data-name="패스 350" class="cls-5" d="M374.757,528.235a2.588,2.588,0,0,0-1.333.259,3.107,3.107,0,0,0-.9,1.034,13.132,13.132,0,0,1-3.88,3.8c-1.153.733-2.618,1.648-2.421,3a3.751,3.751,0,0,0,.562,1.266,9.959,9.959,0,0,1,1.21,6.208l3.17-4.607c.5-.731,1.377-1.557,2.137-1.1.254.154.421.43.686.565.632.322,1.3-.294,1.864-.73,1.929-1.5,4.672-1.11,7.073-.641a4.634,4.634,0,0,1,3.048,1.452c1.113,1.563-.049,3.821.6,5.626a1.659,1.659,0,0,0,.686-1.1c.906.028,2.017-.061,2.4-.88a3.033,3.033,0,0,0,.186-1,18.53,18.53,0,0,1,1.261-3.942,4.68,4.68,0,0,0-.113-4.006,4.847,4.847,0,0,0-.985-1.04C385.743,528.821,380.131,528.23,374.757,528.235Z" transform="translate(-283.846 -368.028)"/>
  <path id="패스_351" data-name="패스 351" class="cls-5" d="M347.654,597.435a26.479,26.479,0,0,1-4.217-7.5v0s-4.146-2.375-5.286-.094-11.783,7.981-12.923,7.981a.153.153,0,0,1-.028.009c-.452.151-6.115,2.21-7.571,9.875a57.366,57.366,0,0,0-.631,7.967h31c.32-3.359.561-6.5.655-9.215.137-3.783,0-6.723-.57-8.24A2.4,2.4,0,0,0,347.654,597.435Z" transform="translate(-257.822 -400.088)"/>
  <path id="패스_352" data-name="패스 352" class="cls-5" d="M419.387,601.626c-.019-.089-.033-.165-.047-.236a1.753,1.753,0,0,0-.254-.565.036.036,0,0,1,0-.014c-2.2-3.4-16.315-8.084-16.315-8.084l-.528,1.823s.066,1.8.16,4.683c.094,2.7.207,6.346.316,10.351.075,2.615.141,5.385.2,8.136h21.12A123.333,123.333,0,0,0,419.387,601.626Z" transform="translate(-302.904 -402.14)"/>
  <path id="패스_353" data-name="패스 353" class="cls-7" d="M858.078,636.2l1.616-7.9,1.5-.636.009,0c.137.052,1.771.744,1.771,3.369,0,.528-.08,2.426-.212,5.159Z" transform="translate(-543.987 -420.619)"/>
  <circle id="타원_57" data-name="타원 57" class="cls-9" cx="13.123" cy="13.123" r="13.123" transform="translate(283.994 161.753)"/>
  <path id="패스_354" data-name="패스 354" class="cls-9" d="M627.811,387.44l-1.094,22.419-16.951-9.842,2.187-12.577Z" transform="translate(-322.491 -204.908)"/>
  <path id="패스_355" data-name="패스 355" class="cls-3" d="M631.912,420.01l-1.112,9.536h-8.9l-9.658-18.558-2.723-5.225-1.3-.853,1.512-.344,1.192.862,13.337,9.663,2.139-6.421.057-.165.537-1.616Z" transform="translate(-321.671 -213.966)"/>
  <path id="패스_356" data-name="패스 356" class="cls-5" d="M798.406,524.5s1.64-8.2,10.936-6.562l-1.094.547s8.749-1.094,7.655,3.828c0,0,7.109,4.375,5.468,9.3a55.639,55.639,0,0,0-2.187,8.749l-1.64-1.64s-1.64-10.936-11.483-9.843c-7.382.82-10.389,4.306-11.158,6.818a22.182,22.182,0,0,1-1.351,3.437l-.614.135S789.657,527.229,798.406,524.5Z" transform="translate(-509.217 -362.469)"/>
  <path id="패스_357" data-name="패스 357" class="cls-5" d="M806.044,606.95l-.009,0-6.968-6.473V596.1l-5.38-4.24-.08,2.577-.556,17.521L784.1,599.653l-6.03-8.292-1.083-1.484.264-1.39-3.34,3.783-12.089,9.069-1.036.777a32.96,32.96,0,0,0-3.279,3.825c-.325.485-1.8,4.349-3.731,9.536H807.6c.132-2.732.212-4.631.212-5.159C807.816,607.695,806.181,607,806.044,606.95Z" transform="translate(-488.825 -399.898)"/>
  <path id="패스_358" data-name="패스 358" class="cls-5" d="M579.8,528.783h0c-8.893,0-16.1,8-16.1,17.87v12.539h3.857l2.233-4.646-.558,4.646H594.02l2.03-4.223-.507,4.223h2.791v-9.845C598.333,537.989,590.038,528.783,579.8,528.783Z" transform="translate(-388.299 -368.322)"/>
  <path id="패스_359" data-name="패스 359" class="cls-10" d="M558.425,633.195H547.952l-.1-8.541c0-.09,0-.174,0-.264l2.1-2.36.038-.042,8,5.069Z" transform="translate(-379.914 -417.615)"/>
  <circle id="타원_58" data-name="타원 58" class="cls-8" cx="11.463" cy="11.463" r="11.463" transform="translate(178.618 166.192)"/>
  <path id="패스_360" data-name="패스 360" class="cls-8" d="M580.907,576.788s3.362,17.424,1.834,19.258,16.2-3.362,16.2-3.362-5.808-11.921-2.751-18.646Z" transform="translate(-397.398 -392.255)"/>
  <path id="패스_361" data-name="패스 361" class="cls-3" d="M594.411,600.21h0a2.631,2.631,0,0,0-1.314-1.281c-2.247-.947-4.184-1.672-5.776-2.224a12.214,12.214,0,0,0-8.64.269c-.268.108-.532.226-.791.358,0,0-11.208,2.134-12.541,1.866-.1-.019-.2-.033-.3-.042a5.265,5.265,0,0,0-.608-.052,13.429,13.429,0,0,0-7.444,1.847c-3.68,2.134-9.135,5.917-9.248,9.6l-.1.118.1,8.805h49.195c.1-8.438.156-14.779.156-15.208C597.092,602.933,594.411,600.21,594.411,600.21Z" transform="translate(-379.803 -403.894)"/>
  <path id="패스_362" data-name="패스 362" class="cls-5" d="M587.372,535.414a8.445,8.445,0,0,0-6.663-3.4h-.316c-6.1,0-11.036,5.515-11.036,12.319H571.4l.33-2.511.484,2.511h12.113l1.015-2.124-.254,2.124h2.383q1.668,8.284-4.793,16.567h4.059l2.03-4.248-.507,4.248H596l1.522-9.77C597.518,543.813,593.267,537.608,587.372,535.414Z" transform="translate(-391.289 -370.03)"/>
  <circle id="타원_59" data-name="타원 59" class="cls-5" cx="6.031" cy="6.031" r="6.031" transform="translate(192.277 154.351)"/>
</svg>
