<svg xmlns="http://www.w3.org/2000/svg" xmlns:xlink="http://www.w3.org/1999/xlink" width="353.881" height="285.432" viewBox="0 0 353.881 285.432">
  <defs>
    <style>
      .cls-1, .cls-7, .cls-8 {
        fill: #6c63ff;
      }

      .cls-1, .cls-19, .cls-3, .cls-4 {
        opacity: 0.1;
      }

      .cls-2 {
        fill: #a1a5cf;
      }

      .cls-5, .cls-9 {
        opacity: 0.2;
      }

      .cls-6 {
        fill: #96b7fe;
        opacity: 0.9;
      }

      .cls-8 {
        opacity: 0.3;
      }

      .cls-14, .cls-19, .cls-9 {
        fill: #fff;
      }

      .cls-10 {
        fill: url(#linear-gradient);
      }

      .cls-11 {
        fill: #1d2366;
      }

      .cls-12 {
        fill: #ffb0b1;
      }

      .cls-13 {
        fill: #c7daf5;
      }

      .cls-15 {
        opacity: 0.03;
      }

      .cls-16 {
        fill: #dce7ff;
      }

      .cls-17 {
        fill: #591d4b;
      }

      .cls-18 {
        fill: #be8b87;
      }

      .cls-20 {
        fill: #efc8c4;
      }

      .cls-21 {
        fill: #727a9c;
      }

      .cls-22 {
        fill: #ffd037;
      }

      .cls-23 {
        fill: #65617d;
      }

      .cls-24 {
        fill: #9d9cb5;
      }
    </style>
    <linearGradient id="linear-gradient" x1="-5.267" y1="1" x2="-5.267" gradientUnits="objectBoundingBox">
      <stop offset="0" stop-color="gray" stop-opacity="0.251"/>
      <stop offset="0.54" stop-color="gray" stop-opacity="0.122"/>
      <stop offset="1" stop-color="gray" stop-opacity="0.102"/>
    </linearGradient>
  </defs>
  <g id="그룹_21" data-name="그룹 21" transform="translate(0 0.005)">
    <ellipse id="타원_36" data-name="타원 36" class="cls-1" cx="42.654" cy="5.555" rx="42.654" ry="5.555" transform="translate(107.916 264.144)"/>
    <path id="패스_213" data-name="패스 213" class="cls-1" d="M108.085,354.82H140.76v44.538h-30.29c-.078.462-.156.921-.242,1.379h30.528V436.65l-.153-.057c-.867-.355-1.724-.711-2.57-1.088l-.551-.249q-1.3-.608-2.57-1.29c-.3-.156-.6-.32-.892-.49a53.57,53.57,0,0,1-12.851-10c-.11-.107-.213-.22-.316-.327-.519-.565-1.031-1.141-1.528-1.727l-.551-.654c-.583-.711-1.151-1.457-1.7-2.2-.082-.11-.16-.22-.242-.327a47.459,47.459,0,0,1-5.537-10.011c-.046-.107-.085-.224-.128-.331-.448-1.127-.849-2.267-1.2-3.433-.146-.487-.291-.981-.412-1.471-.046-.149-.082-.295-.121-.437-1.809-7.133-2.019-14.546-2.019-21.921v-2.58c0-2.978.036-5.974.085-8.97q.025-1.162.05-2.328c.046-1.976.107-3.956.192-5.932.021-.547.046-1.1.075-1.642,0-.316.028-.633.05-.949C107.939,357.091,108.006,355.95,108.085,354.82Z" transform="translate(-105.54 -245.934)"/>
    <path id="패스_214" data-name="패스 214" class="cls-1" d="M168.716,174.193H150.79a135.671,135.671,0,0,1,9.535-13.121c2.662-3.273,5.462-6.461,8.391-9.532Z" transform="translate(-133.496 -114.899)"/>
    <path id="패스_215" data-name="패스 215" class="cls-1" d="M142.145,219.1v46.834H109.57a3.961,3.961,0,0,1,.036-.409c.028-.355.057-.739.089-1.105.032-.43.075-.867.114-1.3s.089-.938.135-1.422.1-.938.149-1.4.1-.935.16-1.4.11-.935.171-1.4c.05-.384.1-.768.153-1.155.075-.544.153-1.091.235-1.631a1.8,1.8,0,0,1,.036-.242,111.354,111.354,0,0,1,2.4-11.76,86.894,86.894,0,0,1,4.041-11.913,88.929,88.929,0,0,1,6.077-11.728Z" transform="translate(-106.926 -158.429)"/>
    <path id="패스_216" data-name="패스 216" class="cls-1" d="M223.161,157.316v44.542h69.792V157.316Zm0,45.917v38.251c.4.082.793.164,1.187.231.533.1,1.066.2,1.6.277.1,0,.21.032.316.043.213.036.43.064.643.092.537.075,1.066.135,1.617.185l.768.068.622.046h0c.338.025.672.046,1.006.057a5.231,5.231,0,0,1,.622.025h2.282c.277,0,.554,0,.828-.025h.018a4.459,4.459,0,0,0,.576-.025,1.26,1.26,0,0,0,.164,0,3.532,3.532,0,0,0,.476-.021H236l1.066-.085c.355-.032.711-.071,1.066-.11l.732-.089a64.1,64.1,0,0,0,8.839-1.88c6.511-1.816,12.865-4.357,19.387-6.216,8.412-2.4,17.713-3.579,25.837-.657V203.226Zm69.792-95.505V48.43a89.627,89.627,0,0,0-22.674,2.658c-17.684,4.439-33.542,14.07-47.118,26.37v30.269h3.49V109.1h-3.5v46.855h69.8V109.1H241.044v-1.375ZM382.616,87.7a28.937,28.937,0,0,1-12.652-3.678c-7.517-4.087-13.533-10.4-20.233-15.73a92.894,92.894,0,0,0-48.97-19.458v58.9h99.624l.245-.263Zm9.077-1.624,9.624,10.562V83.309A38.526,38.526,0,0,0,391.692,86.074Zm9.624,164.9V203.226H380.8c-.053-.2-.11-.409-.174-.615.06.206.114.412.171.615H300.761v34.53q1.141.848,2.253,1.777h0c.8.654,1.6,1.322,2.392,1.99l.8.661c.384.32.771.633,1.159.949q1.162.938,2.342,1.855c.391.309.789.611,1.183.913a161.747,161.747,0,0,0,19.845,12.979q2.328,1.294,4.7,2.513,1.578.81,3.174,1.592,2.4,1.169,4.826,2.264h0a177.359,177.359,0,0,0,47.029,13.676q5.406.8,10.854,1.255v-29.2h0ZM300.761,109.1v46.855H401.316V109.1Zm0,48.213v44.542H401.316V157.316Zm108.36-74.071v14.9l12.286-13.48Q415.3,83.668,409.121,83.245Zm0,74.071v44.542h97.8V157.316Zm97.456,97.2.355-51.283H409.121V280.7a175.534,175.534,0,0,0,18.9-.227h.11q4.5-.288,8.974-.825h.068a165.18,165.18,0,0,0,46.109-12.329M525.79,164.634q-.554-1.3-1.141-2.58c-.711-1.6-1.5-3.174-2.289-4.737h-7.63v44.542h19.291c-.018-12.617-3.209-25.5-8.231-37.224Zm-11.06,38.592v44.122a63.118,63.118,0,0,0,13.331-17.979,61.947,61.947,0,0,0,5.946-26.136Zm0-58.9v11.629h6.916a125.81,125.81,0,0,0-6.916-11.621ZM448.417,91.987c-.508-.2-1.02-.391-1.532-.579a138.99,138.99,0,0,0-16.519-4.976l-18.8,20.613h0l-.355.394.242.263h66.871A143.04,143.04,0,0,0,448.417,91.987Zm31.893,17.119H410.493l-1.372,1.255v45.6h97.794V133.853A139.237,139.237,0,0,0,480.3,109.1Z" transform="translate(-180.14 -48.43)"/>
    <path id="패스_217" data-name="패스 217" class="cls-1" d="M142.145,285.6v23.211H109.57a3.962,3.962,0,0,1,.036-.409c.028-.355.057-.739.089-1.105.032-.43.075-.867.114-1.3s.089-.938.135-1.422.1-.938.149-1.4.1-.935.16-1.4.11-.935.171-1.4c.05-.384.1-.768.153-1.155.075-.544.153-1.091.235-1.631a1.8,1.8,0,0,1,.036-.242,111.35,111.35,0,0,1,2.4-11.76Z" transform="translate(-106.926 -201.308)"/>
    <path id="패스_218" data-name="패스 218" class="cls-1" d="M108.085,354.82H140.76v44.538h-30.29c-.078.462-.156.921-.242,1.379h30.528V436.65l-.153-.057c-.867-.355-1.724-.711-2.57-1.088l-.551-.249q-1.3-.608-2.57-1.29c-.3-.156-.6-.32-.892-.49a53.57,53.57,0,0,1-12.851-10c-.11-.107-.213-.22-.316-.327-.519-.565-1.031-1.141-1.528-1.727l-.551-.654c-.583-.711-1.151-1.457-1.7-2.2-.082-.11-.16-.22-.242-.327a47.459,47.459,0,0,1-5.537-10.011c-.046-.107-.085-.224-.128-.331-.448-1.127-.849-2.267-1.2-3.433-.146-.487-.291-.981-.412-1.471-.046-.149-.082-.295-.121-.437-1.809-7.133-2.019-14.546-2.019-21.921v-2.58c0-2.978.036-5.974.085-8.97q.025-1.162.05-2.328c.046-1.976.107-3.956.192-5.932.021-.547.046-1.1.075-1.642,0-.316.028-.633.05-.949C107.939,357.091,108.006,355.95,108.085,354.82Z" transform="translate(-105.54 -245.934)"/>
    <path id="패스_219" data-name="패스 219" class="cls-1" d="M145.628,164.957v40.131H121.06V164.957h3.5V151.37h14.383v13.587Z" transform="translate(-78.036 -97.577)"/>
    <rect id="사각형_25" data-name="사각형 25" class="cls-1" width="24.568" height="44.542" transform="translate(43.024 108.886)"/>
    <path id="패스_220" data-name="패스 220" class="cls-1" d="M223.18,484h24.568v37.043a64.541,64.541,0,0,1-8.835,1.877l-.736.092-1.066.11-1.066.085h-.11c-.156,0-.316.021-.476.025H235.3c-.2,0-.387.021-.579.025H234.7c-.274,0-.547.021-.828.025h-2.282l-.622-.025c-.33,0-.668-.036-1.006-.057h0l-.618-.046-.771-.071c-.54-.05-1.066-.11-1.613-.185l-.643-.089a1.893,1.893,0,0,1-.316-.046c-.537-.082-1.066-.171-1.6-.274-.4-.071-.793-.153-1.191-.234Z" transform="translate(-180.159 -329.204)"/>
    <rect id="사각형_26" data-name="사각형 26" class="cls-1" width="20.261" height="44.869" transform="translate(200.919 62.642)"/>
    <path id="패스_221" data-name="패스 221" class="cls-1" d="M439.965,306.39v44.542H339.41V331.723h53.562v11.33H419.7V306.39Z" transform="translate(-218.786 -197.504)"/>
    <path id="패스_222" data-name="패스 222" class="cls-1" d="M542.377,530.65h-.32V559.87q-5.448-.462-10.854-1.255A177.4,177.4,0,0,1,484.174,544.9q-6.479-2.921-12.7-6.369a162.471,162.471,0,0,1-19.859-12.983q-2.374-1.812-4.681-3.714c-1.066-.881-2.132-1.777-3.2-2.655-.743-.6-1.493-1.2-2.257-1.777V482.885h80.049l-.167-.615c.06.206.117.409.171.615h20.524v47.744Z" transform="translate(-320.877 -328.089)"/>
    <path id="패스_223" data-name="패스 223" class="cls-1" d="M849.2,185.68H836v-4.1h5.914V169.36c.512.188,1.024.38,1.532.579v11.639h5.75Z" transform="translate(-575.187 -126.386)"/>
    <path id="패스_224" data-name="패스 224" class="cls-1" d="M823.273,265.994H758.46l.021.018-.028-.018H746.43V221.125h3.4v33.162H765.4V234.666h12.865V219.16h13.2v15.506h12.858v19.621H823.27Z" transform="translate(-517.449 -158.487)"/>
    <path id="패스_225" data-name="패스 225" class="cls-1" d="M746.43,354.82v44.542h76.843V354.82Zm97.694,96.962.107-35.255H823.263v-15.8H746.43v77.476a175.542,175.542,0,0,0,18.9-.227h.11q4.5-.288,8.974-.825h.068a165.176,165.176,0,0,0,46.109-12.329" transform="translate(-517.449 -245.934)"/>
    <path id="패스_226" data-name="패스 226" class="cls-1" d="M1044.95,484h17.926a61.948,61.948,0,0,1-5.949,26.132,62.829,62.829,0,0,1-13.327,17.983V499.794h1.35Z" transform="translate(-709.007 -329.204)"/>
    <path id="패스_227" data-name="패스 227" class="cls-1" d="M1065.337,412.624H1047.4V375.4h9.706C1062.128,387.132,1065.322,400.011,1065.337,412.624Z" transform="translate(-711.456 -259.2)"/>
    <rect id="사각형_27" data-name="사각형 27" class="cls-1" width="10.854" height="14.067" transform="translate(210.326 75.113)"/>
    <rect id="사각형_28" data-name="사각형 28" class="cls-1" width="10.854" height="3.238" transform="translate(210.326 104.273)"/>
    <rect id="사각형_29" data-name="사각형 29" class="cls-1" width="10.854" height="9.45" transform="translate(210.326 108.886)"/>
    <rect id="사각형_30" data-name="사각형 30" class="cls-1" width="10.854" height="14.067" transform="translate(210.326 133.43)"/>
    <rect id="사각형_31" data-name="사각형 31" class="cls-1" width="10.854" height="14.067" transform="translate(210.326 162.59)"/>
    <path id="패스_228" data-name="패스 228" class="cls-1" d="M704.794,598.783l.32.021h-.32v3.266H693.94V588h10.854Z" transform="translate(-483.614 -396.243)"/>
    <path id="패스_229" data-name="패스 229" class="cls-1" d="M704.794,670v10.864q-5.448-.462-10.854-1.255V670Z" transform="translate(-483.614 -449.101)"/>
    <rect id="사각형_32" data-name="사각형 32" class="cls-1" width="46.514" height="1.034" transform="translate(120.625 152.393)"/>
    <rect id="사각형_33" data-name="사각형 33" class="cls-1" width="46.514" height="3.959" transform="translate(120.625 154.803)"/>
    <rect id="사각형_34" data-name="사각형 34" class="cls-1" width="46.514" height="6.369" transform="translate(120.625 171.745)"/>
    <path id="패스_230" data-name="패스 230" class="cls-1" d="M492.105,586.14v6.365h-36.4q-2.374-1.812-4.681-3.714c-1.066-.881-2.132-1.777-3.2-2.651Z" transform="translate(-324.97 -395.044)"/>
    <path id="패스_231" data-name="패스 231" class="cls-1" d="M542.416,640.57v6.372h-3.838q-6.482-2.921-12.7-6.372Z" transform="translate(-375.281 -430.13)"/>
    <rect id="사각형_35" data-name="사각형 35" class="cls-1" width="9.155" height="9.155" transform="translate(247.884 113.204)"/>
    <rect id="사각형_36" data-name="사각형 36" class="cls-1" width="9.155" height="9.155" transform="translate(49.62 70.539)"/>
    <rect id="사각형_37" data-name="사각형 37" class="cls-1" width="9.155" height="9.155" transform="translate(49.62 91.806)"/>
    <rect id="사각형_38" data-name="사각형 38" class="cls-1" width="9.155" height="9.155" transform="translate(49.62 113.076)"/>
    <rect id="사각형_39" data-name="사각형 39" class="cls-1" width="9.155" height="9.155" transform="translate(49.62 134.346)"/>
    <rect id="사각형_40" data-name="사각형 40" class="cls-1" width="9.155" height="9.155" transform="translate(49.62 155.617)"/>
    <rect id="사각형_41" data-name="사각형 41" class="cls-1" width="9.155" height="9.155" transform="translate(49.62 176.887)"/>
    <rect id="사각형_42" data-name="사각형 42" class="cls-1" width="9.155" height="9.155" transform="translate(282.841 113.204)"/>
    <rect id="사각형_43" data-name="사각형 43" class="cls-1" width="9.155" height="9.155" transform="translate(247.884 135.789)"/>
    <rect id="사각형_44" data-name="사각형 44" class="cls-1" width="9.155" height="9.155" transform="translate(282.841 135.789)"/>
    <rect id="사각형_45" data-name="사각형 45" class="cls-1" width="9.155" height="9.155" transform="translate(247.884 158.375)"/>
    <rect id="사각형_46" data-name="사각형 46" class="cls-1" width="9.155" height="9.155" transform="translate(282.841 158.375)"/>
    <rect id="사각형_47" data-name="사각형 47" class="cls-1" width="9.155" height="9.155" transform="translate(247.884 180.96)"/>
    <rect id="사각형_48" data-name="사각형 48" class="cls-1" width="9.155" height="9.155" transform="translate(282.841 180.96)"/>
    <rect id="사각형_49" data-name="사각형 49" class="cls-1" width="9.155" height="9.155" transform="translate(247.884 203.545)"/>
    <rect id="사각형_50" data-name="사각형 50" class="cls-1" width="9.155" height="9.155" transform="translate(282.841 203.545)"/>
    <path id="패스_232" data-name="패스 232" class="cls-1" d="M697.49,642.193v-5.9h9.155v5.064Z" transform="translate(-449.606 -410.159)"/>
    <path id="패스_233" data-name="패스 233" class="cls-1" d="M113.05,318.72v5.239h31.335V318.72Zm3.12,4.911H113.6V319.05h2.57Zm3.12,0h-2.57V319.05h2.57Zm3.113,0h-2.569V319.05H122.4Zm3.12,0h-2.57V319.05h2.57Zm3.117,0h-2.57V319.05h2.57Zm3.12,0h-2.569V319.05h2.569Zm3.12,0h-2.569V319.05h2.569Zm3.117,0h-2.577V319.05h2.57Zm3.117,0h-2.569V319.05h2.562Zm3.117,0h-2.569V319.05h2.569Z" transform="translate(-109.169 -222.664)"/>
    <path id="패스_234" data-name="패스 234" class="cls-1" d="M113.05,361.63v5.238h31.335V361.63Zm3.12,4.908H113.6v-4.577h2.57Zm3.12,0h-2.57v-4.577h2.57Zm3.113,0h-2.569v-4.577H122.4Zm3.12,0h-2.57v-4.577h2.57Zm3.117,0h-2.57v-4.577h2.57Zm3.12,0h-2.569v-4.577h2.569Zm3.12,0h-2.569v-4.577h2.569Zm3.117,0h-2.577v-4.577h2.57Zm3.117,0h-2.569v-4.577h2.562Zm3.117,0h-2.569v-4.577h2.569Z" transform="translate(-109.169 -250.324)"/>
    <path id="패스_235" data-name="패스 235" class="cls-1" d="M113.05,404.54v5.235h31.335V404.54Zm3.12,4.9H113.6v-4.578h2.57Zm3.12,0h-2.57v-4.578h2.57Zm3.113,0h-2.569v-4.578H122.4Zm3.12,0h-2.57v-4.578h2.57Zm3.117,0h-2.57v-4.578h2.57Zm3.12,0h-2.569v-4.578h2.569Zm3.12,0h-2.569v-4.578h2.569Zm3.117,0h-2.577v-4.578h2.57Zm3.117,0h-2.569v-4.578h2.562Zm3.117,0h-2.569v-4.578h2.569Z" transform="translate(-109.169 -277.984)"/>
    <path id="패스_236" data-name="패스 236" class="cls-1" d="M113.05,447.44v5.235h31.335V447.44Zm3.12,4.908H113.6v-4.581h2.57Zm3.12,0h-2.57v-4.581h2.57Zm3.113,0h-2.569v-4.581H122.4Zm3.12,0h-2.57v-4.581h2.57Zm3.117,0h-2.57v-4.581h2.57Zm3.12,0h-2.569v-4.581h2.569Zm3.12,0h-2.569v-4.581h2.569Zm3.117,0h-2.577v-4.581h2.57Zm3.117,0h-2.569v-4.581h2.562Zm3.117,0h-2.569v-4.581h2.569Z" transform="translate(-109.169 -305.637)"/>
    <path id="패스_237" data-name="패스 237" class="cls-1" d="M113.43,490.34c.124.494.267.984.416,1.471v-1.141h2.57v4.577h-1.361c.039.107.082.22.124.327h29.462V490.34Zm6.106,4.908h-2.57v-4.577h2.57Zm3.113,0h-2.57v-4.577h2.57Zm3.12,0H123.2v-4.577h2.57Zm3.117,0h-2.569v-4.577h2.569Zm3.12,0h-2.569v-4.577h2.569Zm3.12,0h-2.569v-4.577h2.569Zm3.117,0h-2.577v-4.577h2.569Zm3.117,0h-2.57v-4.577h2.562Zm3.117,0h-2.569v-4.577h2.569Z" transform="translate(-109.414 -333.291)"/>
    <path id="패스_238" data-name="패스 238" class="cls-1" d="M133.9,533.25c.082.1.16.217.242.327h1.7v2.2l.551.657v-2.843h2.57v4.581h-1.041c.1.107.2.22.316.327h19.586V533.25Zm8.174,4.908H139.5v-4.581h2.569Zm3.12,0h-2.57v-4.581h2.57Zm3.12,0h-2.57v-4.581h2.57Zm3.117,0h-2.569v-4.581h2.569Zm3.117,0h-2.569v-4.581h2.569Zm3.117,0H155.1v-4.581h2.57Z" transform="translate(-122.609 -360.951)"/>
    <path id="패스_239" data-name="패스 239" class="cls-1" d="M182.27,576.15c.295.167.594.33.9.487v-.16h2.562v1.45l.547.252v-1.7h2.569v2.786a1.118,1.118,0,0,0,.153.057v-3.17Z" transform="translate(-153.789 -388.605)"/>
    <path id="패스_240" data-name="패스 240" class="cls-1" d="M427.5,263.521Zm-19.835,95.011ZM386.971,310.2c.06.206.114.412.171.615h0c-.05-.22-.107-.427-.171-.633ZM427.5,263.521ZM233,215.29v1.375h14.393V215.29ZM407.666,358.532ZM386.971,310.2c.06.206.114.412.171.615h0c-.05-.22-.107-.427-.171-.633ZM427.5,263.521Zm-19.835,95.011ZM386.971,310.2c.06.206.114.412.171.615h0c-.05-.22-.107-.427-.171-.633Z" transform="translate(-186.489 -155.992)"/>
    <circle id="타원_37" data-name="타원 37" class="cls-1" cx="7.687" cy="7.687" r="7.687" transform="translate(284.152 30.315)"/>
    <circle id="타원_38" data-name="타원 38" class="cls-1" cx="6.045" cy="6.045" r="6.045" transform="translate(319.916 50.793)"/>
    <circle id="타원_39" data-name="타원 39" class="cls-1" cx="2.132" cy="2.132" r="2.132" transform="translate(340.738 25.574)"/>
    <ellipse id="타원_40" data-name="타원 40" class="cls-1" cx="32.579" cy="7.463" rx="32.579" ry="7.463" transform="translate(235.399 269.631)"/>
    <path id="패스_241" data-name="패스 241" class="cls-2" d="M819.994,738.974s-22.774,6.116-23,6.116c-.128,0-4.446.355-9.326.448a56.791,56.791,0,0,1-11.373-.6c-5.964-1.319,1.859-5.654,5.811-7.36s23.456-.618,25.638-.618,5.733-2.555,4.5-8.366.309-20.218.309-20.218l5.036-2.864.114,1.589Z" transform="translate(-535.302 -471.991)"/>
    <path id="패스_242" data-name="패스 242" class="cls-3" d="M844.55,741.9s-22.774,6.116-23,6.116c-.128,0-4.446.355-9.326.448,2.971-.594,6.955-1.486,7.854-2.132,1.471-1.084,12.162-4.1,12.162-4.1s10.456.54,8.441-5.654-.711-25.944-.711-25.944l2.285-.579Z" transform="translate(-559.858 -474.917)"/>
    <path id="패스_243" data-name="패스 243" class="cls-2" d="M831.734,709.521s-1.318,19.753.711,25.944S824,741.12,824,741.12s-10.69,3.021-12.161,4.1c-.967.711-5.5,1.688-8.5,2.278a6.088,6.088,0,0,0-4.684,4.176c-.43,1.422-.256,2.786,1.8,2.925,4.57.309,4.57.931,4.57.931s-.931,3.33,3.874,1.777,7.126-2.246,7.126-2.246-3.33,3.874-1.315,4.183,9.45-5.331,9.45-5.331a19.819,19.819,0,0,1,14.251-6.507c9.45-.387-.853-11.465-.853-11.465s-1.162-15.492-.849-17.35-.387-10.225-.387-10.225Z" transform="translate(-550.99 -473.834)"/>
    <path id="패스_244" data-name="패스 244" class="cls-2" d="M777.825,544.47s-11.774,0-15.8-3.554-11.447-11.629-11.447-11.629S729.193,503.88,723,510.853c0,0,.156,3.408,5.733,4.8s5.889,5.58,5.889,5.58-19.213-2.488-18.438,2.633c0,0,1.24,2.943,8.53,1.084s9.141.309,9.141.309-.156,2.79-3.874,2.634-6.816,2.168-7.126,4.183,8.21.309,8.21.309,6.042-.775,9.759,2.943,8.988,1.862,8.988,1.862,12.549,12.858,27.419,11.618Z" transform="translate(-497.934 -345.733)"/>
    <g id="그룹_20" data-name="그룹 20" class="cls-4" transform="translate(218.209 165.042)">
      <path id="패스_245" data-name="패스 245" d="M733.631,549.725a2.527,2.527,0,0,0,.174-.711s-1.859-2.168-9.141-.309c-6.525,1.663-8.2-.522-8.473-1a1.737,1.737,0,0,0-.05.761s1.24,2.946,8.529,1.088C730.734,548.016,733.034,549.267,733.631,549.725Z" transform="translate(-716.121 -535.314)"/>
      <path id="패스_246" data-name="패스 246" d="M741.086,517.788c3.97.992,5.271,3.4,5.686,4.7l.2.025s-.309-4.183-5.889-5.58c-4-1-5.21-3.035-5.576-4.1-.05.05-.107.1-.156.156C735.354,512.986,735.51,516.395,741.086,517.788Z" transform="translate(-728.516 -512.83)"/>
      <path id="패스_247" data-name="패스 247" d="M789.271,587.765c-14.87,1.24-27.419-11.611-27.419-11.611s-5.267,1.859-8.988-1.859-9.77-2.953-9.77-2.953-7.133,1.422-8.106.124a2.662,2.662,0,0,0-.1.419c-.309,2.015,8.209.309,8.209.309s6.042-.775,9.759,2.943S761.842,577,761.842,577s12.549,12.862,27.419,11.621l.622-4.339h-.121Z" transform="translate(-728.211 -550.506)"/>
    </g>
    <path id="패스_248" data-name="패스 248" class="cls-2" d="M893.262,579.171a39.49,39.49,0,0,1-.849,13.438c-.064.27-.128.551-.192.839a57.005,57.005,0,0,0-1.212,7.979c-.242,3.376-3.941,4-7.463,3.817a33.464,33.464,0,0,1-6.319-1.031c-5.58-18.9-1.4-17.972.775-30.987a42.372,42.372,0,0,0-2.488-21.782c-.526-1.329-.906-2.076-.906-2.076s8.984-8.366,7.435-4.8a6.716,6.716,0,0,0,.039,3.71c1.155,5.686,5.743,15.442,8.636,21.231A29.967,29.967,0,0,1,893.262,579.171Z" transform="translate(-599.969 -367.676)"/>
    <path id="패스_249" data-name="패스 249" class="cls-3" d="M877.829,604.015c-5.576-18.9-1.393-17.972.775-30.983a42.393,42.393,0,0,0-2.488-21.786c-.526-1.329-.906-2.072-.906-2.072s5.107-4.769,6.959-5.573c-.49-1.031-7.581,5.573-7.581,5.573s.38.743.906,2.072a42.1,42.1,0,0,1,2.488,21.786c-2.172,13.011-6.354,12.083-.775,30.983Z" transform="translate(-599.956 -367.553)"/>
    <path id="패스_250" data-name="패스 250" class="cls-3" d="M882.34,548.287a37.844,37.844,0,0,0-3.909,2.641c-.355.437-1.471.547-2.655.526-.526-1.329-.906-2.076-.906-2.076s8.984-8.366,7.435-4.8A6.918,6.918,0,0,0,882.34,548.287Z" transform="translate(-600.242 -367.682)"/>
    <path id="패스_251" data-name="패스 251" class="cls-2" d="M830.808,436.839s5.423.931,6.351-.153,21.071-13.15,22.774-13.324,4.183-5.733,4.183-5.733,17.414-29.771-3.909-44.542a32.039,32.039,0,0,0-31.044-2.971c-9.329,4.094-19.106,13.413-18.256,34.544a22.55,22.55,0,0,0,2.072,8.462c.832,1.82,1.646,3.874,1.567,4.8C814.389,419.8,830.808,436.839,830.808,436.839Z" transform="translate(-558.978 -254.059)"/>
    <path id="패스_252" data-name="패스 252" class="cls-3" d="M897.906,610.657l2.172,22.308s-4.8,13.633-1.55,20.449,4.027,11.465,6.042,10.534-1.859-10.537-1.859-10.537,8.21,10.381,10.843,9.294,1.066-5.267-3.554-9.141.775-2.943.775-2.943,10.69,4.183,9.6.156-11.465-5.9-11.465-5.9-3.1-9.759-4.336-11.927-2.015-19.213-2.946-20.915S897.906,610.657,897.906,610.657Z" transform="translate(-614.763 -410.832)"/>
    <path id="패스_253" data-name="패스 253" class="cls-3" d="M907.812,636.607a57.028,57.028,0,0,0-1.212,7.979c-.242,3.376-3.945,4-7.463,3.817-.355-6.934,2.651-15.435,2.651-15.435l-2.168-22.308s2.786-.313,3.717,1.393,1.7,18.744,2.943,20.915A29.717,29.717,0,0,1,907.812,636.607Z" transform="translate(-615.866 -410.835)"/>
    <path id="패스_254" data-name="패스 254" class="cls-2" d="M898.776,610.657l2.171,22.308s-4.8,13.633-1.549,20.449,4.027,11.465,6.042,10.534-1.859-10.537-1.859-10.537,8.21,10.381,10.843,9.294,1.066-5.267-3.554-9.141.775-2.943.775-2.943,10.687,4.183,9.6.156-11.465-5.9-11.465-5.9-3.1-9.759-4.336-11.927-2.015-19.213-2.943-20.915S898.776,610.657,898.776,610.657Z" transform="translate(-615.324 -410.832)"/>
    <path id="패스_255" data-name="패스 255" class="cls-3" d="M772.673,552.21a4.048,4.048,0,0,1-1.663,1.9" transform="translate(-533.294 -373.173)"/>
    <path id="패스_256" data-name="패스 256" class="cls-3" d="M919.36,708.17a11.927,11.927,0,0,0,3.2,4.24" transform="translate(-628.921 -473.705)"/>
    <path id="패스_257" data-name="패스 257" class="cls-3" d="M909.12,719.46a6.579,6.579,0,0,0,.441,1.912,2.228,2.228,0,0,0,1.4,1.294" transform="translate(-622.32 -480.983)"/>
    <path id="패스_258" data-name="패스 258" class="cls-5" d="M897.07,436.31s2.072-3.49,3.163-3.49" transform="translate(-614.553 -296.213)"/>
    <path id="패스_259" data-name="패스 259" class="cls-5" d="M898.61,434.913s6.429-7.3,7.957-7.3" transform="translate(-615.545 -292.855)"/>
    <path id="패스_260" data-name="패스 260" class="cls-5" d="M864.56,423.93a2.294,2.294,0,0,1,2.072,1.635" transform="translate(-593.596 -290.483)"/>
    <path id="패스_261" data-name="패스 261" class="cls-5" d="M855.66,422.09s3.927,3.38,4.034,4.794" transform="translate(-587.859 -289.297)"/>
    <path id="패스_262" data-name="패스 262" class="cls-5" d="M883.88,470.86a5.865,5.865,0,0,0,2.072,1.852" transform="translate(-606.05 -320.734)"/>
    <path id="패스_263" data-name="패스 263" class="cls-5" d="M886,461.35s1.852,4.034,2.943,4.034" transform="translate(-607.417 -314.604)"/>
    <path id="패스_264" data-name="패스 264" class="cls-5" d="M899.53,502.45s4.14,6,9.155,5.331" transform="translate(-616.138 -341.097)"/>
    <path id="패스_265" data-name="패스 265" class="cls-5" d="M863.1,500s-3.27,3.38-6.212,3.38" transform="translate(-588.652 -339.518)"/>
    <path id="패스_266" data-name="패스 266" class="cls-5" d="M948.68,412.18s6.834,2.779,6.614,4.912" transform="translate(-647.821 -282.909)"/>
    <path id="패스_267" data-name="패스 267" class="cls-5" d="M957.16,408.87s4.482,3.383,5.143,5" transform="translate(-653.287 -280.775)"/>
    <path id="패스_268" data-name="패스 268" class="cls-5" d="M821.09,418.987s6.543-1.027,7.35-.295" transform="translate(-565.575 -286.937)"/>
    <path id="패스_269" data-name="패스 269" class="cls-5" d="M823.78,410.719s5.512-.441,6.614.355" transform="translate(-567.31 -281.889)"/>
    <path id="패스_270" data-name="패스 270" class="cls-3" d="M832.052,437.456s-16.423-17.059-16.266-18.9c.075-.928-.736-2.982-1.571-4.8a22.543,22.543,0,0,1-2.068-8.462c-.849-21.132,8.924-30.45,18.257-34.544a32.063,32.063,0,0,1,16.227-2.516,32.1,32.1,0,0,0-17.468,2.36c-9.329,4.1-19.106,13.413-18.257,34.548a22.512,22.512,0,0,0,2.072,8.458c.832,1.823,1.646,3.874,1.567,4.8-.156,1.859,16.266,18.9,16.266,18.9s.771.131,1.777.238C832.258,437.491,832.052,437.456,832.052,437.456Z" transform="translate(-558.978 -254.364)"/>
    <path id="패스_271" data-name="패스 271" class="cls-6" d="M733.877,476.843V465.317h1.571V461.87H724.189v3.447h1.567v11.525a11.444,11.444,0,1,0,8.121,0Z" transform="translate(-499.363 -314.939)"/>
    <rect id="사각형_51" data-name="사각형 51" class="cls-3" width="8.121" height="0.156" transform="translate(226.397 150.343)"/>
    <path id="패스_272" data-name="패스 272" class="cls-7" d="M732.57,528.528s6.891-.121,10.338-1.845,5.413-.185,5.228.86-1.169,3.078-5.107,3.323S732.57,528.528,732.57,528.528Z" transform="translate(-508.515 -356.218)"/>
    <path id="패스_273" data-name="패스 273" class="cls-3" d="M732.57,528.528s6.891-.121,10.338-1.845,5.413-.185,5.228.86-1.169,3.078-5.107,3.323S732.57,528.528,732.57,528.528Z" transform="translate(-508.515 -356.218)"/>
    <path id="패스_274" data-name="패스 274" class="cls-7" d="M724.246,530.039s-.739,10.211,8.92,10.4,9.6-10.274,9.6-10.274-3.554,3.877-12,.679C730.764,530.839,726.4,529.669,724.246,530.039Z" transform="translate(-503.141 -358.835)"/>
    <path id="패스_275" data-name="패스 275" class="cls-3" d="M742.728,530.546c-.192,2.353-1.443,9.717-9.56,9.56-7.957-.149-8.856-7.108-8.928-9.553-.046,1.311,0,10.061,8.928,10.232,9.66.185,9.6-10.274,9.6-10.274Z" transform="translate(-503.142 -359.185)"/>
    <circle id="타원_41" data-name="타원 41" class="cls-8" cx="1.255" cy="1.255" r="1.255" transform="translate(228.828 165.543)"/>
    <circle id="타원_42" data-name="타원 42" class="cls-8" cx="0.775" cy="0.775" r="0.775" transform="translate(230.026 161.012)"/>
    <circle id="타원_43" data-name="타원 43" class="cls-8" cx="0.775" cy="0.775" r="0.775" transform="translate(228.295 156.537)"/>
    <path id="패스_276" data-name="패스 276" class="cls-9" d="M727.949,517.1c-.064.526-.053,1.187.419,1.422-.419-.174,1.215-2.537,1-3.017C728.863,514.484,728,516.609,727.949,517.1Z" transform="translate(-505.518 -349.335)"/>
    <circle id="타원_44" data-name="타원 44" class="cls-8" cx="1.255" cy="1.255" r="1.255" transform="translate(227.186 142.122)"/>
    <circle id="타원_45" data-name="타원 45" class="cls-8" cx="0.931" cy="0.931" r="0.931" transform="translate(231.27 140.299)"/>
    <circle id="타원_46" data-name="타원 46" class="cls-8" cx="0.483" cy="0.483" r="0.483" transform="translate(229.034 138.238)"/>
    <path id="패스_277" data-name="패스 277" class="cls-10" d="M402.564,279.709a31.791,31.791,0,0,0,11.913,2.69c-.025.167-.053.331-.082.49a14.678,14.678,0,0,1-1.244,3.874h.256c-5.789,8.721-.977,27.145-.977,27.145s1.258,6.877,3.412,14.457c1.194,4.2.54,6.557-.274,7.819v.025c-.053.082-.1.167-.156.252v-.124c-4.936,5.818-1.617,8.771-1.617,8.771l2.751,3.444-.238,5.992,1.795.355-.423-4.926,1.681,2.1.355,4.936s8.252.8,13.729,1.777,6.28-1.674,3.856-2.466-4.844-5.644-4.844-5.644a5.849,5.849,0,0,0-1.422-.309q-.067-.139-.139-.288c-1.812-3.817-4.275-10.85-4.275-10.85v-.06c-.259-2.911-.672-5.811-1.13-8.7-.825-5.2.686-17.955.686-17.955s.54-15.517,1.706-19.046a28.726,28.726,0,0,0,1.048-5.494c.032-.27.057-.537.082-.793,9.329.071,20.257-.181,25.251-1.56a35.215,35.215,0,0,1,4.371-.892c-.043.256-.092.526-.146.814a61.136,61.136,0,0,1-1.713,6.692c-2.154,6.877-1.258,18.427,1.7,26.715,2.164,6.042,1.553,14.216,1.066,18.182-.018.164-.039.323-.06.473l-.057-.05a3.312,3.312,0,0,1-1.088,2.413,5.565,5.565,0,0,0-1.987,5.16,6.973,6.973,0,0,0,3.028,4.592v7.758h1.706V349.8c5.562-1.322,12.2,8.817,12.2,8.817s9.514.441,16.959.263,2.424-3.437,2.424-3.437c-8.366.263-12.137-4.485-12.137-4.485l-.1.686-.068-.06c-3.131-2.936-7.108-10.239-7.108-10.239s-.27-3.7-1.255-5.466-.6-20.289-.6-20.289l-.078-30.187v-.8a11.729,11.729,0,0,0,3.494.036c1.422-.615.267-10.228-.988-12.609-.785-1.486-3.771-11.415-5.9-18.676a20.288,20.288,0,0,0,1.862,2.452c-1.35-1.777-8.7-37.114-8.7-37.114l-.252-4.62a25.209,25.209,0,0,0,2.843-4.826c2.9-.327,10.129-1.592,14.084-6.241.917-1.066,1.112-1.845.817-2.37l22.241-4.592,4.307-3.618-13.317,2.459c2.63-4.922-.594-6.71-3.742-7.342l.753-2.339a1.1,1.1,0,0,0-.156-.984h0l-.025-.028-.05-.064a1.078,1.078,0,0,0-.089-.089l-.06-.053a1.285,1.285,0,0,0-.114-.078l-.06-.036a1.617,1.617,0,0,0-.2-.085,1.155,1.155,0,0,0-1.443.736l-.878,2.722-.377-.021h0l-16.348-.711s-2.6-3.877-3.589-2.733-2.424-.174-2.424-.174,0-8.288-2.154-7.936a2.722,2.722,0,0,1-2.193-.6l-.05-.9s-.355-4.233-.711-7.847c-.327-3.3-6.4-7.7-7.463-8.444l-6.912-9.656a.507.507,0,0,0-.036.057l-.231-.323h0l.032-.2c.032-.167.057-.331.089-.5a13.59,13.59,0,0,0,4.083.626,13.208,13.208,0,0,0,13.324-13.093,12.826,12.826,0,0,0-.956-4.88c-.025-.064-.053-.124-.078-.188a3.813,3.813,0,0,0,2.182-.22,1.607,1.607,0,0,0,.43-.281c1.852-1.756-2.456-6.116-3.234-7.68-.643-1.287-.963-2.726-1.731-3.941a7.047,7.047,0,0,0-1.478-1.653c.043.064.089.128.132.2s.028.053.046.078a11.159,11.159,0,0,0-3.909-2.161c-5.281-1.777-16.441-4.386-19.771.021a10.175,10.175,0,0,1-2.111,2.488,15.885,15.885,0,0,1-2.285,1.013,8.594,8.594,0,0,0-4.211,5.331c-.729,2.214-.938,4.521-1.468,6.752A49.318,49.318,0,0,1,419.3,138c-1.4,3.2-2.886,6.529-5.58,8.8-3.678,3.1-4.51,7.463-7.908,10.857-4.048,4.03-3.909,10.662-1.83,15.954a4.383,4.383,0,0,1,.476,2.154,4.127,4.127,0,0,1-1.194,1.994l-2.211,2.452a12.332,12.332,0,0,0,8.323-1.066,13.306,13.306,0,0,0,1.525-.888l-.021.615c-.167,5.331-.068,9.507-.068,9.507,2.783,4.5-4.485,40.646-4.485,40.646C404.625,235.978,402.564,279.709,402.564,279.709Zm59.02-81.062c-.284-.018-.579-.032-.881-.043v-.085Zm7.6.885-.657.657c-1.39.227-2.349.434-2.349.434l-1.375.309a3.894,3.894,0,0,0-.689-1.809,1,1,0,0,0-.4-.192C465.5,199.155,467.377,199.354,469.186,199.532Z" transform="translate(-294.816 -89.192)"/>
    <path id="패스_278" data-name="패스 278" class="cls-11" d="M345.19,728.448l.526,6.237-1.756-.352.263-6.763Z" transform="translate(-221.718 -468.999)"/>
    <path id="패스_279" data-name="패스 279" class="cls-12" d="M557.139,627.434c2.132,6.042,1.518,14.166,1.041,18.125-.178,1.461-.355,2.353-.355,2.353s3.163,7.207,3.426,7.463,9.315,5.8,9.315,5.8l6.326,3.689s6.415-2.811,3.337-3.778a4.62,4.62,0,0,1-1.656-1.134c-3.067-2.925-6.955-10.2-6.955-10.2s-.263-3.689-1.226-5.445-.618-20.211-.618-20.211l-.075-30.084V590.1l-12.041.089a27.536,27.536,0,0,1-.519,3.963,60.7,60.7,0,0,1-1.677,6.671C553.361,607.664,554.239,619.175,557.139,627.434Z" transform="translate(-393.604 -397.597)"/>
    <path id="패스_280" data-name="패스 280" class="cls-3" d="M564.26,748.47s3.163,7.207,3.426,7.463,9.315,5.8,9.315,5.8l6.326,3.689s6.415-2.811,3.337-3.778a4.62,4.62,0,0,1-1.656-1.134l-.274,1.923-2.111-.085L564.6,746.11C564.42,747.578,564.26,748.47,564.26,748.47Z" transform="translate(-400.021 -498.162)"/>
    <path id="패스_281" data-name="패스 281" class="cls-11" d="M559.273,747.31,577.4,763.658l2.108.089.441-3.078s3.689,4.744,11.863,4.482c0,0,4.919,3.252-2.374,3.426s-16.6-.263-16.6-.263-6.5-10.1-11.952-8.785v7.645h-1.67v-7.737a6.948,6.948,0,0,1-2.964-4.577,5.612,5.612,0,0,1,1.944-5.143A3.323,3.323,0,0,0,559.273,747.31Z" transform="translate(-394.814 -498.935)"/>
    <path id="패스_282" data-name="패스 282" class="cls-12" d="M435.475,636.244c1.166,4.179.53,6.536-.27,7.8a.089.089,0,0,0,0,.025,14.434,14.434,0,0,0-2.1,5.135l-.071.395,8.256,12.037,4.467,1.759s7.2-2.459,5.885-3.163a6.67,6.67,0,0,1-1.422-2.349c-1.777-3.806-4.194-10.829-4.194-10.829V647c-.252-2.9-.657-5.793-1.109-8.672-.807-5.178.675-17.894.675-17.894s.526-15.463,1.67-18.982a29.35,29.35,0,0,0,1.024-5.473c.242-2.211.295-4.016.295-4.016s-4.745-6.589-13.445.529a9.694,9.694,0,0,0-1.816,1.972c-6.006,8.547-1.173,27.365-1.173,27.365S433.364,628.689,435.475,636.244Z" transform="translate(-313.674 -397.007)"/>
    <path id="패스_283" data-name="패스 283" class="cls-3" d="M437.93,748.9l8.256,12.037,4.482,1.759s7.2-2.459,5.885-3.163a6.669,6.669,0,0,1-1.422-2.349c-3.053-.028-4.62,2.879-4.62,2.879l-3.867-.615s-5.1-10.019-6.237-10.63-.178-4.574-.178-4.574V743.24l-.092.114a.089.089,0,0,0,0,.025,14.431,14.431,0,0,0-2.1,5.135Z" transform="translate(-318.588 -496.312)"/>
    <path id="패스_284" data-name="패스 284" class="cls-11" d="M449.076,760.837s2.2-4.041,6.4-2.548c0,0,2.374,4.833,4.745,5.622s1.585,3.43-3.778,2.463-13.427-1.741-13.427-1.741l-.355-4.919-5.448-6.941s-3.252-2.946,1.582-8.743v1.009s-.967,3.952.174,4.57,6.241,10.63,6.241,10.63Z" transform="translate(-317.434 -496.821)"/>
    <path id="패스_285" data-name="패스 285" class="cls-3" d="M562.819,590.178a27.526,27.526,0,0,1-.519,3.963,55.928,55.928,0,0,1,12.57-.131V590.1Z" transform="translate(-398.758 -397.597)"/>
    <path id="패스_286" data-name="패스 286" class="cls-3" d="M437.43,595.556s7.047.355,15.435.412c.242-2.211.295-4.016.295-4.016s-4.745-6.589-13.445.53a9.694,9.694,0,0,0-1.816,1.972A10.968,10.968,0,0,1,437.43,595.556Z" transform="translate(-318.266 -397)"/>
    <path id="패스_287" data-name="패스 287" class="cls-11" d="M437.43,454.93s30.841,1.493,40.241-1.141,18.715-.355,20.122-.97.263-10.193-.967-12.563-8-26.36-8-26.36l-6.5-33.922-6.852-1.891-.483-.135-11.941-3.294-8.75-2.413s-17.379,67.927-15.9,72.934a12.812,12.812,0,0,1,.252,5.9A14.821,14.821,0,0,1,437.43,454.93Z" transform="translate(-318.266 -257.163)"/>
    <path id="패스_288" data-name="패스 288" class="cls-13" d="M616.237,328.75s6.152,6.589,1.493,10.282-7.73.355-7.73.355Z" transform="translate(-429.506 -229.129)"/>
    <path id="패스_289" data-name="패스 289" class="cls-3" d="M616.237,328.75s6.152,6.589,1.493,10.282-7.73.355-7.73.355Z" transform="translate(-429.506 -229.129)"/>
    <path id="패스_290" data-name="패스 290" class="cls-12" d="M487.49,184.785s.711.682,1.809,1.7c1.55,1.446,3.842,3.554,5.875,5.331,2.818,2.452,5.139,4.265,4.311,2.715s-.675-4.211-.259-6.717c.028-.167.053-.331.085-.5a46.255,46.255,0,0,1,1.361-5.438,93.823,93.823,0,0,0-7.069-8.2c-.938-.867-1.592-1.237-1.631-.629a21.361,21.361,0,0,1-1.422,4.57l-.071.181c-.515,1.308-1.088,2.673-1.6,3.845C488.1,183.445,487.49,184.785,487.49,184.785Z" transform="translate(-350.535 -128.568)"/>
    <path id="패스_291" data-name="패스 291" class="cls-3" d="M495.89,177.839a13.061,13.061,0,0,0,8.75,10.015,45.156,45.156,0,0,1,1.446-5.935s-8.569-11.071-8.7-8.832A21.7,21.7,0,0,1,495.89,177.839Z" transform="translate(-355.95 -128.596)"/>
    <path id="패스_292" data-name="패스 292" class="cls-3" d="M509.509,220.66,508.4,219.1s-.736,4.482-3.437,2.506-2.843,14.87-2.843,14.87l2.9,43.358,20.968-1.251-.594-20.968-2.374-10.541-5.864-15.357-3.494-5.075Z" transform="translate(-359.966 -158.448)"/>
    <path id="패스_293" data-name="패스 293" class="cls-11" d="M502.14,237.17l2.623,39.207.277,4.155,11.685-.711.462-.028,8.81-.526L525.4,258.3l-2.374-10.541L517.166,232.4l-3.494-5.071-4.151-6-1.109-1.56s-.736,4.482-3.437,2.488l-.057-.039h0C502.271,220.563,502.14,237.17,502.14,237.17Z" transform="translate(-359.979 -158.88)"/>
    <path id="패스_294" data-name="패스 294" class="cls-14" d="M553.517,288.2s1.066,2.2,3.163,1.844,2.107,7.911,2.107,7.911,1.422,1.315,2.374.174,3.515,2.722,3.515,2.722l15.993.711s-7.108,3.252-5.711,13.093c0,0-24.167-1.493-24.952-3.778S553.517,288.2,553.517,288.2Z" transform="translate(-390.771 -202.99)"/>
    <path id="패스_295" data-name="패스 295" class="cls-15" d="M553.517,288.2s1.066,2.2,3.163,1.844,2.107,7.911,2.107,7.911,1.422,1.315,2.374.174,3.515,2.722,3.515,2.722l15.993.711s-7.108,3.252-5.711,13.093c0,0-24.167-1.493-24.952-3.778S553.517,288.2,553.517,288.2Z" transform="translate(-390.771 -202.99)"/>
    <path id="패스_296" data-name="패스 296" class="cls-14" d="M518.116,291.94l-4.219,3.6-34.708,7.293,4.307-4.393Z" transform="translate(-308.888 -188.189)"/>
    <path id="패스_297" data-name="패스 297" class="cls-14" d="M520.634,219.845a87.866,87.866,0,0,1,3.6,9.322c1.148,3.28,2.111,6.145,2.111,6.145s2.239,14.571,3.38,17.219.53,12.919.53,12.919l4.265,25.393s1.93,13.1,4.915,20.915c2.943,7.7,6.219,11.309,6.323,11.419-1.319-1.777-8.529-36.986-8.529-36.986l-2.371-44.375s-.355-4.219-.711-7.819-7.463-8.53-7.463-8.53l-6.873-9.777C519.12,216.653,519.582,218.263,520.634,219.845Z" transform="translate(-371.159 -156.25)"/>
    <path id="패스_298" data-name="패스 298" class="cls-12" d="M572.206,370.175s10.1-.441,15.026-6.326-11.337-2.374-11.337-2.374l-4.215.967Z" transform="translate(-404.804 -249.554)"/>
    <path id="패스_299" data-name="패스 299" class="cls-3" d="M439.989,351.17a12.811,12.811,0,0,1,.252,5.9c11.042.785,22.855-2.2,22.855-2.2,2.2,2.022,8,5.008,8,5.008l3.163-39.189c2.019-5.271,2.811-32.949,2.811-32.949s-.181-1.45-.462-3.618a.433.433,0,0,0-.021-.164c-.789-6.059-2.349-17.439-3.117-18.974-1.066-2.107,3.248-7.73,3.248-7.73l-1.958-16.7-.238-2.012c-4.13-1.848-7.293-7.737-7.293-7.737L464.8,226.53h0c-2.644-1.7-2.776,14.927-2.776,14.927l2.623,39.207-8.75-2.413S438.514,346.163,439.989,351.17Z" transform="translate(-319.858 -163.159)"/>
    <path id="패스_300" data-name="패스 300" class="cls-14" d="M408.26,334.914c12.034,5.974,33.915.441,33.915.441,2.2,2.019,8,5.008,8,5.008l3.163-39.189c2.019-5.271,2.811-32.949,2.811-32.949s-2.548-20.648-3.6-22.745a3.412,3.412,0,0,1,.206-2.516,31.871,31.871,0,0,0,1.93-14.742l-.842-7.186-.238-2.015c-4.13-1.845-7.293-7.733-7.293-7.733l-2.2-3.856-4.052-7.108-1.919-3.362-.323.295-2.488,2.257s-1.066.867-2.637,2.207c-3.447,2.907-9.4,8.018-12.474,11.145-2.7,2.758-3.554,13.473-3.8,21.54-.163,5.317-.064,9.482-.064,9.482,2.726,4.482-4.393,40.515-4.393,40.515C410.279,291.331,408.26,334.914,408.26,334.914Z" transform="translate(-299.463 -144.177)"/>
    <path id="패스_301" data-name="패스 301" class="cls-15" d="M451.7,235.88s8.259,15.726,7.293,21.7-3.693,12.741-2.374,14.322a4.862,4.862,0,0,0,3.867,1.944c1.319.089,4.833,2.548,4.833,2.811s3.252.263,6.152,1.493a38.453,38.453,0,0,0,7.2,1.933s8.348-.263,9.137.53,1.581,5.534-.089,9.311-3.515,6.593-4.919,7.108-10.281-2.459-17.485-3.163-15.026-6.415-15.026-6.415-8.611-3.074-10.1-8.259,1.844-33.652,1.844-33.652S444.586,232.287,451.7,235.88Z" transform="translate(-319.8 -168.866)"/>
    <path id="패스_302" data-name="패스 302" class="cls-15" d="M454.69,232.194s8.259,15.726,7.3,21.7-3.693,12.741-2.374,14.322a4.862,4.862,0,0,0,3.877,1.933c1.319.089,4.833,2.548,4.833,2.811s3.248.263,6.148,1.5a38.16,38.16,0,0,0,7.207,1.933s8.345-.267,9.137.526,1.582,5.533-.089,9.315-3.515,6.589-4.919,7.108-10.282-2.459-17.485-3.163-15.026-6.415-15.026-6.415-8.611-3.074-10.1-8.259,1.845-33.652,1.845-33.652S447.575,228.59,454.69,232.194Z" transform="translate(-321.733 -166.488)"/>
    <path id="패스_303" data-name="패스 303" class="cls-14" d="M452.423,233.675s8.259,15.73,7.293,21.7-3.689,12.741-2.374,14.322a4.862,4.862,0,0,0,3.867,1.933c1.319.085,4.833,2.545,4.833,2.811s3.252.263,6.152,1.493a38.451,38.451,0,0,0,7.2,1.933s8.348-.263,9.137.526,1.581,5.537-.085,9.315-3.515,6.589-4.922,7.108-10.281-2.459-17.485-3.163-15.026-6.4-15.026-6.4-8.608-3.078-10.1-8.259,1.852-33.659,1.852-33.659S445.315,230.071,452.423,233.675Z" transform="translate(-320.262 -167.443)"/>
    <path id="패스_304" data-name="패스 304" class="cls-3" d="M471.132,352.758s6.593-1.318,4.307.878-2.285,4.13-5.1,4.044S471.132,352.758,471.132,352.758Z" transform="translate(-338.79 -244.352)"/>
    <path id="패스_305" data-name="패스 305" class="cls-3" d="M434.578,486.73s2.985,2.022-2.726,6.678S434.578,486.73,434.578,486.73Z" transform="translate(-313.392 -330.964)"/>
    <path id="패스_306" data-name="패스 306" class="cls-3" d="M451.693,533.46c0,.263,1.066,9.663-2.9,12.037S451.693,533.46,451.693,533.46Z" transform="translate(-324.795 -361.086)"/>
    <path id="패스_307" data-name="패스 307" class="cls-12" d="M626.769,325.76c3.2.107,10.072,1.066,6.5,7.74-3.156,5.892-8.458,1.955-11.429-1.034A11.259,11.259,0,0,1,626.769,325.76Z" transform="translate(-437.138 -227.202)"/>
    <path id="패스_308" data-name="패스 308" class="cls-12" d="M620.89,343.66Z" transform="translate(-436.525 -238.74)"/>
    <path id="패스_309" data-name="패스 309" class="cls-12" d="M621.451,344.235l-.131-.135Z" transform="translate(-436.803 -239.024)"/>
    <path id="패스_310" data-name="패스 310" class="cls-3" d="M477,202.469c3.38,2.31,6.216,4.265,6.753,4.666,1.518,1.12,4.418,7.712,6.262,11.071,1.486,2.708,6.3,3.4,8.124,3.575l-.238-2.015c-4.123-1.844-7.286-7.737-7.286-7.737l-8.174-14.319-2.811,2.548S478.574,201.132,477,202.469Z" transform="translate(-343.773 -144.66)"/>
    <path id="패스_311" data-name="패스 311" class="cls-16" d="M477,201.729c3.38,2.31,6.216,4.265,6.753,4.666,1.518,1.119,4.418,7.708,6.262,11.071,1.486,2.708,6.3,3.4,8.124,3.575l-.238-2.015c-4.13-1.845-7.293-7.733-7.293-7.733l-8.174-14.322-2.811,2.552S478.574,200.389,477,201.729Z" transform="translate(-343.773 -144.183)"/>
    <path id="패스_312" data-name="패스 312" class="cls-12" d="M495.28,155.136a12.993,12.993,0,1,0,3.806-9.242A13.05,13.05,0,0,0,495.28,155.136Z" transform="translate(-355.556 -108.807)"/>
    <path id="패스_313" data-name="패스 313" class="cls-3" d="M431.18,198.961a11.565,11.565,0,0,0,4.2-4.524c.736-1.454,1.223-3.127,2.488-4.162,1.127-.92,2.651-1.144,4.048-1.56,4.62-1.368,8.508-5.594,8.657-10.42.068-2.267-.64-4.535-.32-6.781a7.506,7.506,0,0,1,1.475-3.5A11.835,11.835,0,0,1,453,166.645c.618-.583,1.262-1.144,1.823-1.777a6.875,6.875,0,0,0,.931-1.255,6.141,6.141,0,0,0,.5-1.169c.86-2.69.078-5.885,1.045-8.611l.053-.149a2.8,2.8,0,0,1,2.132-2.012c1.023-.078,1.923.782,2.911,1.169,2.061.8,4.29-.562,6.01-1.955s3.664-2.982,5.85-2.669c1.446.206,2.591,1.191,3.909,1.7a6.078,6.078,0,0,0,.931.267,13.05,13.05,0,0,0-24.878,7.588l-.071.181c-.515,1.308-1.088,2.673-1.6,3.845l-2.488,2.257s-1.066.867-2.637,2.207c-3.447,2.907-9.4,8.018-12.474,11.145C432.282,180.179,431.429,190.894,431.18,198.961Z" transform="translate(-314.237 -108.73)"/>
    <path id="패스_314" data-name="패스 314" class="cls-17" d="M460.95,123.859c-.629-1.283-.942-2.715-1.7-3.931a9.18,9.18,0,0,0-5.011-3.554c-5.171-1.777-16.1-4.371-19.362.021a9.719,9.719,0,0,1-2.065,2.466,14.956,14.956,0,0,1-2.239,1.009,8.559,8.559,0,0,0-4.123,5.3c-.711,2.189-.917,4.5-1.422,6.753a49.728,49.728,0,0,1-2.992,8.306c-1.368,3.2-2.822,6.507-5.462,8.768-3.6,3.085-4.414,7.442-7.744,10.818-3.963,4.02-3.835,10.64-1.777,15.9a4.378,4.378,0,0,1,.466,2.132,4.2,4.2,0,0,1-1.169,1.987l-2.164,2.445a12.17,12.17,0,0,0,13.3-6.138c.739-1.45,1.223-3.124,2.488-4.158,1.127-.924,2.648-1.144,4.048-1.56,4.62-1.368,8.508-5.6,8.654-10.42.071-2.267-.636-4.535-.316-6.781a7.538,7.538,0,0,1,1.471-3.5c1.212-1.578,3.042-2.658,4.023-4.389,1.67-2.943.4-6.753,1.606-9.93a2.792,2.792,0,0,1,2.132-2.012c1.023-.075,1.923.785,2.907,1.169,2.061.8,4.293-.562,6.01-1.955s3.664-2.982,5.853-2.669c1.446.206,2.591,1.191,3.909,1.7.988.38,2.989.711,3.852-.114C465.929,129.762,461.7,125.415,460.95,123.859Z" transform="translate(-296.839 -90.686)"/>
    <path id="패스_315" data-name="패스 315" class="cls-3" d="M416.344,182.364c.736-1.454,1.223-3.124,2.488-4.158,1.127-.924,2.648-1.144,4.048-1.56,4.62-1.368,8.508-5.6,8.654-10.42.071-2.267-.64-4.538-.316-6.781a7.484,7.484,0,0,1,1.471-3.5c1.212-1.582,3.042-2.658,4.023-4.393,1.67-2.939.4-6.752,1.6-9.926a2.792,2.792,0,0,1,2.132-2.012c1.02-.075,1.923.782,2.907,1.166,2.061.8,4.29-.558,6.01-1.951s3.664-2.982,5.853-2.673c1.446.206,2.591,1.191,3.909,1.706.988.377,2.985.711,3.852-.114,1.813-1.749-2.406-6.1-3.167-7.652a42.526,42.526,0,0,0-1.7-3.931c-.043-.068-.089-.132-.132-.2a6.972,6.972,0,0,1,1.45,1.645,42.486,42.486,0,0,1,1.692,3.931c.764,1.557,4.976,5.9,3.167,7.652-.864.832-2.843.49-3.849.11-1.333-.512-2.488-1.5-3.909-1.7-2.189-.309-4.137,1.279-5.853,2.673s-3.948,2.754-6.01,1.951c-.988-.384-1.852-1.244-2.907-1.169a2.746,2.746,0,0,0-2.132,2.015c-1.2,3.159.064,6.987-1.6,9.926-.984,1.734-2.811,2.811-4.023,4.393a7.526,7.526,0,0,0-1.475,3.5c-.32,2.243.391,4.514.32,6.781-.149,4.823-4.027,9.052-8.654,10.42-1.4.412-2.921.636-4.048,1.56-1.262,1.034-1.749,2.7-2.488,4.158a12.165,12.165,0,0,1-13.3,6.134l1.02-1.151A12.244,12.244,0,0,0,416.344,182.364Z" transform="translate(-296.949 -98.416)"/>
    <path id="패스_316" data-name="패스 316" class="cls-3" d="M521.384,220.588a88.52,88.52,0,0,1,3.6,9.318c1.287-.5,2.459-3.7,2.459-3.7l-6.877-9.78C519.866,217.4,520.328,219.007,521.384,220.588Z" transform="translate(-371.642 -156.727)"/>
    <path id="패스_317" data-name="패스 317" class="cls-16" d="M520.64,219.845a87.86,87.86,0,0,1,3.6,9.322c1.29-.5,2.459-3.7,2.459-3.7l-6.873-9.777C519.126,216.653,519.588,218.263,520.64,219.845Z" transform="translate(-371.164 -156.25)"/>
    <path id="패스_318" data-name="패스 318" class="cls-18" d="M631.309,329.445l3.813-12.005a1.13,1.13,0,0,0-.732-1.422h0a1.123,1.123,0,0,0-1.422.732l-3.8,12.019.38,2.513Z" transform="translate(-441.863 -220.886)"/>
    <path id="패스_319" data-name="패스 319" class="cls-19" d="M634.764,316.4h0a1.123,1.123,0,0,0-1.422.729l-3.813,12.005.288,1.887-.277.288-.37-2.509,3.81-12.005a1.123,1.123,0,0,1,1.422-.732h0a1.124,1.124,0,0,1,.583.43,1.006,1.006,0,0,0-.22-.092Z" transform="translate(-441.863 -220.912)"/>
    <path id="패스_320" data-name="패스 320" class="cls-20" d="M529.183,304.239l-2.143-.679.313,2.061.068.451.625-.65Z" transform="translate(-339.733 -195.68)"/>
    <path id="패스_321" data-name="패스 321" class="cls-21" d="M630.743,356.96a.526.526,0,0,0-.139-.114.2.2,0,0,0-.206,0,.658.658,0,0,0-.075.117.373.373,0,0,1-.274.185l.068.451Z" transform="translate(-442.43 -247.222)"/>
    <path id="패스_322" data-name="패스 322" class="cls-12" d="M634.9,332.09s-7.645-.046-5.843,3.2a6.922,6.922,0,0,0,4.62,3.646Z" transform="translate(-441.616 -231.282)"/>
    <path id="패스_323" data-name="패스 323" class="cls-7" d="M182.922,681.41s2.534,3.316-1.169,8.32-6.753,9.24-5.53,12.354c0,0,5.594-9.3,10.143-9.425S187.93,687,182.922,681.41Z" transform="translate(-149.714 -456.456)"/>
    <path id="패스_324" data-name="패스 324" class="cls-3" d="M183.174,681.41a4.083,4.083,0,0,1,.519,1.038c4.439,5.217,6.806,10.086,2.538,10.21-3.977.114-8.746,7.222-9.891,9.016.039.139.085.277.135.409,0,0,5.594-9.3,10.143-9.425S188.182,687,183.174,681.41Z" transform="translate(-149.966 -456.456)"/>
    <path id="패스_325" data-name="패스 325" class="cls-22" d="M207.773,691.941c0,1.166-.132,2.111-.291,2.111s-.291-.945-.291-2.111.163-.618.323-.618S207.773,690.768,207.773,691.941Z" transform="translate(-169.852 -462.761)"/>
    <path id="패스_326" data-name="패스 326" class="cls-22" d="M209.754,695.767c-1.024.558-1.916.9-1.994.753s.689-.711,1.717-1.269.618-.153.711,0S210.781,695.209,209.754,695.767Z" transform="translate(-170.216 -465.194)"/>
    <path id="패스_327" data-name="패스 327" class="cls-7" d="M147.556,681.41s-2.534,3.316,1.169,8.32,6.753,9.24,5.526,12.354c0,0-5.59-9.3-10.143-9.425S142.548,687,147.556,681.41Z" transform="translate(-127.742 -456.456)"/>
    <path id="패스_328" data-name="패스 328" class="cls-3" d="M147.553,681.41a4.083,4.083,0,0,0-.519,1.038c-4.439,5.217-6.806,10.086-2.538,10.21,3.977.114,8.746,7.222,9.891,9.016a3.942,3.942,0,0,1-.139.409s-5.587-9.3-10.143-9.425S142.545,687,147.553,681.41Z" transform="translate(-127.739 -456.456)"/>
    <path id="패스_329" data-name="패스 329" class="cls-22" d="M144.62,691.941c0,1.166.132,2.111.291,2.111s.291-.945.291-2.111-.163-.618-.323-.618S144.62,690.768,144.62,691.941Z" transform="translate(-129.519 -462.761)"/>
    <path id="패스_330" data-name="패스 330" class="cls-22" d="M138.915,695.767c1.024.558,1.916.9,1.994.753s-.689-.711-1.717-1.269-.618-.153-.711,0S137.888,695.209,138.915,695.767Z" transform="translate(-125.431 -465.194)"/>
    <ellipse id="타원_47" data-name="타원 47" class="cls-1" cx="26.512" cy="4.069" rx="26.512" ry="4.069" transform="translate(0 262.861)"/>
    <path id="패스_331" data-name="패스 331" class="cls-23" d="M165.61,724.19l-.128,1.034-.178,1.464-.075.608-.178,1.464-.075.611-.178,1.461-2.029,16.633c-.181,1.486-2.609,2.641-5.533,2.641H146.693c-2.928,0-5.331-1.155-5.53-2.641l-2.033-16.633-.178-1.461-.075-.611L138.7,727.3l-.071-.608-.178-1.464-.128-1.034c-.1-.842,1.208-1.549,2.868-1.549h21.558C164.4,722.644,165.714,723.351,165.61,724.19Z" transform="translate(-125.454 -483.033)"/>
    <path id="패스_332" data-name="패스 332" class="cls-24" d="M63.6,681.5l-.178,1.461H36.738L36.56,681.5Z" transform="translate(-23.567 -439.302)"/>
    <path id="패스_333" data-name="패스 333" class="cls-24" d="M63.8,687.33l-.178,1.464H37.451l-.181-1.464Z" transform="translate(-24.024 -443.06)"/>
    <path id="패스_334" data-name="패스 334" class="cls-24" d="M64.006,693.16l-.178,1.461H38.158l-.178-1.461Z" transform="translate(-24.482 -446.818)"/>
  </g>
</svg>
