<svg xmlns="http://www.w3.org/2000/svg" width="351.246" height="291.863" viewBox="0 0 351.246 291.863">
  <defs>
    <style>
      .cls-1 {
        fill: #3f3d56;
      }

      .cls-2 {
        opacity: 0.1;
      }

      .cls-3 {
        fill: #6c63ff;
      }

      .cls-4 {
        fill: #ffb9b9;
      }

      .cls-5 {
        fill: #d0cde1;
      }

      .cls-6 {
        fill: #2f2e41;
      }

      .cls-7 {
        fill: #f2f2f2;
      }
    </style>
  </defs>
  <g id="그룹_16" data-name="그룹 16" transform="translate(0 0.001)">
    <path id="패스_160" data-name="패스 160" class="cls-1" d="M767.265,568.992H766.4V474.478a2.582,2.582,0,0,0-.956-2.01l.546-.67a3.443,3.443,0,0,1,1.274,2.679Z" transform="translate(-509.302 -316.412)"/>
    <path id="패스_161" data-name="패스 161" class="cls-1" d="M565.922,135.23a7.574,7.574,0,0,1,.5,1.589C566.177,135.986,565.987,135.42,565.922,135.23Z" transform="translate(-395.947 -125.197)"/>
    <path id="패스_162" data-name="패스 162" class="cls-1" d="M582.816,196.37a12.641,12.641,0,0,1-.644,2.747Z" transform="translate(-405.179 -159.932)"/>
    <path id="패스_163" data-name="패스 163" class="cls-1" d="M428.834,238.4c-16.985,8.853-39.205,16.5-45.86,18.713,5.074-1.322,19.844-3.1,42.729,11.177,28.754,17.936,59.5,5.977,59.5,5.977s-6.832,13.1-21.352,13.949-52.382-23.058-65.191-16.225-18.791-1.71-23.917,15.375-14.515,63.766-3.7,89.958l10.814,26.189H320.37s22.207-59.214,9.963-95.65c-6.854-20.406-16.476-35.184-20.065-42.695-1.8-3.762-2.086-5.7.246-5.6,1.326.056,3.5.769,6.724,2.177,0,0-14.8-14.519-19.641-14.519s-27.618-2.276-35.016-9.963c0,0-10.533-7.4-29.324,10.818s-14.234,18.221-31.03,16.8a73.994,73.994,0,0,1-29.885-9.674c.479.194,19.788,7.912,31.591,3.982,11.958-3.986,22.207-19.076,32.74-24.2s16.8-11.958,31.03-4.556l-9.38-22.116-2.57-6.059,0-.009s-3.135-41.563-9.112-44.409-2.276-10.248-13.379-11.673c0,0,13.664-1.71,16.225,7.687S269.7,213.917,269.7,213.917s10.814,21.632,22.772,16.51-4.556-33.876-4.556-33.876l-20.5-9.4s15.375-.57,24.768,8.257,9.963,37.292,9.963,37.292,23.628,3.416,29.324,16.23c0,0,3.7-11.388-3.416-18.221a32.884,32.884,0,0,1-5.45-8.175,72.216,72.216,0,0,1-7.057-43.5c1.058-7.281,1.71-14.4.548-16.083-2.561-3.7-13.379-26.474-14.234-32.455s.855-18.5.855-18.5.285,15.37,3.7,20.212,13.094,28.754,13.094,28.754,0,30.175,7.972,44.979,23.342,31.315,22.492,42.133v6.262s17.08-16.225,15.94-21.637-2.561-18.221-13.379-25.9-17.936-19.931-10.248-37.581a174.441,174.441,0,0,0,7.044-18.031l-4.483,19.171s-2.846,19.641,5.126,26.474c.022.017.039.035.06.052,7.959,6.841,18.441,19.309,18.441,19.309l-.03-.548L366.2,175.2l.492,1.08,3.55,7.782,3.36,7.363s15.94-20.5,34.731-27.329,30.46-30.745,30.46-30.745l15.945-12.529-13.1,15.66s-3.986,18.5-26.474,31.6-37.007,32.451-37.862,44.409-1.71,22.492-1.71,22.492,42.133-1.425,51.526-19.931S444.208,195.7,444.208,195.7l-5.411,15.94L432.82,225.3s24.483.57,37.292,15.09,44.694,18.791,44.694,18.791l-17.931,4.837a164.912,164.912,0,0,1-33.31-16.225C447.339,237.26,449.045,227.866,428.834,238.4Z" transform="translate(-172.342 -111.999)"/>
    <path id="패스_164" data-name="패스 164" class="cls-2" d="M710.41,314.74c-1.8,7.972-3.921,15.673-6.9,21.542-9.393,18.506-51.526,19.931-51.526,19.931s.2-2.444.5-6.3c10.7-.881,39.939-4.643,47.57-19.676.7-1.373,1.347-2.85,1.961-4.405Z" transform="translate(-444.84 -227.182)"/>
    <path id="패스_165" data-name="패스 165" class="cls-2" d="M605.868,306.8s-10.533-12.529-18.5-19.361a13.861,13.861,0,0,1-3.826-5.994c-.069-.19-.134-.384-.2-.579.186.181.371.358.57.527,6.975,5.981,15.919,16.329,18.039,18.812l.462.548L600.2,260.84l3.55,7.782Z" transform="translate(-405.844 -196.56)"/>
    <path id="패스_166" data-name="패스 166" class="cls-2" d="M648.343,197.9a60.34,60.34,0,0,1-.972,11.178s15.936-20.488,34.719-27.325c1.11-.7,2.236-1.394,3.389-2.065,22.49-13.1,26.475-31.6,26.475-31.6l13.1-15.658-15.942,12.526s-11.672,23.913-30.461,30.746C665.839,180.361,654.357,191.365,648.343,197.9Z" transform="translate(-442.22 -123.607)"/>
    <path id="패스_167" data-name="패스 167" class="cls-2" d="M592.457,394.828v6.263s17.081-16.227,15.942-21.636c-.871-4.137-1.913-12.6-7.192-19.793,2.379,5.435,3.1,10.737,3.737,13.746.817,3.879-7.735,13.32-12.64,18.351A12.977,12.977,0,0,1,592.457,394.828Z" transform="translate(-410.936 -252.703)"/>
    <path id="패스_168" data-name="패스 168" class="cls-2" d="M539.6,341.567c.135.289.275.572.423.847,4.366,8.107,10.947,16.725,15.871,24.642C551.918,359.216,544.992,350.251,539.6,341.567Z" transform="translate(-380.995 -242.423)"/>
    <path id="패스_169" data-name="패스 169" class="cls-2" d="M708.363,459.958c-9.365-5.841-17.369-8.994-23.908-10.591-6.859,2.582-12.5,4.507-15.345,5.452,5.094-1.319,19.854-3.07,42.708,11.185,17.931,11.185,36.637,10.744,48.178,8.828a29.826,29.826,0,0,0,7.866-8.9S737.116,477.893,708.363,459.958Z" transform="translate(-454.571 -303.667)"/>
    <path id="패스_170" data-name="패스 170" class="cls-2" d="M564.729,250.569c-2.3-5.625-2.674-12.318-.036-20.161a61.513,61.513,0,0,1,.491-8.5l4.483-19.176a173.677,173.677,0,0,1-7.045,18.037C557.143,233.346,559.188,243.175,564.729,250.569Z" transform="translate(-392.241 -163.545)"/>
    <path id="패스_171" data-name="패스 171" class="cls-2" d="M818.319,390.16c-8.884-10.069-23.38-13.428-31.432-14.542l-2.406,5.5s24.483.569,37.293,15.088c7.1,8.051,20.072,12.95,30.217,15.717l11.023-2.974S831.13,404.679,818.319,390.16Z" transform="translate(-520.117 -261.769)"/>
    <path id="패스_172" data-name="패스 172" class="cls-2" d="M429.24,355.38c11.957-5.124-4.555-33.877-4.555-33.877l-.452-.207c4.116,8.685,10.087,24.38,1.552,28.038-7.986,3.423-15.464-5.093-19.549-11.126l.23.66S417.283,360.5,429.24,355.38Z" transform="translate(-305.224 -230.906)"/>
    <path id="패스_173" data-name="패스 173" class="cls-2" d="M510.842,414.548s3.6-11.105-3.165-17.962a23.135,23.135,0,0,1-.289,11.916c-4.4-9.91-19.539-14.2-26.168-15.631.257,3.3.3,5.45.3,5.45S505.148,401.738,510.842,414.548Z" transform="translate(-347.824 -271.57)"/>
    <path id="패스_174" data-name="패스 174" class="cls-2" d="M583.172,199.118a12.627,12.627,0,0,0,.642-2.745Z" transform="translate(-405.747 -159.934)"/>
    <path id="패스_175" data-name="패스 175" class="cls-2" d="M208.208,406.807c.057-.018.116-.035.173-.054,11.957-3.986,22.205-19.074,32.738-24.2s16.8-11.957,31.03-4.555c0,0-2.49-10.193-7.316-16.89a66.417,66.417,0,0,1,3.861,10.844c-14.234-7.4-20.5-.569-31.03,4.555s-20.782,20.212-32.738,24.2-31.6-3.986-31.6-3.986a73.884,73.884,0,0,0,29.892,9.679C205.139,406.563,206.779,406.706,208.208,406.807Z" transform="translate(-172.901 -253.526)"/>
    <path id="패스_176" data-name="패스 176" class="cls-2" d="M362.314,276.448,361,276.47l-2.57-6.059c.281,0,.428-.009.428-.009s-1.978-26.214-5.787-38.432c.048.022.086.048.13.069C359.179,234.885,362.314,276.448,362.314,276.448Z" transform="translate(-275.02 -180.158)"/>
    <path id="패스_177" data-name="패스 177" class="cls-2" d="M521.637,634.976c5.216-15.99,17.761-60.207,7.884-89.607-4.265-12.7-8.219-20.793-11.561-25.958a146.77,146.77,0,0,1,8.106,19.911c12.241,36.439-9.964,95.653-9.964,95.653Z" transform="translate(-367.643 -343.462)"/>
    <path id="패스_178" data-name="패스 178" class="cls-2" d="M500.692,461.908a31.657,31.657,0,0,0-10.857-2.621c-1.8-3.762-2.086-5.7.246-5.6.648.117,1.3.255,1.948.415C496.607,457.9,500.692,461.908,500.692,461.908Z" transform="translate(-351.909 -306.119)"/>
    <path id="패스_179" data-name="패스 179" class="cls-2" d="M338.4,211.727a7.447,7.447,0,0,0,1.171,1.5A8.4,8.4,0,0,0,338.4,211.727Z" transform="translate(-266.683 -168.657)"/>
    <path id="패스_180" data-name="패스 180" class="cls-2" d="M421.716,300.315a13.858,13.858,0,0,1,1.234,1.331,21.336,21.336,0,0,0-4.689-7.377c-9.394-8.825-24.767-8.256-24.767-8.256l19.279,8.836a27.532,27.532,0,0,1,8.943,5.466Z" transform="translate(-297.985 -210.857)"/>
    <path id="패스_181" data-name="패스 181" class="cls-2" d="M487.175,162.955c1.162,1.678.509,8.8-.552,16.083a72.21,72.21,0,0,0,7.059,43.5,50.645,50.645,0,0,0,3.033,5.207,72.278,72.278,0,0,1-6.638-42.656c1.061-7.283,1.713-14.405.552-16.083-2.562-3.7-13.38-26.475-14.234-32.454a41.43,41.43,0,0,1-.178-6.985C474.006,123.287,473.8,112,473.8,112s-1.708,12.526-.854,18.5S484.613,159.254,487.175,162.955Z" transform="translate(-342.986 -111.997)"/>
    <path id="패스_182" data-name="패스 182" class="cls-2" d="M567.376,136.706a8.148,8.148,0,0,0-.517-1.638S567.078,135.683,567.376,136.706Z" transform="translate(-396.479 -125.105)"/>
    <path id="패스_183" data-name="패스 183" class="cls-2" d="M323.391,197.051a15,15,0,0,1,7.6,2.862c-.144-.486-.269-.921-.369-1.287-2.562-9.395-16.227-7.686-16.227-7.686C320.567,191.732,322.162,194.373,323.391,197.051Z" transform="translate(-253.045 -156.778)"/>
    <path id="패스_184" data-name="패스 184" class="cls-1" d="M952.609,741.577c-4.246,6.511-3.082,14.792-3.082,14.792s8.047-2.275,12.293-8.786S964.9,732.79,964.9,732.79,956.855,735.066,952.609,741.577Z" transform="translate(-613.802 -464.689)"/>
    <path id="패스_185" data-name="패스 185" class="cls-3" d="M949.77,736.99c-.336,7.766-6.1,13.824-6.1,13.824s-5.22-6.533-4.885-14.3,6.1-13.824,6.1-13.824S950.105,729.225,949.77,736.99Z" transform="translate(-607.772 -458.952)"/>
    <path id="패스_186" data-name="패스 186" class="cls-4" d="M791.088,636.441s4.885-5.125,6.885-4.094-5.749,5.614-5.749,5.614Z" transform="translate(-523.87 -407.546)"/>
    <path id="패스_187" data-name="패스 187" class="cls-2" d="M791.088,636.441s4.885-5.125,6.885-4.094-5.749,5.614-5.749,5.614Z" transform="translate(-523.87 -407.546)"/>
    <path id="패스_188" data-name="패스 188" class="cls-5" d="M754.727,615.826a12.113,12.113,0,0,0-1.326,6.689c.47,3.47,4.768,14.6,6.229,14.407s12.284-8.173,12.284-8.173l-2.064-2.882-7.906,4.79S760.738,613.524,754.727,615.826Z" transform="translate(-502.415 -398.117)"/>
    <path id="패스_189" data-name="패스 189" class="cls-6" d="M803.086,626.223l-12.325,6.77a.587.587,0,0,1-.863-.255l-3.019-6.311a.788.788,0,0,1,.4-.946l10.233-5.275a.6.6,0,0,1,.783.15l5.111,4.816a.759.759,0,0,1-.324,1.051Z" transform="translate(-521.458 -400.678)"/>
    <path id="패스_190" data-name="패스 190" class="cls-3" d="M630.964,514.4l-11.555,6.6-3.075-5.542,9.912-5.391Z" transform="translate(-350.158 -289.788)"/>
    <ellipse id="타원_32" data-name="타원 32" class="cls-7" cx="0.17" cy="0.145" rx="0.17" ry="0.145" transform="translate(270.78 222.649) rotate(-50.158)"/>
    <ellipse id="타원_33" data-name="타원 33" class="cls-7" cx="0.113" cy="0.097" rx="0.113" ry="0.097" transform="translate(275.144 228.307) rotate(-50.158)"/>
    <path id="패스_191" data-name="패스 191" class="cls-2" d="M754.727,615.826a12.113,12.113,0,0,0-1.326,6.689c.47,3.47,4.768,14.6,6.229,14.407s12.284-8.173,12.284-8.173l-2.064-2.882-7.906,4.79S760.738,613.524,754.727,615.826Z" transform="translate(-502.415 -398.117)"/>
    <path id="패스_192" data-name="패스 192" class="cls-4" d="M783.44,639.843s5.529-4.423,7.372-3.133-6.45,4.792-6.45,4.792Z" transform="translate(-519.525 -409.969)"/>
    <circle id="타원_34" data-name="타원 34" class="cls-4" cx="5.345" cy="5.345" r="5.345" transform="translate(251.198 201.492)"/>
    <path id="패스_193" data-name="패스 193" class="cls-4" d="M801.5,677.134s5.713.737,5.529,4.239-4.423,18.061-4.423,18.061l-.369,5.713s.369,9.583-.737,9.4-3.686-6.819-3.686-6.819-3.133-2.027-1.659-3.87,2.58-1.659,2.212-3.686-.184-10.505.922-13.085,1.75-4,1.75-4l-3.593-.236Z" transform="translate(-526.522 -433.069)"/>
    <path id="패스_194" data-name="패스 194" class="cls-2" d="M801.5,677.134s5.713.737,5.529,4.239-4.423,18.061-4.423,18.061l-.369,5.713s.369,9.583-.737,9.4-3.686-6.819-3.686-6.819-3.133-2.027-1.659-3.87,2.58-1.659,2.212-3.686-.184-10.505.922-13.085,1.75-4,1.75-4l-3.593-.236Z" transform="translate(-526.522 -433.069)"/>
    <path id="패스_195" data-name="패스 195" class="cls-4" d="M804.807,679.268s5.529,1.29,6.082,4.976,3.317,14.56,3.317,14.56l2.949,6.819s4.607,8.293,2.58,8.109-4.792-4.239-5.713-4.239-3.686-1.106-3.5-1.843a21.375,21.375,0,0,1,1.474-2.949l-4.459-7.767a18.865,18.865,0,0,1-1.934-4.786,33.541,33.541,0,0,1-.979-4.771c0-1.29-3.686-1.843-3.686-1.843Z" transform="translate(-529.466 -434.281)"/>
    <path id="패스_196" data-name="패스 196" class="cls-6" d="M744.234,651.956l2.58,7.372s4.055,1.106,7,2.027,8.478-.369,9.031,1.843-1.106,6.082-2.764,7-2.58,1.843-7.925.369-18.061-1.843-18.061-1.843a9.238,9.238,0,0,1-4.055,1.29c-2.4.184-2.949.369-3.686-.184s.369-.553.737-2.027.553-.921,2.212-2.58,2.949-6.635,3.87-8.293a20.308,20.308,0,0,0,1.474-4.976Z" transform="translate(-486.954 -418.765)"/>
    <path id="패스_197" data-name="패스 197" class="cls-4" d="M757.041,596.342a5.4,5.4,0,0,0-2.212,4.239c0,2.764-5.529-2.949-5.529-2.949s2.949-3.686,2.949-4.792S757.041,596.342,757.041,596.342Z" transform="translate(-500.13 -385.082)"/>
    <path id="패스_198" data-name="패스 198" class="cls-5" d="M745.014,598.613s3.317,1.29,4.055,3.133a42.663,42.663,0,0,0,3.5,5.713s3.87,4.055,2.58,8.478-2.4,5.529-2.4,6.266-1.843,2.027-3.317,1.843-7-.921-7.372-1.659-2.58-11.242-1.106-15.112a89.426,89.426,0,0,1,4.055-8.662Z" transform="translate(-495.106 -388.459)"/>
    <path id="패스_199" data-name="패스 199" class="cls-6" d="M751.608,578.775c1.2.284,2.37-.478,3.35-1.234.557-.429,1.169-1.041,1-1.731-.151-.612-.873-.96-.978-1.582-.073-.433.18-.854.2-1.292a1.825,1.825,0,0,0-1.073-1.565c-.583-.314-1.244-.445-1.842-.725a16.146,16.146,0,0,0-2.65-1.449c-1.334-.338-2.692.382-4.063.475-.83.056-1.67-.119-2.491.018a3.556,3.556,0,0,0-2.849,3.357,2.867,2.867,0,0,1-.243,1.706,2.583,2.583,0,0,1-.469.425,5.674,5.674,0,0,0-1.836,4.221c-.031.781.133,1.709.826,2.041a3.058,3.058,0,0,0,1.155.161,1.206,1.206,0,0,1,1.02.487c.316.557-.157,1.379.256,1.866a.936.936,0,0,0,1.278-.067c.362-.311.588-.758.932-1.091a4.215,4.215,0,0,1,2.575-.863,1.306,1.306,0,0,0,.755-.248,1.167,1.167,0,0,0,.31-.635,3.935,3.935,0,0,0,0-1.667.926.926,0,0,1-.021-.528.749.749,0,0,1,.27-.3,3.716,3.716,0,0,1,2.3-.93C750.139,577.752,750.783,578.58,751.608,578.775Z" transform="translate(-493.515 -371.695)"/>
    <path id="패스_200" data-name="패스 200" class="cls-5" d="M749.8,613.858a12.113,12.113,0,0,0-2.212,6.45c0,3.5,2.765,15.112,4.239,15.112s13.269-6.45,13.269-6.45l-1.659-3.133-8.478,3.686S756.071,612.383,749.8,613.858Z" transform="translate(-499.16 -397.069)"/>
    <rect id="사각형_23" data-name="사각형 23" class="cls-3" width="42.323" height="8.206" transform="translate(233.346 250.055)"/>
    <path id="패스_201" data-name="패스 201" class="cls-1" d="M757.113,574.083a3.459,3.459,0,0,1-3.455-3.455V473.458a3.455,3.455,0,0,1,5.636-2.679l-.546.67a2.591,2.591,0,0,0-4.227,2.01v97.171a2.594,2.594,0,0,0,2.591,2.591Z" transform="translate(-502.605 -315.391)"/>
    <ellipse id="타원_35" data-name="타원 35" class="cls-3" cx="0.432" cy="1.296" rx="0.432" ry="1.296" transform="translate(246.019 202.675) rotate(-38.768)"/>
    <path id="패스_202" data-name="패스 202" class="cls-1" d="M656.609,741.577c-4.246,6.511-3.082,14.792-3.082,14.792s8.047-2.275,12.293-8.786S668.9,732.79,668.9,732.79,660.855,735.066,656.609,741.577Z" transform="translate(-445.635 -464.689)"/>
    <path id="패스_203" data-name="패스 203" class="cls-3" d="M653.769,736.99c-.336,7.766-6.1,13.824-6.1,13.824s-5.221-6.533-4.885-14.3,6.1-13.824,6.1-13.824S654.1,729.225,653.769,736.99Z" transform="translate(-439.606 -458.952)"/>
    <path id="패스_204" data-name="패스 204" class="cls-1" d="M498.261,739.077c2.03,7.5,8.982,12.15,8.982,12.15s3.661-7.518,1.632-15.021-8.982-12.15-8.982-12.15S496.231,731.574,498.261,739.077Z" transform="translate(-357.158 -459.726)"/>
    <path id="패스_205" data-name="패스 205" class="cls-3" d="M487.662,747.372c5.57,5.422,6.25,13.757,6.25,13.757s-8.35-.456-13.92-5.878-6.25-13.757-6.25-13.757S482.093,741.95,487.662,747.372Z" transform="translate(-343.577 -469.634)"/>
    <path id="패스_206" data-name="패스 206" class="cls-3" d="M448.749,265.115c-.484,7.758-6.364,13.7-6.364,13.7s-5.094-6.631-4.61-14.389,6.364-13.7,6.364-13.7S449.233,257.357,448.749,265.115Z" transform="translate(-323.124 -190.813)"/>
    <path id="패스_207" data-name="패스 207" class="cls-3" d="M301.793,166.476c6.575,4.145,8.974,12.157,8.974,12.157s-8.262,1.29-14.838-2.855-8.974-12.157-8.974-12.157S295.218,162.33,301.793,166.476Z" transform="translate(-237.457 -141.218)"/>
    <path id="패스_208" data-name="패스 208" class="cls-3" d="M267.793,385.476c6.575,4.145,8.974,12.157,8.974,12.157s-8.262,1.29-14.838-2.855-8.974-12.157-8.974-12.157S261.218,381.33,267.793,385.476Z" transform="translate(-218.141 -265.639)"/>
    <path id="패스_209" data-name="패스 209" class="cls-3" d="M582.079,182.751c-1.983,7.516-8.906,12.206-8.906,12.206s-3.708-7.5-1.725-15.011,8.906-12.206,8.906-12.206S584.061,175.235,582.079,182.751Z" transform="translate(-398.754 -143.667)"/>
    <path id="패스_210" data-name="패스 210" class="cls-3" d="M726.784,196.237c-2.331,7.415-9.465,11.778-9.465,11.778s-3.356-7.66-1.025-15.075,9.465-11.778,9.465-11.778S729.115,188.821,726.784,196.237Z" transform="translate(-480.91 -151.292)"/>
    <path id="패스_211" data-name="패스 211" class="cls-3" d="M881.879,387.691c-4.222,6.527-12.26,8.831-12.26,8.831s-1.194-8.277,3.028-14.8,12.26-8.831,12.26-8.831S886.1,381.165,881.879,387.691Z" transform="translate(-568.398 -260.217)"/>
    <path id="패스_212" data-name="패스 212" class="cls-1" d="M866,206" transform="translate(-566.43 -165.403)"/>
  </g>
</svg>
