<svg xmlns="http://www.w3.org/2000/svg" xmlns:xlink="http://www.w3.org/1999/xlink" width="714.377" height="538.844" viewBox="0 0 714.377 538.844">
  <defs>
    <style>
      .cls-1, .cls-5 {
        fill: #6c63ff;
      }

      .cls-1, .cls-3, .cls-7 {
        opacity: 0.1;
      }

      .cls-2 {
        fill: #fff;
      }

      .cls-31, .cls-4 {
        opacity: 0.2;
      }

      .cls-6 {
        fill: #ffd2c6;
      }

      .cls-8 {
        fill: #626696;
      }

      .cls-9 {
        fill: #ffcde5;
      }

      .cls-10 {
        fill: #985c7e;
      }

      .cls-11 {
        fill: url(#linear-gradient);
      }

      .cls-12 {
        fill: #cc818c;
      }

      .cls-13 {
        fill: #444053;
      }

      .cls-14, .cls-27 {
        opacity: 0.05;
      }

      .cls-15 {
        fill: #ff748f;
      }

      .cls-16, .cls-18 {
        fill: #575988;
      }

      .cls-17 {
        fill: #dce6f2;
      }

      .cls-18 {
        opacity: 0.5;
      }

      .cls-19 {
        fill: #67647e;
      }

      .cls-20 {
        fill: #585268;
      }

      .cls-21 {
        fill: #e4aab4;
      }

      .cls-22 {
        fill: #ffd037;
      }

      .cls-23 {
        fill: #65617d;
      }

      .cls-24 {
        fill: #9d9cb5;
      }

      .cls-25 {
        fill: url(#linear-gradient-2);
      }

      .cls-26 {
        fill: #2d293d;
      }

      .cls-28 {
        fill: #ffcdd3;
      }

      .cls-29 {
        fill: #656691;
      }

      .cls-30 {
        fill: #a8a8a8;
      }
    </style>
    <linearGradient id="linear-gradient" x1="0.877" y1="1" x2="0.877" gradientUnits="objectBoundingBox">
      <stop offset="0" stop-color="gray" stop-opacity="0.251"/>
      <stop offset="0.54" stop-color="gray" stop-opacity="0.122"/>
      <stop offset="1" stop-color="gray" stop-opacity="0.102"/>
    </linearGradient>
    <linearGradient id="linear-gradient-2" x1="0.5" y1="1" x2="0.5" y2="0" xlink:href="#linear-gradient"/>
  </defs>
  <g id="메인_일러스트" data-name="메인 일러스트" transform="translate(-1058.801 -172)">
    <g id="그룹_14" data-name="그룹 14" transform="translate(1058.785 171.996)">
      <path id="패스_1" data-name="패스 1" class="cls-1" d="M501.034,117.291c-30.653,26.02-70.413,24.337-105.255,10.8S328.932,90.449,294.985,73.316a282.988,282.988,0,0,0-88.553-27.989c-43.266-6-91.582,1.326-121.725,43.372-33.569,46.845-30.991,131.335,5.3,174.309,18.471,21.872,42.656,32.608,63.746,49.708s40.621,45.44,38.825,78.406c-1.664,30.488-21,53.93-41.006,68.624-15.462,11.353-34.5,23.754-36.366,47.276-1.8,22.753,14.21,40.588,29.5,50.729,49.88,33.079,111.346,32.761,161.054-.835,17.723-11.99,34-27.936,52.591-37.268,48.813-24.523,102.6.159,154.294,9.193a256.747,256.747,0,0,0,131.229-11.585c25.6-9.166,51.292-23.2,69.273-49.284,12.97-18.823,21.05-42.649,28.632-66.178Q753.909,364.168,765.1,326c4.474-15.277,8.881-30.845,10.041-47.183,2.094-29.613-6.734-58.887-18.757-83.874C727.842,135.6,679.764,93.882,627.7,83.284s-107.151,10.1-147.533,55.395" transform="translate(-61.06 -43.49)"/>
      <ellipse id="타원_1" data-name="타원 1" class="cls-1" cx="150.436" cy="6.866" rx="150.436" ry="6.866" transform="translate(174.036 346.082)"/>
      <path id="패스_2" data-name="패스 2" class="cls-2" d="M473.606,394.451c-75.2,0-136.386-61.181-136.386-136.385S398.381,121.68,473.606,121.68s136.366,61.187,136.366,136.386S548.784,394.451,473.606,394.451Zm0-271.445c-74.476,0-135.06,60.591-135.06,135.06s60.564,135.06,135.06,135.06,135.06-60.591,135.06-135.06-60.611-135.06-135.06-135.06Z" transform="translate(-154.183 -69.856)"/>
      <path id="패스_3" data-name="패스 3" class="cls-2" d="M489.175,379.417A105.779,105.779,0,1,1,594.954,273.639,105.907,105.907,0,0,1,489.175,379.417Zm0-210.232A104.453,104.453,0,1,0,593.628,273.639,104.574,104.574,0,0,0,489.175,169.186Z" transform="translate(-169.753 -85.429)"/>
      <path id="패스_4" data-name="패스 4" class="cls-2" d="M505.905,363.27a72.905,72.905,0,1,1,72.905-72.905A72.905,72.905,0,0,1,505.905,363.27Zm0-144.485a71.58,71.58,0,1,0,71.579,71.58,71.579,71.579,0,0,0-71.579-71.58Z" transform="translate(-186.483 -102.156)"/>
      <ellipse id="타원_2" data-name="타원 2" class="cls-1" cx="9.458" cy="3.128" rx="9.458" ry="3.128" transform="translate(640.059 264.077)"/>
      <ellipse id="타원_3" data-name="타원 3" class="cls-1" cx="55.699" cy="9.14" rx="55.699" ry="9.14" transform="translate(62.644 422.871)"/>
      <g id="그룹_2" data-name="그룹 2" class="cls-3" transform="translate(37.174 178.765)">
        <path id="패스_5" data-name="패스 5" d="M295.95,313.21H126.021a8.908,8.908,0,0,0-8.881,8.881V429.46a8.908,8.908,0,0,0,8.881,8.881h133.3s3.453,18.332-7.894,20.307c0,0,25.411,1.823,20.97-20.307H295.95a8.908,8.908,0,0,0,8.881-8.881V322.091A8.908,8.908,0,0,0,295.95,313.21Z" transform="translate(-117.14 -313.21)"/>
        <g id="그룹_1" data-name="그룹 1" class="cls-4" transform="translate(25.013 28.499)">
          <rect id="사각형_1" data-name="사각형 1" width="137.658" height="8.391" rx="4.195"/>
          <rect id="사각형_2" data-name="사각형 2" width="137.658" height="8.391" rx="4.195" transform="translate(0 37.5)"/>
          <rect id="사각형_3" data-name="사각형 3" width="115.442" height="8.391" rx="4.195" transform="translate(0 56.243)"/>
          <rect id="사각형_4" data-name="사각형 4" width="59.689" height="8.391" rx="4.195" transform="translate(0 18.75)"/>
        </g>
      </g>
      <path id="패스_6" data-name="패스 6" class="cls-2" d="M298.186,312.09H128.251a8.908,8.908,0,0,0-8.881,8.881V428.341a8.908,8.908,0,0,0,8.881,8.881h133.3s3.46,18.332-7.894,20.3c0,0,25.411,1.823,20.97-20.3h23.555a8.9,8.9,0,0,0,8.875-8.881V320.971a8.9,8.9,0,0,0-8.875-8.881Z" transform="translate(-80.718 -134.068)"/>
      <g id="그룹_3" data-name="그룹 3" class="cls-4" transform="translate(63.671 206.522)">
        <rect id="사각형_5" data-name="사각형 5" class="cls-5" width="137.658" height="8.391" rx="4.195"/>
        <rect id="사각형_6" data-name="사각형 6" class="cls-5" width="137.658" height="8.391" rx="4.195" transform="translate(0 37.5)"/>
        <rect id="사각형_7" data-name="사각형 7" class="cls-5" width="115.442" height="8.391" rx="4.195" transform="translate(0 56.25)"/>
        <rect id="사각형_8" data-name="사각형 8" class="cls-5" width="59.689" height="8.391" rx="4.195" transform="translate(0 18.75)"/>
      </g>
      <path id="패스_7" data-name="패스 7" class="cls-6" d="M276.667,303.925l-9.418,20.029s-1.392,3.758-2.287,4.454S260.11,341,260.11,341l-10.094,15.6h0l-.663,1.06-3.977-1.094L242.6,346.184l.172-3.016v-.378s6.25-6.535,7.635-7.032c0,0,1.087.126,3.175-4.938s3.977-6.164,3.977-6.164l1.087-3.672,11.7-18.631s9.809-14.071,12.48-7.827S276.667,303.925,276.667,303.925Z" transform="translate(-122.275 -127.606)"/>
      <path id="패스_8" data-name="패스 8" class="cls-6" d="M221.338,521.24a2.253,2.253,0,0,1-.318.961c-1.087,1.584-7.231,33.994-7.231,33.994.49,2.187-.888,6.548-1.789,8.53s-2.876,12.288-2.876,12.288-.49,22.2-1.776,25.669.411,10.9.411,10.9c-.126,3.42,1.929,7.032,3.148,8.874.093.119.166.239.239.338.4.57.663.895.663.895a5.163,5.163,0,0,0,1.385,1.717c.086.073.179.139.278.212a15.782,15.782,0,0,0,5.554,2.346l.192.04c.8.179,1.326.245,1.326.245l.49,2.651-5.249,1.087-10.008.663s-11.8.895-9.12-4.361a8.318,8.318,0,0,0,.484-1.113h0c.1-.252.192-.517.272-.782,1.611-5.05.524-11.188.524-11.188l-2.306-17.862c-3.758-16.649,2.969-35.187,2.969-35.187s-.59-1.485.7-5.249,0-11.99,0-11.99-.663-10.6-1.584-15.86a32.044,32.044,0,0,1-.358-6.674,33.333,33.333,0,0,1,.358-3.91l22.6-3S221.59,519.138,221.338,521.24Z" transform="translate(-106.05 -202.656)"/>
      <path id="패스_9" data-name="패스 9" class="cls-7" d="M221.9,685.124l-5.249,1.087-10.008.663s-11.8.895-9.12-4.361A8.316,8.316,0,0,0,198,681.4h0c.1-.252.192-.517.272-.782a18.153,18.153,0,0,1,5.965,1.206c3.36,1.326,5.892-2.088,5.892-2.088l1.63-3.115.239-.451c.4.57.663.895.663.895a5.3,5.3,0,0,0,1.664,1.922l-.278.583-1.584,3.314s2.028.205,4.805.663a2.147,2.147,0,0,0,2.611-1.432l.192.04c.8.179,1.326.245,1.326.245Z" transform="translate(-106.939 -256.845)"/>
      <path id="패스_10" data-name="패스 10" class="cls-8" d="M226.318,688.011c-.4,1.783-11.446,2.333-11.446,2.333s-6.151-.6-7.874.842-6.8,1.094-7,1.094-2.87-.106-3.917-4.9c-1.014-4.679,1.365-5.494,1.485-5.534h0a17.978,17.978,0,0,1,6.25,1.213c3.36,1.326,5.892-2.081,5.892-2.081l1.869-3.572c.4.57.663.895.663.895a5.235,5.235,0,0,0,1.664,1.929l-1.862,3.917s2.028.205,4.805.663a2.3,2.3,0,0,0,2.8-2.181,2.251,2.251,0,0,0,0-.3s1.73.5,3.857,1.094A3.977,3.977,0,0,1,226.318,688.011Z" transform="translate(-106.503 -257.26)"/>
      <path id="패스_11" data-name="패스 11" class="cls-6" d="M260.656,543.56c-.265,1.584-.537,5.687-.537,5.687.928,3.433-1.451,11.592-1.451,11.592l-1.186,4.639c.53,5.965-3.267,20.486-3.267,20.486s-2.545,13.481-3.871,19.3a16.046,16.046,0,0,0,.663,9.716c.066.159.106.239.106.239a1.111,1.111,0,0,0,.08.325c.033.106.086.318.139.471a7.158,7.158,0,0,0,1.326,2.214,6.708,6.708,0,0,0,.709.729l.04.04a14.343,14.343,0,0,0,4.215,2.591h0l.663.265a19.92,19.92,0,0,0,2.1.663h0a2.184,2.184,0,0,0,.239.053l-.537,3.115-7-1.79-9.378-3.042L239.07,618.2s.053-.252.146-.736v-.08c.04-.205.08-.451.139-.729.789-4.043,2.585-15.509,1.683-23.926-1.12-10.439,3.228-24.847,4.288-28.281a17.144,17.144,0,0,0,.8-6.078C244.4,555.855,244,545.82,244,545.82s-3.168-6.482-5.793-13.355a35.124,35.124,0,0,1-1.889-6.946,24.288,24.288,0,0,1-.384-5.077s21.288-19.426,23.621-.616c.079.663.152,1.246.225,1.842C261.823,538.861,260.908,542.029,260.656,543.56Z" transform="translate(-120.024 -201.356)"/>
      <path id="패스_12" data-name="패스 12" class="cls-7" d="M262.273,675.31l-.537,3.115-7-1.789-9.378-3.042-4.639-2.651s.053-.252.146-.736v-.08c.04-.205.08-.451.139-.729l.663-.066h.053a8.831,8.831,0,0,1,3.93.53c1.524.577,3.526,1.233,3.937.954a5.012,5.012,0,0,1,2.247-.4l.974-2.134.139-.325a7.08,7.08,0,0,0,1.326,2.214,7.469,7.469,0,0,0,.749.769l-.04.756-.053,1.067a13.642,13.642,0,0,0,3.367,1.557,1.948,1.948,0,0,0,.941,0h0l.663.265a19.939,19.939,0,0,0,2.1.663h0A2.177,2.177,0,0,0,262.273,675.31Z" transform="translate(-121.641 -254.077)"/>
      <path id="패스_13" data-name="패스 13" class="cls-8" d="M258.456,682.362c-1.955-.563-6.668-1.458-7.43-.762s-7.29,0-7.29,0a3.977,3.977,0,0,1-3.374-1.988c-1.326-2.114-.258-8.954-.258-8.954l.484-.046.809-.079h.053a8.728,8.728,0,0,1,3.93.53c1.524.57,3.526,1.226,3.937.955a4.917,4.917,0,0,1,2.247-.4l1.113-2.459A7.158,7.158,0,0,0,254,671.374a7.483,7.483,0,0,0,.749.769l-.093,1.823a13.725,13.725,0,0,0,3.367,1.551,1.325,1.325,0,0,0,1.617-.51,1,1,0,0,0,.119-.272h0a11.382,11.382,0,0,0,2.764.921h0a5.06,5.06,0,0,1,5.395,3.884C268.914,682.574,260.371,682.919,258.456,682.362Z" transform="translate(-121.296 -254.481)"/>
      <path id="패스_14" data-name="패스 14" class="cls-7" d="M222.806,521.229c-.437.126-.835.245-1.206.365a16.721,16.721,0,0,1-2.923.616c-6.25.881-16.569.351-19.837.146a33.335,33.335,0,0,1,.358-3.91l22.6-3S223.058,519.128,222.806,521.229Z" transform="translate(-107.518 -202.646)"/>
      <path id="패스_15" data-name="패스 15" class="cls-8" d="M241.491,500.061s-8.3,1.286-15.045,2.764c-2.253.49-4.335,1-5.872,1.5a18.036,18.036,0,0,1-2.923.616c-7.516,1.054-20.864.08-20.864.08-3.665-11.89,4.454-26.862,4.454-26.862-.192-1.193,1.69-4.852,1.69-4.852l.033-.119,1.153-4.242h30.826l.378,1.823.782,3.712,4.838,22.978Z" transform="translate(-106.505 -186.965)"/>
      <path id="패스_16" data-name="패스 16" class="cls-7" d="M259.781,521.659l-.186.079-3.605,1.6c-3.9,1.8-15.588,2.141-19.671,2.174a24.3,24.3,0,0,1-.384-5.077s21.288-19.426,23.621-.616C259.635,520.486,259.708,521.062,259.781,521.659Z" transform="translate(-120.024 -201.352)"/>
      <path id="패스_17" data-name="패스 17" class="cls-8" d="M250.581,505.442l-.756.331-3.605,1.6c-3.977,1.829-16.032,2.154-19.883,2.174h-1.014c-1.783-.06-3.566-1.73-3.566-2.167,0-.239-.186-1.412-.345-2.419-.133-.809-.252-1.5-.252-1.5s-7.953-3.433-11.99-6.21c-3.029-2.061-2.267-16.708-1.677-24.072.205-2.538.384-4.209.384-4.209l31.2,1.823,4.374.252,2.505.557.663.139s1.789,13.083,2.651,14.17.3,4.759.2,6.846a12.718,12.718,0,0,1-.292,2.651s1.286,3.672.981,5.726A11.419,11.419,0,0,0,250.581,505.442Z" transform="translate(-110.254 -186.972)"/>
      <circle id="타원_4" data-name="타원 4" class="cls-6" cx="12.785" cy="12.785" r="12.785" transform="translate(94.146 184.252)"/>
      <path id="패스_18" data-name="패스 18" class="cls-6" d="M207.655,348.807s.888,12.109-1.584,14.886a110.657,110.657,0,0,1-8.921,8.026l1.988,8.225,11.2,1.292,13.083-13.978-2.976-3.665s-2.28-7.734-.4-11.6S207.655,348.807,207.655,348.807Z" transform="translate(-106.948 -146.434)"/>
      <path id="패스_19" data-name="패스 19" class="cls-7" d="M250.016,381.568h0l-.663,1.06-3.977-1.094L242.6,371.149l.172-3.016.815-1.173s4.361.106,4.169,4.069C247.564,374.509,249.546,380.242,250.016,381.568Z" transform="translate(-122.275 -152.571)"/>
      <path id="패스_20" data-name="패스 20" class="cls-7" d="M246.5,473.311s-3.155.7-6.767,1.173-7.781.709-9.491-.285c-2.87-1.7-18.418-1.213-22.879-1.041a5.1,5.1,0,0,0-.769.033l1.153-4.242h30.826l.378,1.823,4.374.252,2.505.557C246.244,472.608,246.5,473.311,246.5,473.311Z" transform="translate(-110.131 -186.965)"/>
      <path id="패스_21" data-name="패스 21" class="cls-9" d="M222.74,368.15s4.361.1,4.162,4.063,2.379,10.8,2.379,10.8l-.994,2.28s-1.385,5.547-.3,6.939,5.057,1.385,2.777,12.785c0,0-.49,8.523.7,11.3s1.186,9.411,2.969,12.188a66.987,66.987,0,0,1,4.169,9.219s-12.891,2.87-16.258.888-24.085-.974-24.085-.974.1-3.473,0-3.864a3.314,3.314,0,0,1,.5-2.532c.663-.941,1.783-2.525,1.186-3.91s1.491-3.433.4-5.581-2.419-2.578-2.154-3.751a5.084,5.084,0,0,0-1.213-3.751c-.789-.988-6.151-11.466-6.151-11.466l-.888-4.911s-6.9-5.057-6.774-7.436,2.611-5.673,2.611-5.673l6.628-6.515s3.665,3.977,7.231,2.578S210.89,372.8,210.89,372.8s2.744-1.485,2.943-2.572,1.882-.1,1.882-.1,2.479-1.359,2.976-.882a8.6,8.6,0,0,0,2.651.882Z" transform="translate(-102.229 -152.973)"/>
      <path id="패스_22" data-name="패스 22" class="cls-6" d="M170.141,399.3l-2.114,1.65s-2.147,3.871-2.651,10.8a148.018,148.018,0,0,1-2.651,16.742l-4.162,7.443s-6.86,14.362-7.748,18.173-4.958,10.26-4.958,10.26-13.779,12.381-4.162,14.581S151.6,469.1,151.6,469.1s2.247-2.479,2.611-4.162,12.553-23.243,12.553-23.243,4.268-5.8,3.374-8.868c0,0,5.547-13.05,5.547-16.324a57.983,57.983,0,0,0-.888-8.119l.888-6.84Z" transform="translate(-87.097 -163.477)"/>
      <path id="패스_23" data-name="패스 23" class="cls-7" d="M223.4,440.53s-9.716,5.083-11.6,5.349,8.225-1.06,8.225-1.06Z" transform="translate(-111.81 -177.381)"/>
      <path id="패스_24" data-name="패스 24" class="cls-7" d="M231.938,446.51s-12.884,4.361-18.558,3.566C213.406,450.076,227.477,452.753,231.938,446.51Z" transform="translate(-112.421 -179.398)"/>
      <path id="패스_25" data-name="패스 25" class="cls-7" d="M233.2,448.66s-11.6,7.29-18.438,6.1c0,0,15.96,3.175,18.438,1.491l-7.138-1.988S233.994,450.078,233.2,448.66Z" transform="translate(-112.886 -180.123)"/>
      <path id="패스_26" data-name="패스 26" class="cls-7" d="M204.124,306.691c-3.354-.663-7.072-.265-9.756,1.842-1.988,1.564-3.314,3.977-5.547,5.117a32.625,32.625,0,0,1-3.625,1.279,10.459,10.459,0,0,0-6.382,11.267c.351,1.988,1.272,3.778,1.723,5.713.809,3.46.1,7.085-.782,10.525a110.75,110.75,0,0,1-11.035,27.326,2.863,2.863,0,0,0-.55,1.836,2.651,2.651,0,0,0,.663,1.173c4.58,5.3,12.036,7.112,19.035,7.35,2.578.086,5.3,0,7.542-1.253a11.4,11.4,0,0,0,3.678-3.374,17.9,17.9,0,0,0,3.433-11.539c-.192-3.314-1.326-6.687-.471-9.9a2.651,2.651,0,0,1,.6-1.213c.756-.769,1.988-.57,3.075-.7,2.91-.338,4.792-3.407,5.136-6.31s-.384-5.839-.4-8.762a18.352,18.352,0,0,1,3.453-10.79c.968-1.326,2.207-2.651,2.532-4.315.411-2.088-.8-3.625-1.849-5.3-1.624-2.572-2.419-5.574-4.891-7.536a13.2,13.2,0,0,0-5.581-2.439Z" transform="translate(-97.173 -132.148)"/>
      <path id="패스_27" data-name="패스 27" class="cls-10" d="M202.94,305.491c-3.347-.663-7.072-.265-9.756,1.849-1.988,1.557-3.314,3.977-5.547,5.117a32.02,32.02,0,0,1-3.619,1.273A10.465,10.465,0,0,0,177.629,325c.351,1.988,1.273,3.778,1.73,5.72.809,3.46.093,7.078-.782,10.518a110.815,110.815,0,0,1-11.015,27.326,2.8,2.8,0,0,0-.543,1.829,2.551,2.551,0,0,0,.663,1.173c4.586,5.3,12.036,7.112,19.035,7.35,2.578.093,5.3,0,7.542-1.246a11.426,11.426,0,0,0,3.678-3.38,17.9,17.9,0,0,0,3.413-11.512c-.192-3.314-1.326-6.687-.464-9.908a2.651,2.651,0,0,1,.59-1.213c.756-.769,1.988-.57,3.082-.663,2.91-.338,4.785-3.407,5.13-6.316s-.378-5.832-.4-8.762a18.352,18.352,0,0,1,3.446-10.823c.968-1.326,2.2-2.651,2.525-4.321.411-2.088-.8-3.619-1.842-5.3-1.624-2.572-2.419-5.574-4.9-7.529A13.136,13.136,0,0,0,202.94,305.491Z" transform="translate(-96.785 -131.743)"/>
      <path id="패스_28" data-name="패스 28" class="cls-7" d="M214.76,492.62s2.545,11.89,6.774,15.131Z" transform="translate(-112.886 -194.947)"/>
      <g id="그룹_4" data-name="그룹 4" class="cls-3" transform="translate(70.212 185.525)">
        <path id="패스_29" data-name="패스 29" d="M183.944,338.365c-.133-.464-.285-.928-.444-1.385C183.633,337.444,183.785,337.908,183.944,338.365Z" transform="translate(-172.557 -327.986)"/>
        <path id="패스_30" data-name="패스 30" d="M214.537,323.41a4.3,4.3,0,0,1-.053,1.12c-.331,1.677-1.564,2.982-2.532,4.321a18.3,18.3,0,0,0-3.453,10.783c0,2.929.736,5.852.391,8.762s-2.22,5.965-5.13,6.316c-1.074.126-2.326-.08-3.075.663a2.651,2.651,0,0,0-.6,1.213c-.842,3.221.278,6.588.464,9.908a17.9,17.9,0,0,1-3.407,11.512,11.492,11.492,0,0,1-3.678,3.38c-2.273,1.226-4.964,1.326-7.549,1.246-6.88-.232-14.2-1.988-18.8-7.1a1.816,1.816,0,0,0-.113.954,2.552,2.552,0,0,0,.663,1.173c4.586,5.3,12.036,7.112,19.035,7.35,2.578.093,5.3,0,7.542-1.246a11.492,11.492,0,0,0,3.678-3.38,17.9,17.9,0,0,0,3.413-11.512c-.192-3.314-1.326-6.687-.464-9.909a2.651,2.651,0,0,1,.59-1.213c.756-.769,1.988-.57,3.082-.663,2.91-.338,4.785-3.407,5.13-6.316s-.378-5.832-.4-8.762a18.352,18.352,0,0,1,3.446-10.783c.968-1.326,2.2-2.651,2.525-4.321A4.911,4.911,0,0,0,214.537,323.41Z" transform="translate(-166.989 -323.41)"/>
      </g>
      <path id="패스_31" data-name="패스 31" class="cls-5" d="M570.888,807.453s-25.219-1.524-22.243,16.145a4.31,4.31,0,0,0,2.24,4.54s.046-1.326,2.585-.862a11.608,11.608,0,0,0,2.737.133,5.721,5.721,0,0,0,3.354-1.385h0s7.085-2.929,9.842-14.515c0,0,2.041-2.525,1.988-3.175l-4.255,1.816s1.451,3.069.3,5.62c0,0-.133-5.508-.954-5.375-.166,0-2.207,1.06-2.207,1.06s2.5,5.349.61,9.232c0,0,.716-6.588-1.392-8.841l-3,1.743s2.923,5.527.941,10.034c0,0,.51-6.913-1.571-9.6l-2.717,2.114s2.751,5.441,1.074,9.179c0,0-.219-8.046-1.664-8.616a16.306,16.306,0,0,0-2.731,2.949s1.876,3.977.709,6.038c0,0-.716-5.362-1.326-5.382,0,0-2.366,3.552-2.611,5.965a12.911,12.911,0,0,1,2.035-6.329,7.1,7.1,0,0,0-3.619,1.876s.365-2.512,4.2-2.731c0,0,1.988-2.691,2.479-2.857,0,0-3.818-.318-6.131.709,0,0,2.035-2.373,6.833-1.326l2.651-2.187s-5.024-.663-7.158.073c0,0,2.452-2.1,7.88-.57l2.916-1.75a26.492,26.492,0,0,0-6.833-.59s2.691-1.451,7.688.126l2.088-.941s-3.142-.616-4.056-.709-.968-.351-.968-.351a10.845,10.845,0,0,1,5.892.663S570.961,807.732,570.888,807.453Z" transform="translate(-225.399 -301.106)"/>
      <ellipse id="타원_5" data-name="타원 5" class="cls-1" cx="17.848" cy="3.016" rx="17.848" ry="3.016" transform="translate(310.269 525.561)"/>
      <path id="패스_32" data-name="패스 32" class="cls-5" d="M869,774.853s-25.185-1.518-22.243,16.152a4.31,4.31,0,0,0,2.24,4.54s.046-1.325,2.585-.868a11.676,11.676,0,0,0,2.744.133,5.659,5.659,0,0,0,3.347-1.385h0s7.092-2.923,9.842-14.508c0,0,2.041-2.532,1.988-3.181l-4.281,1.856s1.451,3.069.311,5.62c0,0-.139-5.514-.954-5.382-.166,0-2.214,1.06-2.214,1.06s2.5,5.349.616,9.239c0,0,.716-6.588-1.4-8.848l-3,1.75s2.923,5.521.941,10.028c0,0,.51-6.913-1.571-9.6l-2.711,2.1s2.744,5.448,1.067,9.186c0,0-.219-8.053-1.657-8.656a16.625,16.625,0,0,0-2.737,2.956s1.882,3.977.716,6.031c0,0-.716-5.355-1.326-5.382,0,0-2.366,3.552-2.611,5.965a12.889,12.889,0,0,1,2.041-6.329,7.13,7.13,0,0,0-3.625,1.876s.371-2.505,4.208-2.731c0,0,1.988-2.691,2.479-2.857,0,0-3.818-.318-6.137.709,0,0,2.041-2.373,6.833-1.292l2.651-2.187s-5.03-.663-7.158.073c0,0,2.452-2.094,7.88-.57l2.916-1.743a26.251,26.251,0,0,0-6.84-.59s2.691-1.451,7.695.119l2.088-.934s-3.142-.616-4.063-.716-.968-.351-.968-.351a10.866,10.866,0,0,1,5.9.663S869.081,775.132,869,774.853Z" transform="translate(-325.933 -290.113)"/>
      <ellipse id="타원_6" data-name="타원 6" class="cls-1" cx="17.848" cy="3.016" rx="17.848" ry="3.016" transform="translate(507.849 503.954)"/>
      <ellipse id="타원_7" data-name="타원 7" class="cls-1" cx="51.398" cy="8.43" rx="51.398" ry="8.43" transform="translate(510.699 281.09)"/>
      <path id="패스_33" data-name="패스 33" class="cls-11" d="M931.046,181.743a27.592,27.592,0,0,0,0-14.091v-6.628s2.4-13-8.285-21.335l-7.092-6.25s-3.977-3.407-5.123-3.625a5.2,5.2,0,0,0-.663-.1l-.212-.119a21.329,21.329,0,0,1-1.551-3.267,3.029,3.029,0,0,0,2.525-.862,3.313,3.313,0,0,0,.6-.994h0c.411-.921.477-2.035.829-3.016a7.035,7.035,0,0,1,1.326-2.167c-.073.119-.146.232-.212.351,1-1.246,2.313-2.32,3.248-3.639a7.913,7.913,0,0,0,.517-.809l-.139.166c1.326-2.094,1.7-4.639,2.081-7.078a6.388,6.388,0,0,0,.04-2.532,8.435,8.435,0,0,0-.709-1.6c-1.538-3.181-1.5-7.171-3.977-9.71-1.849-1.9-4.639-2.485-7.29-2.81s-5.415-.51-7.682-1.9a8.317,8.317,0,0,0-2.081-1.147,1.717,1.717,0,0,0-2.048.762,1.327,1.327,0,0,1-.272.55.882.882,0,0,1-.789.046L890.57,89l.04.179h-.086l.126.557a.309.309,0,0,1,.331.192l-.563.868a8.7,8.7,0,0,1-3.175-.663,1.5,1.5,0,0,0,0,.172H887.2c-.066.994,1.06,1.637,1.4,2.572a1.947,1.947,0,0,1,0,1.259,2.861,2.861,0,0,1-.663,1.007c-1.253,1.233-2.843.988-4.282,1.77a.914.914,0,0,0-.523.577.444.444,0,0,0-.047.318.743.743,0,0,0,.292.365,6.632,6.632,0,0,0,1.365.848l-.411.4a15.734,15.734,0,0,0,5.435,25.656c.053.272.093.55.133.848V126l.04.378L885.2,128.37a3.771,3.771,0,0,1-3.393-2.18c-1.1-2.28-4.991,0-4.991,0s-11.884-.895-16.278,1.292c0,0-7.092-2.976-8.086-3.175s-2.5-.994-3.2-.8-1.6-1.326-2.094-1.193-.663-.988-2.293-1.385-2.2.1-3.977-1.69-16.377-8.828-16.377-8.828l-6.588-5.362L810.931,99.5l-.126.232c-.04-.166-.086-.338-.133-.517a66.278,66.278,0,0,0-2.591-8.152c-.451-1.074-.663-2.432-1.253-1.717-.371.431-1.008-.51-1.988-1.147a1.65,1.65,0,0,0-2.466.716h0c-5.441,8.53-7.39,9.146-4.235,12.268,2.8,2.784,4.673,5.243,6.966,5.965l.272.086a.384.384,0,0,1-.152,0l13.255,15.873s9.584,8.338,16.178,11.015,6.091,3.473,6.091,3.473,19.969,10.121,23.064,9.942,2.5,20.738,1.2,24.112-3.393,27.783-3.393,27.783-1.988,5.156.1,8.729c0,0,.464,6.84.046,8.477-1.823,2.8-4.414,7.562-4.838,12.46a7.137,7.137,0,0,1-.079.756,1.717,1.717,0,0,1-.471.384s.172-.04.444-.133a25.18,25.18,0,0,1-1.326,5.965,24.305,24.305,0,0,0-1.63,8.616v15.767l-1.319,9.776s-1.6,7.4,0,9.126a4.2,4.2,0,0,1,.875,3.042,5.633,5.633,0,0,0,1.021,3.546,2.691,2.691,0,0,1,.663,2.28c-.53,1.717.782,19.969.782,19.969s-.384,5.03-.915,5.3.888,5.779.888,5.779-5.4,4.5-4.023,6.886l1.379,2.114-.365.358-.225.225a2.1,2.1,0,0,0-1.372-.258,51.446,51.446,0,0,1-5.428,4.832c-2.432,1.756-9.053,4.3-9.053,4.3l-5.223.424h-.1s-2.5-.232-1.1,3.639,13.918,2.651,13.918,2.651l7.291-1.153s13.043.06,16.775-.762c1.564-.351,1.935-1.18,1.836-2.028h0l-.04-.04a5.21,5.21,0,0,0-1.067-2.194,1.026,1.026,0,0,0-.093-.113l.239-2.651c5.534-3.188-1.564-9.464-1.564-9.464a63.275,63.275,0,0,1,3.678-7.005c1.253-1.7,1.246-26.988,1.246-26.988s.663-9.133-1.067-11.267a3.811,3.811,0,0,1,1.862-3.44c1.233-.842,4.957-12.434,7.88-22.057l1.843,11.34s-.4,5.422.8,7.012a2.7,2.7,0,0,1,.49,2.108,9.377,9.377,0,0,0,.272,4.593,2.97,2.97,0,0,0,.961,1.63c1.067.53,1.133,2.419,1.531,2.817s2.863-.563,3,.888a32.457,32.457,0,0,1,0,3.837l.8,23.548s-1.326,1.988-1.6,7.145a9.235,9.235,0,0,1-.961,4.215,2.154,2.154,0,0,0,.2,2.532l.232.265-.987.762a2.154,2.154,0,0,0-.61,2.651,2.127,2.127,0,0,0-.616,2.287,2.638,2.638,0,0,0,.172.371,3.731,3.731,0,0,0-1.988.981,16.3,16.3,0,0,1-3.513,3.539,66.218,66.218,0,0,0-5.607,4.8,8.045,8.045,0,0,1-3.274,2.651,5.3,5.3,0,0,1-.988.292c-2.651.537-1.8,3.281.331,3.711s9.186,2.611,14.68,1.326a5.13,5.13,0,0,0,4.023-.557,55.394,55.394,0,0,1,7.84-2.651s3,0,3.393-1.193a4.567,4.567,0,0,0,.172-1.16l.086-.08-.08-.073a15.616,15.616,0,0,0-.206-2.651c-.073-.451-.159-.862-.238-1.186-.258-.994-.729-2.273-.934-2.817a1.008,1.008,0,0,0,.093-.139c1.14-1.929-.756-6.628-.756-6.628a12.666,12.666,0,0,1,2.26-2.651c1.067-.789,3.864-21.427,3.864-21.427s-.133-5.3,1.326-7.675-1.988-16.8-1.988-16.8-1.465-3.314-.928-4.5-.537-5.554-.537-5.554v-5.209a5.721,5.721,0,0,0-.3-1.829c-.411-1.226-1.021-3.579-.358-5.3.935-2.379,3.062-17.066,3.062-17.066s-1.664-6.475.769-11.632a11.116,11.116,0,0,1,.663-1.2c1.8-2.837,1.266-7.874.378-11.93-.139-.63-.285-1.233-.431-1.809-.066-.245-.133-.477-.192-.709l.285-.119a8.923,8.923,0,0,1,.086-1.047,7.291,7.291,0,0,0,4.805-3.314s6.091-6.846,11.486-9.723,5.793-7.045,5.793-7.045c-.8-1.392,1.425-7.045,1.425-7.045ZM909.837,129.795Zm3.665,61.075-5.766,6.687a.14.14,0,0,1,0-.04c-1.5-2.081,1.4-6.747,1.4-6.747l4.765-10.677a6.457,6.457,0,0,1-.623,3.155c-1.326,1.789,2.393,4.765,2.393,4.765-1.995-.02-2.194,2.857-2.194,2.857Z" transform="translate(-309.107 -58.466)"/>
      <path id="패스_34" data-name="패스 34" class="cls-12" d="M812.7,104.328l-3.141,6.1a12.162,12.162,0,0,1-2.929-.61,11.114,11.114,0,0,1-6.88-5.965c-2.81-6.217,1.842-10.233,4.01-11.413s4.175-2.538,5.8,1.326a67.237,67.237,0,0,1,2.558,8.1C812.479,103.341,812.7,104.328,812.7,104.328Z" transform="translate(-309.866 -59.583)"/>
      <path id="패스_35" data-name="패스 35" class="cls-12" d="M958.03,149.036l-5.024,7.5s-23.767,11.333-19.22-1.988c1.988-5.866,2.234-10.16,1.876-13.13v-.08c-.464-3.712-1.862-5.3-1.862-5.3s23.164-11.85,19.717-3.745a11.268,11.268,0,0,0-.822,5.335,18.172,18.172,0,0,0,2.5,7.4,24.529,24.529,0,0,0,2.837,4.01Z" transform="translate(-355.166 -72.477)"/>
      <path id="패스_36" data-name="패스 36" class="cls-13" d="M932.846,347.135s3.42,14.329,1.988,16.7-1.326,7.622-1.326,7.622-2.764,20.513-3.818,21.3a12.59,12.59,0,0,0-2.233,2.651s1.876,4.639.749,6.561a1.558,1.558,0,0,1-.749.663c-1.763.742-8.271-2.552-11.976-4.573a2.041,2.041,0,0,1-.981-1.173,2.088,2.088,0,0,1,.6-2.267,2.161,2.161,0,0,1,.6-2.651l.974-.756-.225-.265a2.154,2.154,0,0,1-.2-2.519,9.293,9.293,0,0,0,.948-4.182c.265-5.13,1.577-7.1,1.577-7.1l-.789-23.4a33.608,33.608,0,0,0,0-3.811c-.133-1.445-2.565-.49-2.956-.888s-.464-2.267-1.511-2.8a2.943,2.943,0,0,1-.954-1.617,9.425,9.425,0,0,1-.272-4.567,2.691,2.691,0,0,0-.484-2.094c-1.186-1.577-.789-6.966-.789-6.966l-1.816-11.267c-2.89,9.564-6.568,21.083-7.781,21.918a3.791,3.791,0,0,0-1.843,3.42c1.71,2.1,1.054,11.174,1.054,11.174s0,25.106-1.233,26.816a65.348,65.348,0,0,0-3.632,6.966s7.045,6.27,1.5,9.431l-.06.033c-5.653,3.155-17.351-5.647-17.351-5.647l1.22-1.22.358-.358-1.326-2.108c-1.359-2.366,3.977-6.833,3.977-6.833s-1.418-5.521-.895-5.786.895-5.262.895-5.262-1.292-18.14-.769-19.843a2.651,2.651,0,0,0-.623-2.267,5.661,5.661,0,0,1-1.008-3.519,4.188,4.188,0,0,0-.862-3.022c-1.577-1.71,0-9.073,0-9.073l1.326-9.729v-15.5a24.523,24.523,0,0,1,1.591-8.7,26.243,26.243,0,0,0,1.432-7c.431-4.984,3.108-9.829,4.911-12.593.954-1.458,1.664-2.333,1.664-2.333l42.066-1.65s.663,1.876,1.326,4.48c.146.57.292,1.166.424,1.8.881,4.043,1.412,9.047-.371,11.87a9.364,9.364,0,0,0-.663,1.186c-2.406,5.123-.762,11.559-.762,11.559s-2.1,14.581-3.022,16.96c-.663,1.677-.053,4.016.358,5.236a5.827,5.827,0,0,1,.3,1.816v5.176s1.054,4.335.53,5.521S932.846,347.135,932.846,347.135Z" transform="translate(-337.179 -122.255)"/>
      <path id="패스_37" data-name="패스 37" class="cls-7" d="M960.474,298.96a10.916,10.916,0,0,0-.663,1.186l-2.366-.133c.225-1.22-1.385-12.652-1.385-12.652l4.772-.272C961.72,291.159,962.257,296.17,960.474,298.96Z" transform="translate(-362.873 -125.637)"/>
      <path id="패스_38" data-name="패스 38" class="cls-13" d="M961.064,298.41a9.337,9.337,0,0,0-.663,1.186l-2.373-.133c.232-1.219-1.379-12.659-1.379-12.659l4.765-.265C962.317,290.583,962.847,295.587,961.064,298.41Z" transform="translate(-363.072 -125.452)"/>
      <path id="패스_39" data-name="패스 39" class="cls-14" d="M961.064,298.41a9.337,9.337,0,0,0-.663,1.186l-2.373-.133c.232-1.219-1.379-12.659-1.379-12.659l4.765-.265C962.317,290.583,962.847,295.587,961.064,298.41Z" transform="translate(-363.072 -125.452)"/>
      <path id="패스_40" data-name="패스 40" class="cls-7" d="M945.826,462.882a1.557,1.557,0,0,1-.749.663c-1.763.742-8.271-2.552-11.976-4.573a2.042,2.042,0,0,1-.981-1.173c2.108-.384,3.493,1.988,3.493,1.988a3.108,3.108,0,0,1,4.335,1.054c1.809,2.651,5.686,1.538,5.686,1.538S945.713,462.557,945.826,462.882Z" transform="translate(-354.799 -183.19)"/>
      <path id="패스_41" data-name="패스 41" class="cls-15" d="M938.453,471.137c-.4,1.18-3.354,1.18-3.354,1.18a62.969,62.969,0,0,0-7.662,2.7,5.238,5.238,0,0,1-3.977.557c-5.428,1.253-12.394-.915-14.495-1.326s-2.929-3.155-.331-3.678a5.192,5.192,0,0,0,.974-.3,7.915,7.915,0,0,0,3.234-2.651,67.059,67.059,0,0,1,5.534-4.772,16.015,16.015,0,0,0,3.473-3.513c3.089-2.731,5.3,1.021,5.3,1.021a3.108,3.108,0,0,1,4.334,1.054c1.809,2.651,5.687,1.538,5.687,1.538s.663,1.776,1.021,3.055c.08.325.166.736.239,1.186A10.372,10.372,0,0,1,938.453,471.137Z" transform="translate(-346.332 -183.386)"/>
      <circle id="타원_8" data-name="타원 8" class="cls-16" cx="0.365" cy="0.365" r="0.365" transform="translate(582.716 278.711)"/>
      <circle id="타원_9" data-name="타원 9" class="cls-16" cx="0.365" cy="0.365" r="0.365" transform="translate(579.627 281.601)"/>
      <circle id="타원_10" data-name="타원 10" class="cls-16" cx="0.365" cy="0.365" r="0.365" transform="translate(576.485 284.199)"/>
      <circle id="타원_11" data-name="타원 11" class="cls-16" cx="0.365" cy="0.365" r="0.365" transform="translate(578.109 283.039)"/>
      <circle id="타원_12" data-name="타원 12" class="cls-16" cx="0.365" cy="0.365" r="0.365" transform="translate(581.238 280.063)"/>
      <path id="패스_42" data-name="패스 42" class="cls-17" d="M938.453,475.64c-.4,1.18-3.354,1.18-3.354,1.18a62.962,62.962,0,0,0-7.662,2.7,5.238,5.238,0,0,1-3.977.557c-5.428,1.253-12.394-.915-14.495-1.326s-2.929-3.155-.331-3.678a5.19,5.19,0,0,0,.974-.3,25.187,25.187,0,0,0,7.112,1.326c5.355.225,9.6,0,9.6,0l5.422-1.743a9.074,9.074,0,0,1,3.354-1.22,8.615,8.615,0,0,0,3.314-1.445A10.37,10.37,0,0,1,938.453,475.64Z" transform="translate(-346.332 -187.889)"/>
      <path id="패스_43" data-name="패스 43" class="cls-18" d="M933.631,480.271a4.476,4.476,0,0,1-.9-.093l.079-.384a5.693,5.693,0,0,0,3.248-.451,15.573,15.573,0,0,0,1.438-.663,16.7,16.7,0,0,1,1.71-.749l.537-.186c.3-.1.6-.2.881-.325.166-.066.325-.146.484-.219a5.4,5.4,0,0,1,1.22-.464,5.675,5.675,0,0,1,.663-.086,5.621,5.621,0,0,0,.6-.073,5.174,5.174,0,0,0,1.14-.424,5.535,5.535,0,0,1,1.226-.451l.292-.053a1.4,1.4,0,0,0,.848-.312l.285.272a1.77,1.77,0,0,1-1.074.431l-.272.046a5.182,5.182,0,0,0-1.14.424,5.532,5.532,0,0,1-1.226.451,4.37,4.37,0,0,1-.663.08,5.759,5.759,0,0,0-.616.08,5.011,5.011,0,0,0-1.127.437l-.5.225c-.3.126-.61.232-.915.331l-.524.186c-.57.212-1.133.477-1.683.729s-.961.457-1.458.663a7.013,7.013,0,0,1-2.552.577Z" transform="translate(-355.005 -189.12)"/>
      <path id="패스_44" data-name="패스 44" class="cls-7" d="M936,381.974s2.731-3.977,7.4-3.91a25.324,25.324,0,0,0,6.668-.524,16.554,16.554,0,0,1-5.057,1.988A85.451,85.451,0,0,0,936,381.974Z" transform="translate(-356.108 -156.139)"/>
      <path id="패스_45" data-name="패스 45" class="cls-7" d="M938.38,384.615s2.465-1.71,3.877-1.776,2.651-.2,2.651-.2a7.487,7.487,0,0,1-2.167,1.054C941.535,384.025,938.38,384.615,938.38,384.615Z" transform="translate(-356.91 -157.859)"/>
      <path id="패스_46" data-name="패스 46" class="cls-7" d="M939.17,387.4s3.718.3,3.751,1.286" transform="translate(-357.177 -159.464)"/>
      <path id="패스_47" data-name="패스 47" class="cls-7" d="M887,300.242c.192.033,3.506-3.453,3.738-4.832a3.38,3.38,0,0,1,1.445-2.121s2.141.855.232,3.473A10.616,10.616,0,0,1,887,300.242Z" transform="translate(-339.584 -127.728)"/>
      <path id="패스_48" data-name="패스 48" class="cls-7" d="M953.788,132.23c-.756,1.789-1.425,1.922-1.279,3.659a13.176,13.176,0,0,1-3.009,2.366c-2.353,1.4-4.911,4.129-7.841,4.129a15.542,15.542,0,0,1-5.726-1.08c-.464-3.712-1.862-5.3-1.862-5.3S957.221,124.124,953.788,132.23Z" transform="translate(-355.457 -72.459)"/>
      <path id="패스_49" data-name="패스 49" class="cls-12" d="M953.219,116.175A15.675,15.675,0,1,1,937.544,100.5,15.675,15.675,0,0,1,953.219,116.175Z" transform="translate(-351.343 -62.714)"/>
      <path id="패스_50" data-name="패스 50" class="cls-7" d="M958.03,155.122l-5.024,7.5s-23.767,11.333-19.22-1.988c1.988-5.866,2.234-10.16,1.876-13.13h.04a12.427,12.427,0,0,1,.471,3.022c.073,2.041.126,4.639,5.2,5.488A14.18,14.18,0,0,0,955.18,151.1,24.521,24.521,0,0,0,958.03,155.122Z" transform="translate(-355.166 -78.564)"/>
      <path id="패스_51" data-name="패스 51" class="cls-7" d="M816.513,109.715l-3.142,6.1a12.162,12.162,0,0,1-2.929-.61l-.272-.325c1.286.49,5.62-7.695,5.62-7.695l.139.113C816.287,108.728,816.513,109.715,816.513,109.715Z" transform="translate(-313.675 -64.97)"/>
      <path id="패스_52" data-name="패스 52" class="cls-7" d="M940.2,281.557c-10.147,4.407-45.261.663-45.261.663a4.432,4.432,0,0,0,.179-1.147c.954-1.458,1.664-2.333,1.664-2.333l42.066-1.65S939.531,278.952,940.2,281.557Z" transform="translate(-342.261 -122.265)"/>
      <path id="패스_53" data-name="패스 53" class="cls-19" d="M894.456,134.473l-4.679,1.988a3.738,3.738,0,0,1-3.354-2.174c-1.08-2.267-4.924,0-4.924,0s-11.738-.888-16.072,1.286c0,0-7-2.963-7.953-3.155s-2.465-.988-3.155-.789-1.577-1.286-2.068-1.186-.7-.988-2.273-1.379-2.167.1-3.944-1.677-16.165-8.775-16.165-8.775l-6.508-5.3-6.9-5.521s-4.341,8.179-5.62,7.688l13.11,15.774s9.464,8.285,15.973,10.942,6.011,3.453,6.011,3.453,19.724,10.054,22.78,9.862,2.466,20.606,1.18,23.959-3.347,27.6-3.347,27.6-1.988,5.123.093,8.676c0,0,.5,7.291,0,8.576,0,0,35.332,3.778,45.354-.663,0,0,1.478-16.364,0-18.438s1.385-6.7,1.385-6.7l6.263-14.13L935,168.9s2.366-12.917-8.179-21.209l-7.006-6.21s-3.917-3.387-5.057-3.6-.722,0-.722,0a14.18,14.18,0,0,1-13.918,5.077c-5.077-.855-5.13-3.44-5.2-5.488A12.432,12.432,0,0,0,894.456,134.473Z" transform="translate(-313.901 -65.172)"/>
      <path id="패스_54" data-name="패스 54" class="cls-7" d="M952.807,228.13s-21.693.888-26.027,7.695c0,0,5.62-2.651,10.644-1.876S952.807,228.13,952.807,228.13Z" transform="translate(-352.999 -105.754)"/>
      <path id="패스_55" data-name="패스 55" class="cls-7" d="M929.9,261.494s10.253.663,12.427-1.478,2.174-3.446,2.174-3.446Z" transform="translate(-354.051 -115.345)"/>
      <path id="패스_56" data-name="패스 56" class="cls-7" d="M967.463,196.6s-8.676,10.253,1.876,14.687Z" transform="translate(-365.587 -95.121)"/>
      <path id="패스_57" data-name="패스 57" class="cls-7" d="M891.67,166.7s3.155,6.436,4.732,6.866Z" transform="translate(-341.159 -85.038)"/>
      <path id="패스_58" data-name="패스 58" class="cls-7" d="M875.61,162.53s7.887,7.1,9.365,7.788C884.975,170.318,876.79,162.53,875.61,162.53Z" transform="translate(-335.743 -83.632)"/>
      <path id="패스_59" data-name="패스 59" class="cls-7" d="M920.86,152.27s-7.6,11.333-2.651,18.24C918.169,170.51,915.439,162.324,920.86,152.27Z" transform="translate(-349.544 -80.172)"/>
      <path id="패스_60" data-name="패스 60" class="cls-12" d="M939.421,278.63l-2.32,2.181-.325.3-2.684,2.538c-.2.146-.385.292-.577.424-10.936,7.841-13.13-4.069-13.13-4.069s-4.832,3.155-5.521.59,11.267-6.21,13.01-6.011a2.3,2.3,0,0,0,.477,0,7.494,7.494,0,0,0,2.452-.868c.179-.093.358-.186.53-.285a19.654,19.654,0,0,0,1.77-1.113Z" transform="translate(-348.971 -120.656)"/>
      <path id="패스_61" data-name="패스 61" class="cls-7" d="M956.092,116.174a15.675,15.675,0,0,1-7.664,13.475,9.136,9.136,0,0,1-.568-1.141c-.563-1.326-.908-2.711-1.471-4.023a12.554,12.554,0,0,0-2.651-3.837,1.677,1.677,0,0,0-.663-.484,1.9,1.9,0,0,0-1.438.4,6.506,6.506,0,0,1-2.187.961,2.326,2.326,0,0,1-2.194-.663,3.288,3.288,0,0,1-.345-2.737A33.98,33.98,0,0,0,937.932,112c0-2.074-.782-4.315-2.585-5.342-1.591-.9-3.566-.663-5.335-1.16a5.745,5.745,0,0,1-.8-.278,15.681,15.681,0,0,1,26.9,10.949Z" transform="translate(-353.818 -62.713)"/>
      <path id="패스_62" data-name="패스 62" class="cls-20" d="M927.313,99.627c-.285.152-.6.424-.51.742a.73.73,0,0,0,.285.365,6.787,6.787,0,0,0,2.479,1.273c1.77.477,3.751.252,5.342,1.16,1.8,1.027,2.591,3.261,2.585,5.335a35.739,35.739,0,0,1-1.027,6.117,3.315,3.315,0,0,0,.351,2.744,2.34,2.34,0,0,0,2.194.663,6.462,6.462,0,0,0,2.18-.954,1.889,1.889,0,0,1,1.438-.4,1.748,1.748,0,0,1,.7.477,12.447,12.447,0,0,1,2.651,3.844c.57,1.326.915,2.7,1.471,4.023a6.488,6.488,0,0,0,2.651,3.274,3.314,3.314,0,0,0,3.977-.418c.915-1.007.888-2.532,1.326-3.824.782-2.234,2.969-3.639,4.334-5.567,1.538-2.167,1.988-4.9,2.379-7.529a6.326,6.326,0,0,0,.04-2.519,9.128,9.128,0,0,0-.7-1.591c-1.524-3.155-1.491-7.125-3.924-9.65-1.829-1.889-4.6-2.466-7.211-2.784s-5.349-.517-7.589-1.889a8.353,8.353,0,0,0-2.055-1.14,1.69,1.69,0,0,0-2.021.756,1.327,1.327,0,0,1-.272.55.862.862,0,0,1-.769.046l-3.473-.935.4,1.75a8.669,8.669,0,0,1-3.685-.663c-.066.988,1.047,1.63,1.392,2.552a2.36,2.36,0,0,1-.663,2.406C930.309,99.1,928.731,98.852,927.313,99.627Z" transform="translate(-353.001 -59.607)"/>
      <path id="패스_63" data-name="패스 63" class="cls-7" d="M897.42,456.626l-.139,1.577-.06.033c-5.653,3.155-17.351-5.647-17.351-5.647l1.22-1.22a2.122,2.122,0,0,1,.53,1.644l2.393.133,2.857,3.089s7.735.895,9.829.391Z" transform="translate(-337.179 -181.037)"/>
      <path id="패스_64" data-name="패스 64" class="cls-15" d="M885.549,465.189c-3.678.815-16.569.756-16.569.756l-7.2,1.147s-12.387,1.186-13.766-2.651,1.08-3.612,1.08-3.612h.093l5.156-.418s6.542-2.532,8.941-4.275a51.569,51.569,0,0,0,5.355-4.8s2.154-.418,2.114,2.074l2.393.133,2.857,3.082s7.735.9,9.829.4h.722l-.331,3.811.093.119C886.775,461.543,888.837,464.453,885.549,465.189Z" transform="translate(-326.296 -181.016)"/>
      <circle id="타원_13" data-name="타원 13" class="cls-16" cx="0.365" cy="0.365" r="0.365" transform="translate(545.541 274.231)"/>
      <circle id="타원_14" data-name="타원 14" class="cls-16" cx="0.365" cy="0.365" r="0.365" transform="translate(536.275 278.254)"/>
      <circle id="타원_15" data-name="타원 15" class="cls-16" cx="0.365" cy="0.365" r="0.365" transform="translate(531.503 279.705)"/>
      <circle id="타원_16" data-name="타원 16" class="cls-16" cx="0.365" cy="0.365" r="0.365" transform="translate(538.707 277.485)"/>
      <circle id="타원_17" data-name="타원 17" class="cls-16" cx="0.365" cy="0.365" r="0.365" transform="translate(533.883 278.983)"/>
      <circle id="타원_18" data-name="타원 18" class="cls-16" cx="0.365" cy="0.365" r="0.365" transform="translate(541.166 276.345)"/>
      <circle id="타원_19" data-name="타원 19" class="cls-16" cx="0.365" cy="0.365" r="0.365" transform="translate(543.599 275.291)"/>
      <path id="패스_65" data-name="패스 65" class="cls-17" d="M885.549,470.03c-3.678.815-16.569.756-16.569.756l-7.2,1.147s-12.387,1.186-13.766-2.651,1.08-3.612,1.08-3.612h.093c.789,1.021,2.373,2.187,5.488,2.24l8.908.365,9.232-.663s8.616-.265,10.054-.557a20.9,20.9,0,0,0,3.447-1.266C886.775,466.385,888.837,469.294,885.549,470.03Z" transform="translate(-326.296 -185.858)"/>
      <path id="패스_66" data-name="패스 66" class="cls-18" d="M869.258,472.11a5.812,5.812,0,0,1-1.458-.179l.133-.358a7.152,7.152,0,0,0,3.672-.166c.437-.113.868-.239,1.326-.371a15.032,15.032,0,0,1,6.4-.722h.285a60.539,60.539,0,0,0,11.83-.53,4.4,4.4,0,0,0,2.532-1.014l.285.278a4.8,4.8,0,0,1-2.751,1.127,61.456,61.456,0,0,1-11.93.53H879.3a19.351,19.351,0,0,0-3.917.113,20.357,20.357,0,0,0-2.353.59c-.437.133-.875.265-1.326.378a9.854,9.854,0,0,1-2.446.325Z" transform="translate(-333.109 -186.904)"/>
      <path id="패스_67" data-name="패스 67" class="cls-7" d="M947.816,278.63l-2.32,2.181-5.766-7.377a19.612,19.612,0,0,0,1.77-1.113Z" transform="translate(-357.366 -120.656)"/>
      <path id="패스_68" data-name="패스 68" class="cls-19" d="M973.733,190.5l4.533,6.31v6.628a27.6,27.6,0,0,1,0,14l.232,6.111s-2.2,5.62-1.412,7c0,0-.4,4.142-5.72,7.005s-11.34,9.61-11.34,9.61-2.266,4.341-8.377,3.354l-5.819,2.466-6.7-8.576,9.067-4.931s3.155-4.242,5.031-4.043l7.688-8.954s.2-2.857,2.167-2.857c0,0-3.645-2.956-2.366-4.732s.2-9.663.2-9.663Z" transform="translate(-357.163 -93.064)"/>
      <path id="패스_69" data-name="패스 69" class="cls-7" d="M978.55,233.819s10.352-.192,11.632,2.466S981.7,232.341,978.55,233.819Z" transform="translate(-370.457 -107.599)"/>
      <path id="패스_70" data-name="패스 70" class="cls-7" d="M943.69,281.306a2.722,2.722,0,0,1-.04.517,3.486,3.486,0,0,1-3.261,2.963H940.2a3.48,3.48,0,0,1-3.48-3.48,3.563,3.563,0,0,1,.192-1.133c-1.644-1.326-1.73-3.7-1.69-4.885a7.494,7.494,0,0,0,2.452-.868,16.3,16.3,0,0,0,1.717,3.506,3.315,3.315,0,0,1,.809-.1,3.48,3.48,0,0,1,3.486,3.48Z" transform="translate(-355.845 -121.364)"/>
      <path id="패스_71" data-name="패스 71" class="cls-16" d="M938.19,273.26s-2.333.524-2.333.948-.524,4.275,2.035,5.852,2.306-2.2,2.306-2.2S937.992,274.473,938.19,273.26Z" transform="translate(-356.045 -120.973)"/>
      <circle id="타원_20" data-name="타원 20" class="cls-21" cx="3.486" cy="3.486" r="3.486" transform="translate(581.271 156.456)"/>
      <circle id="타원_21" data-name="타원 21" class="cls-17" cx="2.989" cy="2.989" r="2.989" transform="translate(581.768 156.953)"/>
      <path id="패스_72" data-name="패스 72" class="cls-7" d="M922.832,286.84a17.265,17.265,0,0,0,16.828,2.24v2.956s-6.31,4.335-12.029,1.71S922.832,286.84,922.832,286.84Z" transform="translate(-351.649 -125.553)"/>
      <path id="패스_73" data-name="패스 73" class="cls-7" d="M922.832,285.65a17.249,17.249,0,0,0,16.828,2.22v2.956s-6.31,4.335-12.029,1.71S922.832,285.65,922.832,285.65Z" transform="translate(-351.649 -125.151)"/>
      <path id="패스_74" data-name="패스 74" class="cls-13" d="M922.832,285.65a17.249,17.249,0,0,0,16.828,2.22v2.956s-6.31,4.335-12.029,1.71S922.832,285.65,922.832,285.65Z" transform="translate(-351.649 -125.151)"/>
      <path id="패스_75" data-name="패스 75" class="cls-14" d="M923.134,285.65a17.265,17.265,0,0,0,16.828,2.24v2.956s-6.33,4.315-12.029,1.71S923.134,285.65,923.134,285.65Z" transform="translate(-351.751 -125.151)"/>
      <path id="패스_76" data-name="패스 76" class="cls-7" d="M888,451.32s9.862,1.809,11.307,2.2-.4,1.087-.4,1.087S889.876,453,888,451.32Z" transform="translate(-339.921 -181.02)"/>
      <path id="패스_77" data-name="패스 77" class="cls-7" d="M887.61,440.9c.159,0,6.7-1.842,8.112-5" transform="translate(-339.789 -175.82)"/>
      <path id="패스_78" data-name="패스 78" class="cls-7" d="M902,386.508s2.651,3.486,4.361,3.387S903.557,386.376,902,386.508Z" transform="translate(-344.642 -159.162)"/>
      <path id="패스_79" data-name="패스 79" class="cls-7" d="M904.22,395.24s1.114,2.466,2.757,1.677" transform="translate(-345.391 -162.108)"/>
      <path id="패스_80" data-name="패스 80" class="cls-14" d="M913.59,313.556l6.992,18.438s.987-11.864-1.1-15.416a6.157,6.157,0,0,0-5.892-3.022Z" transform="translate(-348.551 -134.553)"/>
      <g id="그룹_5" data-name="그룹 5" class="cls-3" transform="translate(573.716 32.338)">
        <path id="패스_81" data-name="패스 81" d="M938.956,92.843l-.06-.265-1.127-.3.126.55a8.072,8.072,0,0,0,1.06.013Z" transform="translate(-930.42 -92.28)"/>
        <path id="패스_82" data-name="패스 82" d="M934.187,97.847l.119-.106a2.352,2.352,0,0,0,.663-2.4,3.251,3.251,0,0,0-.557-.895,8.619,8.619,0,0,1-1.624-.477c-.066.988,1.047,1.624,1.392,2.552A1.988,1.988,0,0,1,934.187,97.847Z" transform="translate(-928.74 -92.85)"/>
        <path id="패스_83" data-name="패스 83" d="M950.752,131.484a6.515,6.515,0,0,1-2.651-3.274c-.563-1.326-.9-2.717-1.471-4.023a12.361,12.361,0,0,0-2.651-3.837,1.676,1.676,0,0,0-.7-.484,1.882,1.882,0,0,0-1.438.4,6.628,6.628,0,0,1-2.187.961,2.366,2.366,0,0,1-2.194-.663,3.289,3.289,0,0,1-.345-2.737,34.076,34.076,0,0,0,1.027-6.124c.007-2.074-.789-4.308-2.591-5.3-1.591-.908-3.566-.663-5.3-1.16a6.733,6.733,0,0,1-2.479-1.273l-.139-.126a4.251,4.251,0,0,0-.431.205c-.285.152-.59.424-.51.736a.789.789,0,0,0,.292.371,6.826,6.826,0,0,0,2.479,1.266c1.77.484,3.745.258,5.335,1.166,1.8,1.021,2.591,3.261,2.591,5.3A35.626,35.626,0,0,1,936.363,119a3.3,3.3,0,0,0,.345,2.737,2.333,2.333,0,0,0,2.194.663,6.63,6.63,0,0,0,2.187-.954,1.915,1.915,0,0,1,1.438-.4,1.744,1.744,0,0,1,.663.484,12.514,12.514,0,0,1,2.651,3.837c.57,1.326.908,2.711,1.471,4.023a6.5,6.5,0,0,0,2.651,3.314,3.356,3.356,0,0,0,3.977-.418,3.127,3.127,0,0,0,.59-.988A3.38,3.38,0,0,1,950.752,131.484Z" transform="translate(-926.681 -96.178)"/>
        <path id="패스_84" data-name="패스 84" d="M971.54,135.747c.988-1.246,2.28-2.306,3.208-3.619a9.261,9.261,0,0,0,.51-.809C974.065,132.838,972.428,134.064,971.54,135.747Z" transform="translate(-941.808 -105.445)"/>
      </g>
      <g id="그룹_7" data-name="그룹 7" class="cls-3" transform="translate(379.947 44.016)">
        <path id="패스_85" data-name="패스 85" d="M799.331,109.9H642.518a8.218,8.218,0,0,0-8.2,8.192V217.17a8.218,8.218,0,0,0,8.2,8.192H765.529s3.188,16.921-7.291,18.737c0,0,23.449,1.683,19.353-18.737h21.732a8.212,8.212,0,0,0,8.192-8.192V118.092a8.212,8.212,0,0,0-8.185-8.192Z" transform="translate(-634.32 -109.9)"/>
        <g id="그룹_6" data-name="그룹 6" class="cls-4" transform="translate(23.084 26.299)">
          <rect id="사각형_9" data-name="사각형 9" width="127.027" height="7.741" rx="3.871"/>
          <rect id="사각형_10" data-name="사각형 10" width="104.818" height="7.741" rx="3.871" transform="translate(0 34.597)"/>
          <rect id="사각형_11" data-name="사각형 11" width="75.457" height="7.741" rx="3.871" transform="translate(0 17.298)"/>
        </g>
      </g>
      <path id="패스_86" data-name="패스 86" class="cls-2" d="M802.421,107.83H645.609a8.225,8.225,0,0,0-8.2,8.2v99.078a8.219,8.219,0,0,0,8.2,8.192H768.619s3.188,16.921-7.291,18.737c0,0,23.449,1.683,19.353-18.737h21.732a8.212,8.212,0,0,0,8.192-8.192V116.029a8.218,8.218,0,0,0-8.185-8.2Z" transform="translate(-255.415 -65.186)"/>
      <g id="그룹_8" data-name="그룹 8" class="cls-4" transform="translate(405.079 68.943)">
        <rect id="사각형_12" data-name="사각형 12" class="cls-5" width="127.027" height="7.741" rx="3.871"/>
        <rect id="사각형_13" data-name="사각형 13" class="cls-5" width="104.818" height="7.741" rx="3.871" transform="translate(0 34.603)"/>
        <rect id="사각형_14" data-name="사각형 14" class="cls-5" width="75.457" height="7.741" rx="3.871" transform="translate(0 17.305)"/>
      </g>
      <path id="패스_87" data-name="패스 87" class="cls-5" d="M138.881,596.48s2.359,3.089-1.094,7.754-6.3,8.616-5.15,11.512c0,0,5.209-8.662,9.451-8.782S143.547,601.689,138.881,596.48Z" transform="translate(-85.105 -229.972)"/>
      <path id="패스_88" data-name="패스 88" class="cls-7" d="M138.949,596.48a3.9,3.9,0,0,1,.477.968c4.142,4.865,6.343,9.4,2.366,9.517-3.7.106-8.145,6.727-9.213,8.4a1.209,1.209,0,0,0,.126.378s5.209-8.662,9.451-8.782S143.615,601.689,138.949,596.48Z" transform="translate(-85.173 -229.972)"/>
      <path id="패스_89" data-name="패스 89" class="cls-22" d="M148.533,602.062c0,1.087-.119,1.988-.272,1.988s-.272-.881-.272-1.988.152-.577.3-.577S148.533,600.975,148.533,602.062Z" transform="translate(-90.37 -231.617)"/>
      <path id="패스_90" data-name="패스 90" class="cls-22" d="M150.14,604c-.954.524-1.789.835-1.862.7s.663-.663,1.6-1.18.583-.139.663,0S151.094,603.486,150.14,604Z" transform="translate(-90.465 -232.258)"/>
      <path id="패스_91" data-name="패스 91" class="cls-5" d="M120.653,596.48s-2.359,3.089,1.094,7.754,6.3,8.616,5.15,11.512c0,0-5.209-8.662-9.451-8.782S115.987,601.689,120.653,596.48Z" transform="translate(-79.364 -229.972)"/>
      <path id="패스_92" data-name="패스 92" class="cls-7" d="M120.653,596.48a3.9,3.9,0,0,0-.477.968c-4.142,4.865-6.343,9.4-2.366,9.517,3.7.106,8.145,6.727,9.213,8.4-.033.126-.08.252-.126.378,0,0-5.209-8.662-9.451-8.782S115.987,601.689,120.653,596.48Z" transform="translate(-79.364 -229.972)"/>
      <path id="패스_93" data-name="패스 93" class="cls-22" d="M116.73,602.062c0,1.087.119,1.988.272,1.988s.272-.881.272-1.988-.152-.577-.3-.577S116.73,600.975,116.73,602.062Z" transform="translate(-79.828 -231.617)"/>
      <path id="패스_94" data-name="패스 94" class="cls-22" d="M114.15,604c.954.524,1.789.835,1.862.7s-.663-.663-1.6-1.18-.583-.139-.663,0S113.189,603.486,114.15,604Z" transform="translate(-78.759 -232.258)"/>
      <ellipse id="타원_22" data-name="타원 22" class="cls-1" cx="24.708" cy="3.791" rx="24.708" ry="3.791" transform="translate(22.825 401.834)"/>
      <path id="패스_95" data-name="패스 95" class="cls-23" d="M139.041,618.538l-.119.961-.166,1.365-.073.57-.166,1.359-.066.57-.166,1.365-1.9,15.5c-.166,1.385-2.426,2.466-5.156,2.466h-9.849c-2.731,0-4.984-1.08-5.156-2.466l-1.9-15.5-.166-1.365-.066-.57-.166-1.359-.073-.57-.166-1.365-.119-.961c-.093-.782,1.133-1.445,2.651-1.445h20.089C137.881,617.093,139.108,617.756,139.041,618.538Z" transform="translate(-78.763 -236.925)"/>
      <path id="패스_96" data-name="패스 96" class="cls-24" d="M77.892,577.23l-.166,1.365H52.866L52.7,577.23Z" transform="translate(-17.767 -194.656)"/>
      <path id="패스_97" data-name="패스 97" class="cls-24" d="M77.778,580.15l-.166,1.359H53.222l-.172-1.359Z" transform="translate(-17.885 -195.641)"/>
      <path id="패스_98" data-name="패스 98" class="cls-24" d="M77.661,583.06l-.166,1.365H53.576l-.166-1.365Z" transform="translate(-18.006 -196.622)"/>
      <ellipse id="타원_23" data-name="타원 23" class="cls-1" cx="55.699" cy="9.14" rx="55.699" ry="9.14" transform="translate(372.318 514.022)"/>
      <g id="그룹_10" data-name="그룹 10" class="cls-3" transform="translate(313.722 242.49)">
        <path id="패스_99" data-name="패스 99" d="M713.21,409.36H543.281a8.908,8.908,0,0,0-8.881,8.881V525.61a8.908,8.908,0,0,0,8.881,8.881h133.3s3.453,18.332-7.894,20.3c0,0,25.4,1.823,20.964-20.3H713.21a8.908,8.908,0,0,0,8.881-8.881V418.241A8.908,8.908,0,0,0,713.21,409.36Z" transform="translate(-534.4 -409.36)"/>
        <g id="그룹_9" data-name="그룹 9" class="cls-4" transform="translate(25.013 47.249)">
          <rect id="사각형_15" data-name="사각형 15" width="137.658" height="8.391" rx="4.195" transform="translate(0 18.75)"/>
          <rect id="사각형_16" data-name="사각형 16" width="59.689" height="8.391" rx="4.195"/>
        </g>
      </g>
      <path id="패스_100" data-name="패스 100" class="cls-2" d="M711,407.13H541.041a8.908,8.908,0,0,0-8.881,8.881V523.38a8.908,8.908,0,0,0,8.881,8.881h133.3s3.453,18.332-7.894,20.307c0,0,25.411,1.823,20.97-20.307H711a8.908,8.908,0,0,0,8.881-8.881V416.011A8.908,8.908,0,0,0,711,407.13Z" transform="translate(-219.922 -166.118)"/>
      <g id="그룹_11" data-name="그룹 11" class="cls-4" transform="translate(337.257 288.261)">
        <rect id="사각형_17" data-name="사각형 17" class="cls-5" width="137.658" height="8.391" rx="4.195" transform="translate(0 18.75)"/>
        <rect id="사각형_18" data-name="사각형 18" class="cls-5" width="59.689" height="8.391" rx="4.195"/>
      </g>
      <path id="패스_101" data-name="패스 101" class="cls-25" d="M683.663,674.623c-.8-3.4-1.326-6.389-1.326-6.389a13.169,13.169,0,0,0-1.478-6.489v-.928h0v-6.846a22.968,22.968,0,0,1,1.73-3.586c1.233-2.154,0-10.041,0-10.041s-4.573-11.121-3.46-18.173-9.391-31.329-9.391-31.329a30.815,30.815,0,0,1,.987-6.933,5.366,5.366,0,0,0,.133-1.451,1.591,1.591,0,0,0,0-.179v.06c-.159-4.639-3.838-13.375-3.838-13.375l.5-16.616s2.346-9.8-1.485-22.959c-1.326-4.586-2.194-8.265-2.737-11.095-.06-.325-.119-.663-.172-.928,7.887-1.2,13.918-2.2,13.918-2.2s-4.56-19.134-7.648-22.448S663.84,478.8,663.84,478.8s-1.61-13.514.988-17.457,2.963-10.757,2.963-10.757,5.965-4.308,6.674-6.217,1.988-6.217,1.988-8.49-.742-4.308-.5-5.5-1.73-5.74-.742-7.894a5.8,5.8,0,0,0,.4-2.074v-.06h0a29.306,29.306,0,0,0-.524-5.607,15.9,15.9,0,0,0-5.866-3.135l-.133-.517-.331-1.326c-.2-.133-.391-.245-.583-.351v-.49l-.06-1.942.935-4.361c1.823-7.6-8.311-8.729-8.311-8.729a5.3,5.3,0,0,0-2.87-2.512c-2.041-.716-.338,11.42.616,12.2.716.583,2.929,4.388,3.977,6.257h0l.172.311a3.726,3.726,0,0,0-.464.484l.384,2.651.06.4A11.041,11.041,0,0,0,661,416.44a5.888,5.888,0,0,1,1.485,4.308,13.1,13.1,0,0,0,.61,5.256c-.106-.126-1.412-1.538-2.711-1.193s-4.944,1.438-4.944,1.438-2.717.477-2.466,1.074-1.856,3.228-1.856,3.228l-7.29-6.919c-.066-.205-.146-.411-.212-.63a17.344,17.344,0,0,1-.663-3.029,17.35,17.35,0,0,0,2.333-.742,5.049,5.049,0,0,0,1.988-1.292,7.866,7.866,0,0,0,1.173-3.148c.583-2.128,1.823-4.023,2.711-6.044a19.618,19.618,0,0,0,1.458-10.85,7.166,7.166,0,0,0-1.12-3.175c-1.193-1.644-3.354-2.306-4.931-3.619s-2.585-3.314-4.414-4.288a8.787,8.787,0,0,0-5.547-.477,29.885,29.885,0,0,0-10.346,3.764c-1.067.63-2.234,1.359-3.46,1.14a4.663,4.663,0,0,1-2.5-1.836.122.122,0,0,1,.033-.1l-.08-.093a12.838,12.838,0,0,0-1.08,5.415,7.722,7.722,0,0,0,.033.875v.557h0a1.33,1.33,0,0,1-.053.391,2.851,2.851,0,0,1-.663.988,5.188,5.188,0,0,0-.6.809,2.667,2.667,0,0,1,.1-.3,4.342,4.342,0,0,0-.756,2.306,2.281,2.281,0,0,0,.543,1.644,7.96,7.96,0,0,0,1.193.961,13.918,13.918,0,0,0,6.628,14.475c.086.205.172.417.252.63a17.427,17.427,0,0,1,1.326,7.953,2.893,2.893,0,0,1-.093.583c-.04.192-.179.2-.259.3h0s-12.056.119-14.9-2.452-7.165,6.277-7.165,6.277-4.321.835-5.183,0-5.932-.119-5.932-.119a10.9,10.9,0,0,0-7.5-2.744,22.294,22.294,0,0,0-5.528-3.075h0l-.133-.046h0a6.217,6.217,0,0,0-2.717-.345s-5.932-4.9-7.662-7.529-9.942-12.387-10-12.434v-.471l-.093-1.425a4.714,4.714,0,0,1-.736.066c-.046-.139-.1-.3-.166-.49a27.551,27.551,0,0,0-1.75-4.023s0-1.789.523-2.24-.219-7.025-.219-7.025-5.342-12.493-10.127-3.168c0,0-9.047,6.038-1.451,13.063,0,0,3.029,1.465,3.453,2.651.285.756,1.326,2.863,1.988,4.262l.312.63-.086.073.113,1.173.046.451c-1.432.815-2.4,1.617-2.167,2.227a13.48,13.48,0,0,1,.868,3.228s10.459,13.123,11.817,18.757c0,0,28.161,16.735,37.427,17.928l-1.6,8.371a66.928,66.928,0,0,0-.371,6.813c.119,1.8-1.113,9.942-1.113,9.942s-1.6,11.93-2.963,13.627-1.08,8.835-1.08,8.835a60.393,60.393,0,0,1-1.856,10.16c-1.326,4.547-.371,10.167-.371,10.167s-4.692,10.757,6.548,3.466c0,0,5.521-.345,11.877-.563v.663c0,.815,0,1.7-.04,2.651-.086,6.164-.119,14.654.159,21.083.5,11.353,3.977,33.835,3.977,33.835v11.267a15.508,15.508,0,0,0-.325,3.228,21.044,21.044,0,0,0,3.042,11.307l.868,7.529s2.028,4.964,2.068,7.953a4.575,4.575,0,0,1-.086.722,5.14,5.14,0,0,0-.1,1.153c-.113,3.42,1.949,11.6,1.949,11.6s.119,8.251,1.326,8.729c1.054.411-1.412,4.759-2.147,6a.44.44,0,0,0-.046-.239l-.152.252a5.78,5.78,0,0,0-.384,2.081,3,3,0,0,0,1.372,2.9c2.346,1.432,3.606,2.651,1.611,3.108a21.431,21.431,0,0,0-2.174.457l-.106-.278a1.325,1.325,0,0,0-.809,1.445,6.018,6.018,0,0,0,.736,2.8,31.9,31.9,0,0,0,3.314,6.1l.954-.106a5.107,5.107,0,0,1-.55,1.021,3.935,3.935,0,0,1-1.4,1.239,4.214,4.214,0,0,1-1.69.577,4.778,4.778,0,0,0-3.5,1.7c-1.233,1.6-1.988,3.765.431,5.673l8.835,3.049s15.191,1.988,14.389-1.438-1.326-6.4-1.326-6.4a13.467,13.467,0,0,0-1.233-6.045,8.09,8.09,0,0,0-.537-.888l.537-.06s1.114-7.536,2.591-8.967c.345-.331.424-.583.338-.782.152-.411-.232-.663-.729-.789l-.106.3a7.226,7.226,0,0,0-1.478-.166s-.49-3.944,1.113-5.375a1.524,1.524,0,0,0,.311-1.173,6.585,6.585,0,0,0-.166-1.611l-.06.093a58.353,58.353,0,0,0-3.546-9.279s-.126-3.586.868-5.024-.126-19.486-.126-19.486.371-8.729-.742-12.791,1.359-8.848,1.359-8.848v-.265l.033-.06s-.06-.537-.146-1.372v.08c-.252-2.307-.722-6.5-1.067-8.431-.5-2.75.119-15.907.119-15.907l2.227-5.62,3.977,9.69,4.2,12.911a10.985,10.985,0,0,1,2.127,5.488,2.725,2.725,0,0,1,0,.4,7.785,7.785,0,0,0-.046.868,7.647,7.647,0,0,0,1.279,4.593s1.113,6.1,2.843,7.655,1.73,4.54,1.73,4.54,2.094,8.848,3.089,10.406c.828,1.326.875,4.911.868,6.011h0v.325s.292,3.161.278,5.819v.948a.286.286,0,0,1,0-.073,9.709,9.709,0,0,1-.258,2.154.223.223,0,0,1-.04.126l.04-.451a22.774,22.774,0,0,0-.663,5.514c-.06,3.181.424,6.946,2.353,9.153,3.314,3.831,5.435,3.354,5.435,3.354s-1.6,4.779-3.586,5.733a1.12,1.12,0,0,0-.205.139,2.074,2.074,0,0,0-.053-.278,2.319,2.319,0,0,0-.577,1.783,12.705,12.705,0,0,0,2.446,7.085,3.856,3.856,0,0,0,1.67.974l-.312.192a6.786,6.786,0,0,1-.663.325,3.2,3.2,0,0,1-1.007.259,4.732,4.732,0,0,0-3.5,1.7c-1.233,1.591-1.988,3.758.431,5.667l8.835,3.049S684.465,678.036,683.663,674.623Z" transform="translate(-223.594 -157.678)"/>
      <path id="패스_102" data-name="패스 102" class="cls-26" d="M662.516,823.463l-8.55-3.049c-2.359-1.909-1.6-4.076-.417-5.673a4.573,4.573,0,0,1,3.387-1.7,3.975,3.975,0,0,0,1.637-.577,3.836,3.836,0,0,0,1.325-1.239,6.249,6.249,0,0,0,.974-3.314s9.391-2.751,11.93,0a7.066,7.066,0,0,1,1.14,1.664,13.916,13.916,0,0,1,1.193,6.045s.484,2.989,1.253,6.4S662.516,823.463,662.516,823.463Z" transform="translate(-260.478 -300.858)"/>
      <path id="패스_103" data-name="패스 103" class="cls-26" d="M725.654,817.1l-8.55-3.049c-2.36-1.909-1.61-4.076-.418-5.667a4.527,4.527,0,0,1,3.387-1.7,3,3,0,0,0,.974-.258,5.03,5.03,0,0,0,.663-.325c2.386-1.326,2.326-4.54,2.326-4.54s9.385-2.751,11.93,0a6.415,6.415,0,0,1,.895,1.219,13.526,13.526,0,0,1,1.438,6.5s.477,2.989,1.253,6.4S725.654,817.1,725.654,817.1Z" transform="translate(-281.77 -298.717)"/>
      <path id="패스_104" data-name="패스 104" class="cls-7" d="M676.671,807.915a7.065,7.065,0,0,1,1.14,1.664h0l-14.071,1.63a6.248,6.248,0,0,0,.974-3.314S674.106,805.165,676.671,807.915Z" transform="translate(-264.294 -300.859)"/>
      <path id="패스_105" data-name="패스 105" class="cls-7" d="M739.68,802.764v2.651c-2.181,3.605-12.765,2.817-15.84,1.007a5.038,5.038,0,0,0,.663-.325c2.386-1.326,2.326-4.54,2.326-4.54s9.385-2.751,11.93,0A6.405,6.405,0,0,1,739.68,802.764Z" transform="translate(-284.562 -298.717)"/>
      <path id="패스_106" data-name="패스 106" class="cls-16" d="M713.9,715.772a24.36,24.36,0,0,0-1.677,3.586V728.8c-2.386,3.977-14.82,2.651-16.5.477s-3.466-7.768-1.551-8.722,3.466-5.74,3.466-5.74-2.035.477-5.262-3.347-2.273-12.314-1.67-14.349,0-8.848,0-8.848.119-4.779-.842-6.336-2.989-10.4-2.989-10.4,0-2.989-1.67-4.547-2.751-7.648-2.751-7.648a7.854,7.854,0,0,1-1.213-5.137c.365-2.989-2.028-6.217-2.028-6.217l-4.063-12.911-3.831-9.683-2.134,5.614s-.6,13.149-.119,15.906,1.193,10.041,1.193,10.041-2.393,4.785-1.326,8.848.716,12.792.716,12.792,1.074,18.054.119,19.486-.835,5.024-.835,5.024,4.9,10.518,3.314,11.93-1.08,5.382-1.08,5.382,3.314,0,1.915,1.432-2.446,8.987-2.446,8.987l-14.455,1.67a30.025,30.025,0,0,1-3.241-6.1c-1.915-4.427.358-3.977,2.287-4.421s.7-1.677-1.564-3.108-.961-4.639-.961-4.639,3.466-5.859,2.273-6.343-1.326-8.722-1.326-8.722-2.393-9.809-1.8-12.434-1.915-8.967-1.915-8.967l-.835-7.536a20.725,20.725,0,0,1-2.651-14.223V644.4s-3.314-22.475-3.824-33.835c-.3-7.29-.219-17.2-.119-23.4.06-3.473.119-5.773.119-5.773L694.3,576a42.662,42.662,0,0,0,.934,7.668c.524,2.837,1.326,6.508,2.651,11.1,3.7,13.149,1.432,22.952,1.432,22.952l-.477,16.622s4.547,11.115,3.586,14.946a31.816,31.816,0,0,0-.954,6.933s10.16,24.271,9.087,31.323,3.314,18.173,3.314,18.173S715.093,713.618,713.9,715.772Z" transform="translate(-257.105 -223.065)"/>
      <path id="패스_107" data-name="패스 107" class="cls-14" d="M705.71,691.844l15.728-2.094S712.53,698.837,705.71,691.844Z" transform="translate(-278.448 -261.425)"/>
      <path id="패스_108" data-name="패스 108" class="cls-7" d="M724.54,666.57s.537,5.561-2.87,7.655C721.677,674.225,727.774,673.264,724.54,666.57Z" transform="translate(-283.83 -253.608)"/>
      <path id="패스_109" data-name="패스 109" class="cls-7" d="M715.111,639.88s-13.143,10.816-17.895,9.942S715.111,639.88,715.111,639.88Z" transform="translate(-275.363 -244.607)"/>
      <path id="패스_110" data-name="패스 110" class="cls-7" d="M671.076,700.58s-9.981,2.267-10.28,6.276S671.076,700.58,671.076,700.58Z" transform="translate(-263.3 -265.077)"/>
      <path id="패스_111" data-name="패스 111" class="cls-14" d="M674.117,775.8s-14.1,2.651-10.1,4.421a71.1,71.1,0,0,0,10.6,3.228S679.141,783.687,674.117,775.8Z" transform="translate(-264.146 -290.443)"/>
      <g id="그룹_12" data-name="그룹 12" class="cls-27" transform="translate(385.304 357.985)">
        <path id="패스_112" data-name="패스 112" d="M659.157,785.728a2.81,2.81,0,0,1-1.286-2.048l-.146.252s-1.326,3.228.954,4.639c.265.166.51.331.736.49.424-.08.875-.139,1.326-.245C662.649,788.353,661.43,787.16,659.157,785.728Z" transform="translate(-647.441 -651.086)"/>
        <path id="패스_113" data-name="패스 113" d="M687.16,784.069c.391-.358.378-1.279.139-2.459a6.667,6.667,0,0,0-.8,3.466A2.9,2.9,0,0,1,687.16,784.069Z" transform="translate(-657.271 -650.388)"/>
        <path id="패스_114" data-name="패스 114" d="M683.744,695.58a16.074,16.074,0,0,0-.954,4.394,17.3,17.3,0,0,1,1.094-3.022S683.831,696.415,683.744,695.58Z" transform="translate(-656.023 -621.376)"/>
        <path id="패스_115" data-name="패스 115" d="M732.869,685.435A5.5,5.5,0,0,0,733,684.11c-.179.888-.3,1.717-.391,2.446A6.433,6.433,0,0,1,732.869,685.435Z" transform="translate(-672.823 -617.508)"/>
        <path id="패스_116" data-name="패스 116" d="M683.555,758.361a7.621,7.621,0,0,0,.358-2.651,9.008,9.008,0,0,0-.663,3.354A3.234,3.234,0,0,1,683.555,758.361Z" transform="translate(-656.178 -641.653)"/>
        <path id="패스_117" data-name="패스 117" d="M677.73,793.72a47.065,47.065,0,0,0-1.644,7.344l-14.455,1.677a30.3,30.3,0,0,1-3.241-6.1c-.166-.391-.3-.736-.4-1.054-.868.4-1.206,1.325-.073,3.924a30.583,30.583,0,0,0,3.234,6.1l14.475-1.677s1.074-7.529,2.505-8.967C678.823,794.263,678.373,793.906,677.73,793.72Z" transform="translate(-647.39 -654.471)"/>
        <path id="패스_118" data-name="패스 118" d="M653.642,701.4s.119,8.252,1.326,8.729h0c.6-1.365,1.007-2.651.471-2.876-1.2-.477-1.326-8.729-1.326-8.729s-2.386-9.8-1.789-12.434-1.915-8.967-1.915-8.967l-.835-7.529a20.7,20.7,0,0,1-2.651-14.23v-11.6s-3.314-22.475-3.824-33.8c-.3-7.291-.219-17.232-.119-23.4,0-1.12.033-2.114.053-2.949l-.411.04s-.066,2.3-.119,5.779c-.106,6.19-.192,16.119.119,23.389.477,11.36,3.824,33.835,3.824,33.835v11.6a20.7,20.7,0,0,0,2.651,14.23l.842,7.483s2.512,6.336,1.915,8.967S653.642,701.4,653.642,701.4Z" transform="translate(-642.403 -583.62)"/>
        <path id="패스_119" data-name="패스 119" d="M722.128,799.57a13.918,13.918,0,0,1-2.286-5.68c-1.478,1.326.219,6.5,1.809,8.55,1.67,2.147,14.1,3.466,16.5-.477v-2.28C734.913,802.891,723.732,801.6,722.128,799.57Z" transform="translate(-668.326 -654.529)"/>
        <path id="패스_120" data-name="패스 120" d="M750.147,782.026a23.2,23.2,0,0,0-1.677,3.586v1.664c.272-.616.663-1.432,1.2-2.4a7.152,7.152,0,0,0,.524-2.956A.4.4,0,0,0,750.147,782.026Z" transform="translate(-678.172 -650.492)"/>
        <path id="패스_121" data-name="패스 121" d="M721.207,775.95a23.09,23.09,0,0,0,1.18-2.843s-2.035.477-5.262-3.314c-2.353-2.784-2.485-8.039-2.147-11.473-.6,2.028-1.557,10.518,1.67,14.342C718.762,775.135,720.352,775.791,721.207,775.95Z" transform="translate(-666.67 -642.534)"/>
        <path id="패스_122" data-name="패스 122" d="M704.539,711.46a63.915,63.915,0,0,1,.239,7.085,10.325,10.325,0,0,1,.245-1.113c.6-2.028,0-8.841,0-8.841s.119-4.785-.835-6.336-2.989-10.406-2.989-10.406,0-2.989-1.67-4.54-2.751-7.655-2.751-7.655a7.827,7.827,0,0,1-1.2-5.136c.358-2.989-2.028-6.217-2.028-6.217l-4.069-12.917-3.824-9.683-2.154,5.62s0,.709-.073,1.816l1.75-4.567L689,658.253l4.083,12.917s2.393,3.228,2.035,6.217a7.827,7.827,0,0,0,1.2,5.136s1.074,6.1,2.744,7.655,1.677,4.54,1.677,4.54,2.035,8.848,2.989,10.405S704.539,711.46,704.539,711.46Z" transform="translate(-656.239 -604.555)"/>
      </g>
      <path id="패스_123" data-name="패스 123" class="cls-28" d="M724.453,407.269l-.9,4.361.053,1.942.04,1.438-4.991.51-.557-1.034h0c-1.034-1.869-3.175-5.673-3.871-6.257-.921-.775-2.565-12.911-.59-12.2a5.223,5.223,0,0,1,2.777,2.519S726.216,399.706,724.453,407.269Z" transform="translate(-280.807 -162.366)"/>
      <path id="패스_124" data-name="패스 124" class="cls-7" d="M726.388,423.692l-4.991.51-.557-1.034h0a4.407,4.407,0,0,1,5.508-.908Z" transform="translate(-283.55 -171.022)"/>
      <path id="패스_125" data-name="패스 125" class="cls-17" d="M727.5,426.273,720.92,427.8l-.133-.981-.378-2.651a4.526,4.526,0,0,1,6.369-.868l.325,1.326Z" transform="translate(-283.405 -171.243)"/>
      <path id="패스_126" data-name="패스 126" class="cls-28" d="M562.239,403.078l-7.019,3.765-.663-1.326c-.663-1.4-1.664-3.506-1.935-4.262-.418-1.16-3.347-2.651-3.347-2.651-7.35-7.025,1.405-13.063,1.405-13.063,4.639-9.325,9.8,3.168,9.8,3.168s.716,6.581.212,7.025-.51,2.24-.51,2.24a27.219,27.219,0,0,1,1.7,4.023C562.126,402.667,562.239,403.078,562.239,403.078Z" transform="translate(-224.703 -157.671)"/>
      <path id="패스_127" data-name="패스 127" class="cls-7" d="M566.422,413.195l-7.019,3.765-.663-1.326c.988-.822,4.507-3.672,5.66-3.546a8.826,8.826,0,0,0,1.664.046C566.309,412.784,566.422,413.195,566.422,413.195Z" transform="translate(-228.886 -167.788)"/>
      <path id="패스_128" data-name="패스 128" class="cls-17" d="M567.259,415.6l-7.887,3.891-.159-1.7-.113-1.173s4.573-3.917,5.925-3.771a7.134,7.134,0,0,0,2.061,0l.086,1.418Z" transform="translate(-229.007 -168.045)"/>
      <path id="패스_129" data-name="패스 129" class="cls-28" d="M686.928,443.206s-34.411,3.884-27.976,1.8c4.474-1.458,6.25-4.3,6.628-7.463a17.927,17.927,0,0,0-1.286-7.953,34.234,34.234,0,0,0-3.075-6.217s26.305-14.468,21.043-1.326a21.076,21.076,0,0,0-1.491,6.23,17.417,17.417,0,0,0,.663,6.3A18.736,18.736,0,0,0,686.928,443.206Z" transform="translate(-262.409 -169.287)"/>
      <path id="패스_130" data-name="패스 130" class="cls-7" d="M683.823,422.045a21.08,21.08,0,0,0-1.491,6.23c-2.479,2.081-5.2,1.942-8.682,1.942-2.651,0-5.647.663-7.794-.663a34.229,34.229,0,0,0-3.075-6.217S689.086,408.882,683.823,422.045Z" transform="translate(-263.971 -169.282)"/>
      <circle id="타원_24" data-name="타원 24" class="cls-28" cx="14.23" cy="14.23" r="14.23" transform="translate(394.978 233.39)"/>
      <path id="패스_131" data-name="패스 131" class="cls-7" d="M686.928,451.638s-34.411,3.884-27.976,1.8c4.474-1.458,6.25-4.3,6.628-7.463,1.71-1.856,5.15-3.195,7.363-3.9a10.279,10.279,0,0,1,6.237-.1,8.66,8.66,0,0,1,2.267,1.047A18.736,18.736,0,0,0,686.928,451.638Z" transform="translate(-262.409 -177.719)"/>
      <path id="패스_132" data-name="패스 132" class="cls-7" d="M727.694,427.34l-6.581,1.524-.133-.981a5.812,5.812,0,0,1,6.316-2.161Z" transform="translate(-283.597 -172.31)"/>
      <path id="패스_133" data-name="패스 133" class="cls-7" d="M567.316,416.322l-7.887,3.89-.159-1.7a57.986,57.986,0,0,1,7.953-3.526Z" transform="translate(-229.064 -168.768)"/>
      <path id="패스_134" data-name="패스 134" class="cls-7" d="M695.284,583.682c-13.322,2.108-32.29,4.845-35.3,3.93-2.492-.762-10.465-.663-17.4-.444.06-3.473.119-5.773.119-5.773l51.65-5.4A42.654,42.654,0,0,0,695.284,583.682Z" transform="translate(-257.159 -223.065)"/>
      <path id="패스_135" data-name="패스 135" class="cls-29" d="M679.432,526.472s-43.876,7.536-48.588,6.1-28.884.119-28.884.119c-10.876,7.29-6.336-3.466-6.336-3.466s-.954-5.62.358-10.16a61.885,61.885,0,0,0,1.829-10.16s-.238-7.178,1.074-8.848,2.87-13.633,2.87-13.633,1.2-8.126,1.08-9.942a67.977,67.977,0,0,1,.358-6.813l1.551-8.371c-8.967-1.193-36.227-17.935-36.227-17.935-1.326-5.614-11.473-18.77-11.473-18.77a13.647,13.647,0,0,0-.842-3.228c-.716-1.909,10.048-5.733,10.048-5.733s8.006,9.8,9.683,12.434,7.41,7.529,7.41,7.529a5.832,5.832,0,0,1,2.651.345l.139.04h0a21.435,21.435,0,0,1,5.355,3.075,10.379,10.379,0,0,1,7.29,2.75s4.9-.716,5.74.119,5.024,0,5.024,0,4.182-8.848,6.933-6.276,14.415,2.452,14.415,2.452c1.557-2.068,5.342-3.552,7.708-4.315a10.327,10.327,0,0,1,6.237-.1,8.043,8.043,0,0,1,2.459,1.186l7.078,6.933s2.035-2.651,1.8-3.228,2.393-1.074,2.393-1.074,3.466-1.08,4.779-1.438,2.519,1.067,2.651,1.193A14.017,14.017,0,0,1,665.4,432c.351-2.207-1.438-4.308-1.438-4.308,4.189-10.28,13.633-1.67,13.633-1.67s1.074,5.62.119,7.768.954,6.7.716,7.894.477,3.228.477,5.5a32.257,32.257,0,0,1-1.915,8.483c-.723,1.909-6.456,6.217-6.456,6.217s-.358,6.82-2.87,10.763-1.027,17.457-1.027,17.457,2.393,10.545,5.4,13.918S679.432,526.472,679.432,526.472Z" transform="translate(-228.019 -168.984)"/>
      <path id="패스_136" data-name="패스 136" class="cls-7" d="M642.608,460.45s-1.326-3.944-2.512-4.3a28.462,28.462,0,0,1-3.466-1.558l.769-1.471s4.487,1.233,5.209,2.545S642.608,460.45,642.608,460.45Z" transform="translate(-255.152 -181.627)"/>
      <path id="패스_137" data-name="패스 137" class="cls-7" d="M603.853,449.412c-.239,1.193-10.883,2.273-10.883,2.273l5.382-5.4h0l.133.046h0A21.433,21.433,0,0,1,603.853,449.412Z" transform="translate(-240.429 -179.323)"/>
      <circle id="타원_25" data-name="타원 25" class="cls-16" cx="0.954" cy="0.954" r="0.954" transform="translate(331.677 252.73)"/>
      <circle id="타원_26" data-name="타원 26" class="cls-16" cx="0.954" cy="0.954" r="0.954" transform="translate(332.903 254.646)"/>
      <circle id="타원_27" data-name="타원 27" class="cls-16" cx="0.954" cy="0.954" r="0.954" transform="translate(334.103 256.409)"/>
      <circle id="타원_28" data-name="타원 28" class="cls-16" cx="0.954" cy="0.954" r="0.954" transform="translate(335.355 258.324)"/>
      <circle id="타원_29" data-name="타원 29" class="cls-16" cx="0.775" cy="0.775" r="0.775" transform="translate(448.232 258.397)"/>
      <circle id="타원_30" data-name="타원 30" class="cls-16" cx="0.775" cy="0.775" r="0.775" transform="translate(448.352 260.16)"/>
      <circle id="타원_31" data-name="타원 31" class="cls-16" cx="0.775" cy="0.775" r="0.775" transform="translate(448.458 261.923)"/>
      <path id="패스_138" data-name="패스 138" class="cls-7" d="M645.74,513.06c-.113-.139,26.836,33.894,47.759,14.23C693.5,527.29,660.44,531.77,645.74,513.06Z" transform="translate(-258.224 -201.84)"/>
      <path id="패스_139" data-name="패스 139" class="cls-7" d="M622.38,539.76s16.125.437,17.809,5.077v4.832a3.082,3.082,0,0,1-3,0c-1.624-.881-11.38-5.832-14.813-3.453Z" transform="translate(-250.347 -210.844)"/>
      <path id="패스_140" data-name="패스 140" class="cls-29" d="M622.83,539.76s15.423.418,17.033,4.845V549.2a2.955,2.955,0,0,1-2.87,0c-1.551-.835-10.876-5.561-14.163-3.314Z" transform="translate(-250.499 -210.844)"/>
      <path id="패스_141" data-name="패스 141" class="cls-7" d="M635.66,486.92a52.1,52.1,0,0,0,6.25,10.73,42.071,42.071,0,0,0,9.8,9.458S635.925,489.14,635.66,486.92Z" transform="translate(-254.825 -193.025)"/>
      <path id="패스_142" data-name="패스 142" class="cls-7" d="M627.7,458.65s2.691,11.612,9.623,15.562Z" transform="translate(-252.141 -183.492)"/>
      <path id="패스_143" data-name="패스 143" class="cls-7" d="M621.348,460.418c-.066-.212-2.386,9.186,8.941,14.389C630.316,474.807,625.478,473.17,621.348,460.418Z" transform="translate(-249.918 -184.087)"/>
      <path id="패스_144" data-name="패스 144" class="cls-7" d="M727.718,448.666c-.179,0,5.594,3.672,7.158,5.375C734.876,454.041,731.125,448.428,727.718,448.666Z" transform="translate(-285.868 -180.122)"/>
      <path id="패스_145" data-name="패스 145" class="cls-26" d="M666.661,420.224a3.029,3.029,0,0,0,1.113,1.922,3.069,3.069,0,0,0,1.326.3c4.341.265,8.855.457,12.864-1.213a4.866,4.866,0,0,0,1.988-1.292,8.02,8.02,0,0,0,1.14-3.148,41.3,41.3,0,0,1,2.651-6.044,20.275,20.275,0,0,0,1.405-10.85,7.194,7.194,0,0,0-1.08-3.175c-1.153-1.644-3.248-2.306-4.772-3.612s-2.5-3.314-4.275-4.295a8.25,8.25,0,0,0-5.368-.477,28.328,28.328,0,0,0-10.087,3.765c-1.027.63-2.161,1.359-3.314,1.14a4.629,4.629,0,0,1-2.465-1.889,13.256,13.256,0,0,0-1.06,6.2,2.757,2.757,0,0,1,0,.935,2.885,2.885,0,0,1-.663.987c-1.074,1.239-1.743,3.208-.663,4.46.457.55,1.167.848,1.617,1.405.8,1,.53,2.432.51,3.718a1.9,1.9,0,0,0,.318,1.259,1.836,1.836,0,0,0,1.756.418,4.872,4.872,0,0,1,1.869-.179,3.075,3.075,0,0,1,1.624,1.253C665.044,414.352,665.819,417.155,666.661,420.224Z" transform="translate(-261.297 -159.706)"/>
      <g id="그룹_13" data-name="그룹 13" class="cls-3" transform="translate(393.511 231.508)">
        <path id="패스_146" data-name="패스 146" d="M684.388,424.889a4.813,4.813,0,0,1-1.988,1.326c-3.977,1.67-8.523,1.478-12.864,1.206a2.889,2.889,0,0,1-1.326-.3A3.009,3.009,0,0,1,667.1,425.2c-.842-3.062-1.617-5.866-3.625-8.411a3.075,3.075,0,0,0-1.624-1.253,4.746,4.746,0,0,0-1.869.179,1.849,1.849,0,0,1-1.737-.418,1.909,1.909,0,0,1-.318-1.266c0-1.279.292-2.717-.51-3.711-.451-.563-1.153-.855-1.617-1.405a2.81,2.81,0,0,1-.278-2.857c-.756,1.206-1.087,2.757-.2,3.811.457.55,1.166.848,1.617,1.405.8,1,.53,2.432.51,3.718a1.9,1.9,0,0,0,.318,1.259,1.836,1.836,0,0,0,1.756.418,4.872,4.872,0,0,1,1.869-.179,3.076,3.076,0,0,1,1.624,1.253c1.988,2.545,2.784,5.349,3.625,8.417a2.247,2.247,0,0,0,2.452,2.22c4.341.265,8.855.457,12.864-1.213a4.866,4.866,0,0,0,1.988-1.292,3.8,3.8,0,0,0,.616-1.153A2.02,2.02,0,0,1,684.388,424.889Z" transform="translate(-654.786 -397.265)"/>
        <path id="패스_147" data-name="패스 147" d="M657.643,399.683a1.988,1.988,0,0,0,.437-.716,2.767,2.767,0,0,0,0-.935,13.188,13.188,0,0,1,.663-5.15l-.08-.093a13.163,13.163,0,0,0-1.06,6.2A4.071,4.071,0,0,1,657.643,399.683Z" transform="translate(-655.725 -392.79)"/>
      </g>
      <path id="패스_148" data-name="패스 148" class="cls-7" d="M668.84,449.408s17.776,2.353,19.373-.318" transform="translate(-266.014 -180.268)"/>
      <path id="패스_149" data-name="패스 149" class="cls-7" d="M721,438.47s9.869,0,12.043,3.718" transform="translate(-283.604 -176.686)"/>
      <path id="패스_150" data-name="패스 150" class="cls-5" d="M1040.008,425s1.233,1.611-.57,4.05-3.314,4.5-2.691,6.018c0,0,2.724-4.527,4.938-4.593S1042.447,427.691,1040.008,425Z" transform="translate(-390.034 -172.144)"/>
      <path id="패스_151" data-name="패스 151" class="cls-7" d="M1040.047,425a2.19,2.19,0,0,1,.252.5c2.161,2.545,3.314,4.911,1.233,4.971-1.935.06-4.255,3.519-4.812,4.394a.588.588,0,0,0,.066.2c.026.066,2.724-4.527,4.938-4.593S1042.486,427.691,1040.047,425Z" transform="translate(-390.073 -172.144)"/>
      <path id="패스_152" data-name="패스 152" class="cls-22" d="M1045.055,427.865c0,.57-.06,1.034-.139,1.034s-.146-.464-.146-1.034.08-.3.159-.3S1045.055,427.3,1045.055,427.865Z" transform="translate(-392.788 -172.988)"/>
      <path id="패스_153" data-name="패스 153" class="cls-22" d="M1045.9,428.881c-.5.272-.935.437-.968.365s.331-.345.835-.616.3-.073.338,0S1046.4,428.61,1045.9,428.881Z" transform="translate(-392.841 -173.321)"/>
      <path id="패스_154" data-name="패스 154" class="cls-5" d="M1030.487,425s-1.239,1.611.57,4.05,3.314,4.5,2.691,6.018c0,0-2.724-4.527-4.944-4.593S1028.048,427.691,1030.487,425Z" transform="translate(-387.035 -172.144)"/>
      <path id="패스_155" data-name="패스 155" class="cls-7" d="M1030.487,425a2.028,2.028,0,0,0-.259.5c-2.16,2.545-3.314,4.911-1.233,4.971,1.935.06,4.262,3.519,4.818,4.394a.59.59,0,0,1-.066.2c-.027.066-2.724-4.527-4.944-4.593S1028.048,427.691,1030.487,425Z" transform="translate(-387.035 -172.144)"/>
      <path id="패스_156" data-name="패스 156" class="cls-22" d="M1028.43,427.867c0,.57.066,1.034.146,1.034a2.1,2.1,0,0,0,.139-1.034c0-.563-.08-.3-.159-.3S1028.43,427.3,1028.43,427.867Z" transform="translate(-387.278 -172.989)"/>
      <path id="패스_157" data-name="패스 157" class="cls-22" d="M1027.085,428.881c.5.272.935.437.974.365s-.338-.345-.835-.616-.3-.073-.345,0S1026.588,428.61,1027.085,428.881Z" transform="translate(-386.721 -173.321)"/>
      <path id="패스_158" data-name="패스 158" class="cls-30" d="M1029,438.87s3.453-.106,4.494-.848,5.3-1.624,5.574-.437,5.19,5.912,1.326,5.965-9.06-.6-10.1-1.239S1029,438.87,1029,438.87Z" transform="translate(-387.47 -176.192)"/>
      <path id="패스_159" data-name="패스 159" class="cls-31" d="M1040.439,444.068c-3.9,0-9.06-.61-10.094-1.239-.8-.484-1.107-2.214-1.213-3.009H1029s.219,2.79,1.259,3.42,6.2,1.273,10.1,1.239c1.127,0,1.511-.411,1.491-1C1041.705,443.836,1041.281,444.062,1040.439,444.068Z" transform="translate(-387.47 -177.142)"/>
    </g>
  </g>
</svg>
